<svg width="9" height="10" viewBox="0 0 9 10" fill="none" xmlns="http://www.w3.org/2000/svg">
<path d="M6.0436 0.159153C6.25568 0.318211 6.32637 0.583307 6.238 0.83073L4.84183 4.29465H7.40443C7.65185 4.29465 7.86393 4.43604 7.93462 4.66579C8.02298 4.89554 7.95229 5.14296 7.77556 5.30202L2.68572 9.54355C2.47364 9.70261 2.19087 9.72028 1.9788 9.56122C1.76672 9.40217 1.69603 9.13707 1.78439 8.88965L3.18056 5.42573H0.617969C0.388219 5.42573 0.176142 5.28434 0.087777 5.05459C-0.000588335 4.82484 0.0701039 4.57742 0.264508 4.41836L5.35435 0.176826C5.54875 0.0177684 5.83152 9.53302e-05 6.0436 0.159153Z" fill="url(#paint0_linear_3361_23249)"/>
<path d="M6.0436 0.159153C6.25568 0.318211 6.32637 0.583307 6.238 0.83073L4.84183 4.29465H7.40443C7.65185 4.29465 7.86393 4.43604 7.93462 4.66579C8.02298 4.89554 7.95229 5.14296 7.77556 5.30202L2.68572 9.54355C2.47364 9.70261 2.19087 9.72028 1.9788 9.56122C1.76672 9.40217 1.69603 9.13707 1.78439 8.88965L3.18056 5.42573H0.617969C0.388219 5.42573 0.176142 5.28434 0.087777 5.05459C-0.000588335 4.82484 0.0701039 4.57742 0.264508 4.41836L5.35435 0.176826C5.54875 0.0177684 5.83152 9.53302e-05 6.0436 0.159153Z" fill="#1C1C1C"/>
<defs>
<linearGradient id="paint0_linear_3361_23249" x1="-7.0168" y1="-0.0679362" x2="10.7977" y2="10.1118" gradientUnits="userSpaceOnUse">
<stop stop-color="#FF6502"/>
<stop offset="1" stop-color="#F581FB"/>
</linearGradient>
</defs>
</svg>
