<svg width="14" height="14" viewBox="0 0 14 14" fill="none" xmlns="http://www.w3.org/2000/svg">
<path d="M3.0625 1.53125C3.0625 0.683594 3.74609 0 4.59375 0H5.25C5.74219 0 6.125 0.382812 6.125 0.875V13.125C6.125 13.6172 5.74219 14 5.25 14H4.375C3.55469 14 2.87109 13.4531 2.67969 12.6875C2.65234 12.6875 2.65234 12.6875 2.625 12.6875C1.42188 12.6875 0.4375 11.7031 0.4375 10.5C0.4375 10.0078 0.601562 9.54297 0.875 9.1875C0.355469 8.77734 0 8.14844 0 7.4375C0 6.58984 0.492188 5.85156 1.17578 5.49609C0.984375 5.16797 0.875 4.78516 0.875 4.375C0.875 3.17188 1.85938 2.1875 3.0625 2.1875V1.53125ZM10.5 1.53125V2.1875C11.7031 2.1875 12.6875 3.17188 12.6875 4.375C12.6875 4.78516 12.5781 5.16797 12.3867 5.49609C13.0977 5.85156 13.5625 6.58984 13.5625 7.4375C13.5625 8.14844 13.207 8.77734 12.6875 9.1875C12.9609 9.54297 13.125 10.0078 13.125 10.5C13.125 11.7031 12.1406 12.6875 10.9375 12.6875C10.9102 12.6875 10.9102 12.6875 10.8828 12.6875C10.6914 13.4531 10.0078 14 9.1875 14H8.3125C7.82031 14 7.4375 13.6172 7.4375 13.125V0.875C7.4375 0.382812 7.82031 0 8.3125 0H8.96875C9.81641 0 10.5 0.683594 10.5 1.53125Z" fill="url(#paint0_linear_3361_22758)"/>
<path d="M3.0625 1.53125C3.0625 0.683594 3.74609 0 4.59375 0H5.25C5.74219 0 6.125 0.382812 6.125 0.875V13.125C6.125 13.6172 5.74219 14 5.25 14H4.375C3.55469 14 2.87109 13.4531 2.67969 12.6875C2.65234 12.6875 2.65234 12.6875 2.625 12.6875C1.42188 12.6875 0.4375 11.7031 0.4375 10.5C0.4375 10.0078 0.601562 9.54297 0.875 9.1875C0.355469 8.77734 0 8.14844 0 7.4375C0 6.58984 0.492188 5.85156 1.17578 5.49609C0.984375 5.16797 0.875 4.78516 0.875 4.375C0.875 3.17188 1.85938 2.1875 3.0625 2.1875V1.53125ZM10.5 1.53125V2.1875C11.7031 2.1875 12.6875 3.17188 12.6875 4.375C12.6875 4.78516 12.5781 5.16797 12.3867 5.49609C13.0977 5.85156 13.5625 6.58984 13.5625 7.4375C13.5625 8.14844 13.207 8.77734 12.6875 9.1875C12.9609 9.54297 13.125 10.0078 13.125 10.5C13.125 11.7031 12.1406 12.6875 10.9375 12.6875C10.9102 12.6875 10.9102 12.6875 10.8828 12.6875C10.6914 13.4531 10.0078 14 9.1875 14H8.3125C7.82031 14 7.4375 13.6172 7.4375 13.125V0.875C7.4375 0.382812 7.82031 0 8.3125 0H8.96875C9.81641 0 10.5 0.683594 10.5 1.53125Z" fill="#1C1C1C"/>
<defs>
<linearGradient id="paint0_linear_3361_22758" x1="-13.5312" y1="-1.5" x2="19.2813" y2="17.25" gradientUnits="userSpaceOnUse">
<stop stop-color="#FF6502"/>
<stop offset="1" stop-color="#F581FB"/>
</linearGradient>
</defs>
</svg>
