<svg width="32" height="32" viewBox="0 0 32 32" fill="none" xmlns="http://www.w3.org/2000/svg">
<rect width="32" height="32" rx="6.16898" fill="#9E9E9E" fill-opacity="0.1"/>
<path d="M12.2812 10.2812C12.2812 9.43359 12.9648 8.75 13.8125 8.75H14.4688C14.9609 8.75 15.3438 9.13281 15.3438 9.625V21.875C15.3438 22.3672 14.9609 22.75 14.4688 22.75H13.5938C12.7734 22.75 12.0898 22.2031 11.8984 21.4375C11.8711 21.4375 11.8711 21.4375 11.8438 21.4375C10.6406 21.4375 9.65625 20.4531 9.65625 19.25C9.65625 18.7578 9.82031 18.293 10.0938 17.9375C9.57422 17.5273 9.21875 16.8984 9.21875 16.1875C9.21875 15.3398 9.71094 14.6016 10.3945 14.2461C10.2031 13.918 10.0938 13.5352 10.0938 13.125C10.0938 11.9219 11.0781 10.9375 12.2812 10.9375V10.2812ZM19.7188 10.2812V10.9375C20.9219 10.9375 21.9062 11.9219 21.9062 13.125C21.9062 13.5352 21.7969 13.918 21.6055 14.2461C22.3164 14.6016 22.7812 15.3398 22.7812 16.1875C22.7812 16.8984 22.4258 17.5273 21.9062 17.9375C22.1797 18.293 22.3438 18.7578 22.3438 19.25C22.3438 20.4531 21.3594 21.4375 20.1562 21.4375C20.1289 21.4375 20.1289 21.4375 20.1016 21.4375C19.9102 22.2031 19.2266 22.75 18.4062 22.75H17.5312C17.0391 22.75 16.6562 22.3672 16.6562 21.875V9.625C16.6562 9.13281 17.0391 8.75 17.5312 8.75H18.1875C19.0352 8.75 19.7188 9.43359 19.7188 10.2812Z" fill="url(#paint0_linear_3361_22757)"/>
<path d="M12.2812 10.2812C12.2812 9.43359 12.9648 8.75 13.8125 8.75H14.4688C14.9609 8.75 15.3438 9.13281 15.3438 9.625V21.875C15.3438 22.3672 14.9609 22.75 14.4688 22.75H13.5938C12.7734 22.75 12.0898 22.2031 11.8984 21.4375C11.8711 21.4375 11.8711 21.4375 11.8438 21.4375C10.6406 21.4375 9.65625 20.4531 9.65625 19.25C9.65625 18.7578 9.82031 18.293 10.0938 17.9375C9.57422 17.5273 9.21875 16.8984 9.21875 16.1875C9.21875 15.3398 9.71094 14.6016 10.3945 14.2461C10.2031 13.918 10.0938 13.5352 10.0938 13.125C10.0938 11.9219 11.0781 10.9375 12.2812 10.9375V10.2812ZM19.7188 10.2812V10.9375C20.9219 10.9375 21.9062 11.9219 21.9062 13.125C21.9062 13.5352 21.7969 13.918 21.6055 14.2461C22.3164 14.6016 22.7812 15.3398 22.7812 16.1875C22.7812 16.8984 22.4258 17.5273 21.9062 17.9375C22.1797 18.293 22.3438 18.7578 22.3438 19.25C22.3438 20.4531 21.3594 21.4375 20.1562 21.4375C20.1289 21.4375 20.1289 21.4375 20.1016 21.4375C19.9102 22.2031 19.2266 22.75 18.4062 22.75H17.5312C17.0391 22.75 16.6562 22.3672 16.6562 21.875V9.625C16.6562 9.13281 17.0391 8.75 17.5312 8.75H18.1875C19.0352 8.75 19.7188 9.43359 19.7188 10.2812Z" fill="#1C1C1C"/>
<defs>
<linearGradient id="paint0_linear_3361_22757" x1="-4.3125" y1="7.25" x2="28.5" y2="26" gradientUnits="userSpaceOnUse">
<stop stop-color="#FF6502"/>
<stop offset="1" stop-color="#F581FB"/>
</linearGradient>
</defs>
</svg>
