<svg width="9" height="10" viewBox="0 0 9 10" fill="none" xmlns="http://www.w3.org/2000/svg">
<path d="M1.97875 0.989638C1.97875 0.441773 2.42058 -5.38826e-05 2.96845 -5.38826e-05H3.3926C3.71072 -5.38826e-05 3.95814 0.247369 3.95814 0.565484V8.48302C3.95814 8.80113 3.71072 9.04856 3.3926 9.04856H2.82706C2.29687 9.04856 1.85504 8.6951 1.73133 8.20025C1.71366 8.20025 1.71366 8.20025 1.69599 8.20025C0.918371 8.20025 0.28214 7.56402 0.28214 6.7864C0.28214 6.46829 0.388178 6.16785 0.564909 5.9381C0.229121 5.673 -0.000629008 5.26652 -0.000629008 4.80702C-0.000629008 4.25916 0.317486 3.78198 0.759313 3.55223C0.635601 3.34016 0.564909 3.09273 0.564909 2.82764C0.564909 2.05002 1.20114 1.41379 1.97875 1.41379V0.989638ZM6.78583 0.989638V1.41379C7.56344 1.41379 8.19967 2.05002 8.19967 2.82764C8.19967 3.09273 8.12898 3.34016 8.00527 3.55223C8.46477 3.78198 8.76521 4.25916 8.76521 4.80702C8.76521 5.26652 8.53546 5.673 8.19967 5.9381C8.37641 6.16785 8.48244 6.46829 8.48244 6.7864C8.48244 7.56402 7.84621 8.20025 7.0686 8.20025C7.05093 8.20025 7.05093 8.20025 7.03325 8.20025C6.90954 8.6951 6.46771 9.04856 5.93752 9.04856H5.37198C5.05387 9.04856 4.80645 8.80113 4.80645 8.48302V0.565484C4.80645 0.247369 5.05387 -5.38826e-05 5.37198 -5.38826e-05H5.79614C6.344 -5.38826e-05 6.78583 0.441773 6.78583 0.989638Z" fill="white"/>
</svg>
