<svg width="10" height="10" viewBox="0 0 10 10" fill="none" xmlns="http://www.w3.org/2000/svg">
<path d="M4.52487 9.04856C2.03297 9.04856 0.000564575 7.01615 0.000564575 4.52425C0.000564575 2.03235 2.03297 -5.38826e-05 4.52487 -5.38826e-05C7.01677 -5.38826e-05 9.04918 2.03235 9.04918 4.52425C9.04918 7.01615 7.01677 9.04856 4.52487 9.04856ZM5.4262 5.74369C5.56758 5.69067 5.69129 5.56696 5.74431 5.42558L6.734 2.86298C6.85771 2.52719 6.52193 2.19141 6.18614 2.31512L3.62354 3.30481C3.48216 3.35783 3.35845 3.48154 3.30543 3.62293L2.31574 6.18552C2.19202 6.52131 2.52781 6.8571 2.8636 6.73338L5.4262 5.74369ZM5.09041 4.52425C5.09041 4.84237 4.84299 5.08979 4.52487 5.08979C4.20675 5.08979 3.95933 4.84237 3.95933 4.52425C3.95933 4.20614 4.20675 3.95871 4.52487 3.95871C4.84299 3.95871 5.09041 4.20614 5.09041 4.52425Z" fill="white"/>
</svg>
