<svg width="9" height="9" viewBox="0 0 9 9" fill="none" xmlns="http://www.w3.org/2000/svg">
<path d="M6.09648 -5.38826e-05C6.82108 -5.38826e-05 7.51033 0.282715 8.02285 0.795234L8.12889 0.901273C8.64141 1.41379 8.92418 2.10304 8.92418 2.82764C8.92418 3.25179 8.81814 3.67594 8.64141 4.04708C8.60606 4.1001 8.55304 4.15312 8.48235 4.17079L6.50296 4.77167C6.43227 4.78935 6.37925 4.86004 6.37925 4.93073C6.37925 5.0191 6.44995 5.08979 6.53831 5.08979H7.10385C7.36895 5.08979 7.49266 5.39023 7.31593 5.56696L6.90945 5.97344C6.8741 6.00879 6.83875 6.02646 6.80341 6.04414L5.37189 6.46829C5.3012 6.48596 5.24818 6.55665 5.24818 6.62735C5.24818 6.71571 5.31887 6.7864 5.40723 6.7864C5.65466 6.7864 5.74302 7.06917 5.54862 7.19288C4.82402 7.67006 3.97572 7.91748 3.09206 7.91748H1.57218L0.723872 8.76579C0.564814 8.92485 0.317391 8.92485 0.158334 8.76579C-0.000723951 8.60673 -0.000723951 8.35931 0.158334 8.20025L4.39987 3.95871C4.55893 3.79966 4.55893 3.55223 4.39987 3.39318C4.24081 3.23412 3.99339 3.23412 3.83433 3.39318L1.28941 5.95577C1.18337 6.04414 1.00664 5.97344 1.00664 5.83206C1.00664 4.63029 1.48381 3.48154 2.33212 2.63323L4.17012 0.795234C4.68264 0.282715 5.37189 -5.38826e-05 6.09648 -5.38826e-05Z" fill="white"/>
</svg>
