<svg width="11" height="10" viewBox="0 0 11 10" fill="none" xmlns="http://www.w3.org/2000/svg">
<path d="M4.94794 0.548299L5.08932 0.760376L5.23071 0.548299C5.47813 0.212511 5.88461 0.000434399 6.30876 0.000434399C7.03336 0.000434399 7.63424 0.601319 7.63424 1.32591V1.36126C7.63424 2.51001 6.18505 3.72945 5.47813 4.25964C5.24838 4.4187 4.93027 4.4187 4.70052 4.25964C3.99359 3.72945 2.5444 2.51001 2.5444 1.36126V1.32591C2.5444 0.601319 3.14529 0.000434399 3.86988 0.000434399C4.29403 0.000434399 4.70052 0.212511 4.94794 0.548299ZM1.92584 6.04462C2.35 5.62047 2.93321 5.37305 3.53409 5.37305H6.2204C6.53851 5.37305 6.78594 5.62047 6.78594 5.93859C6.78594 6.2567 6.53851 6.50412 6.2204 6.50412H4.94794C4.71819 6.50412 4.52378 6.69853 4.52378 6.92828C4.52378 7.15803 4.71819 7.35243 4.94794 7.35243H6.94499L9.04809 5.7972C9.36621 5.56745 9.80803 5.63814 10.0378 5.93859C10.2675 6.2567 10.2145 6.69853 9.8964 6.92828L7.65192 8.58955C7.24544 8.88999 6.75059 9.04905 6.23807 9.04905H0.565017C0.246902 9.04905 -0.000520706 8.80162 -0.000520706 8.48351V7.35243C-0.000520706 7.03432 0.246902 6.78689 0.565017 6.78689H1.18357L1.92584 6.04462Z" fill="url(#paint0_linear_3361_23600)"/>
<path d="M4.94794 0.548299L5.08932 0.760376L5.23071 0.548299C5.47813 0.212511 5.88461 0.000434399 6.30876 0.000434399C7.03336 0.000434399 7.63424 0.601319 7.63424 1.32591V1.36126C7.63424 2.51001 6.18505 3.72945 5.47813 4.25964C5.24838 4.4187 4.93027 4.4187 4.70052 4.25964C3.99359 3.72945 2.5444 2.51001 2.5444 1.36126V1.32591C2.5444 0.601319 3.14529 0.000434399 3.86988 0.000434399C4.29403 0.000434399 4.70052 0.212511 4.94794 0.548299ZM1.92584 6.04462C2.35 5.62047 2.93321 5.37305 3.53409 5.37305H6.2204C6.53851 5.37305 6.78594 5.62047 6.78594 5.93859C6.78594 6.2567 6.53851 6.50412 6.2204 6.50412H4.94794C4.71819 6.50412 4.52378 6.69853 4.52378 6.92828C4.52378 7.15803 4.71819 7.35243 4.94794 7.35243H6.94499L9.04809 5.7972C9.36621 5.56745 9.80803 5.63814 10.0378 5.93859C10.2675 6.2567 10.2145 6.69853 9.8964 6.92828L7.65192 8.58955C7.24544 8.88999 6.75059 9.04905 6.23807 9.04905H0.565017C0.246902 9.04905 -0.000520706 8.80162 -0.000520706 8.48351V7.35243C-0.000520706 7.03432 0.246902 6.78689 0.565017 6.78689H1.18357L1.92584 6.04462Z" fill="white"/>
<defs>
<linearGradient id="paint0_linear_3361_23600" x1="-5.93867" y1="-0.403385" x2="11.8758" y2="9.7763" gradientUnits="userSpaceOnUse">
<stop stop-color="#FF6502"/>
<stop offset="1" stop-color="#F581FB"/>
</linearGradient>
</defs>
</svg>
