<svg width="48" height="48" viewBox="0 0 48 48" fill="none" xmlns="http://www.w3.org/2000/svg">
<path d="M0 16C0 7.16344 7.16344 0 16 0H32C40.8366 0 48 7.16344 48 16V32C48 40.8366 40.8366 48 32 48H16C7.16344 48 0 40.8366 0 32V16Z" fill="white"/>
<path d="M16 0.5H32C40.5604 0.5 47.5 7.43959 47.5 16V32C47.5 40.5604 40.5604 47.5 32 47.5H16C7.43959 47.5 0.5 40.5604 0.5 32V16C0.5 7.43959 7.43959 0.5 16 0.5Z" stroke="url(#paint0_linear_3361_22238)" stroke-opacity="0.1"/>
<path fill-rule="evenodd" clip-rule="evenodd" d="M20.8432 6.98796C23.9341 6.34463 26.146 7.60396 27.5627 9.29316C27.9471 9.75147 28.2751 10.2422 28.5525 10.7373C29.4591 10.1862 30.5299 9.76726 31.7145 9.72646C32.9799 9.6829 34.2776 10.0747 35.5309 11.0247C38.0469 12.9319 38.5512 15.4265 38.2089 17.6044C38.1625 17.8996 38.1002 18.1895 38.0263 18.4724C38.8973 18.8015 39.7522 19.3 40.4505 20.0474C41.3149 20.9726 41.8724 22.2082 41.9799 23.7773C42.1957 26.9271 40.6464 28.9465 38.7797 30.1197C38.0664 30.568 37.3046 30.8964 36.5698 31.1321C36.9778 32.0917 37.2337 33.1891 37.1149 34.345C36.9854 35.6045 36.4204 36.8367 35.3083 37.9487C33.0759 40.1811 30.5356 40.3405 28.4248 39.7043C27.0828 39.2999 25.9024 38.5769 25.0192 37.8774C24.7637 38.2591 24.4787 38.6336 24.1626 38.9847C23.4231 39.8062 22.4708 40.5497 21.2859 40.9267C20.0793 41.3106 18.724 41.284 17.2605 40.708C14.3545 39.5642 13.1889 37.3348 12.9134 35.1675C12.7056 35.1784 12.4962 35.1829 12.2863 35.1796C11.1811 35.162 9.99458 34.9327 8.9317 34.2872C7.84951 33.6299 6.9789 32.591 6.45145 31.1095C5.39258 28.1352 6.33856 25.7722 7.81875 24.1383C8.35751 23.5437 8.96773 23.0413 9.58073 22.6273C9.53835 22.5792 9.49622 22.5308 9.45481 22.4817C8.74181 21.637 8.13507 20.5922 7.92319 19.3668C7.70746 18.1192 7.9186 16.7803 8.68877 15.4091C10.235 12.6564 12.6377 11.8166 14.842 11.8587C15.255 11.8665 15.662 11.9051 16.0573 11.9663C16.2444 10.9499 16.6313 9.90428 17.3567 9.01184C18.1555 8.02935 19.3035 7.30844 20.8432 6.98796ZM25.7699 10.7971C24.798 9.63834 23.413 8.84311 21.3199 9.27876C20.2677 9.49779 19.6075 9.95287 19.1727 10.4877C18.7236 11.0401 18.4535 11.7553 18.3282 12.5689C18.3276 12.573 18.327 12.5772 18.3264 12.5813C18.9856 12.8364 19.5455 13.1222 19.9563 13.3745L18.7314 15.3689C18.6206 15.3009 18.4941 15.2297 18.3543 15.1568C18.4566 15.8529 18.6138 16.4456 18.748 16.8166L16.5473 17.6129C16.2944 16.9138 15.9931 15.6936 15.9213 14.3167C15.5554 14.2489 15.1775 14.2056 14.7974 14.1984C13.2853 14.1695 11.7759 14.691 10.7289 16.555C10.2025 17.4921 10.1116 18.2888 10.2291 18.968C10.3504 19.6695 10.7119 20.343 11.2428 20.972C11.3955 21.1529 11.5589 21.3257 11.7287 21.4903C11.9421 21.4059 12.1415 21.3356 12.322 21.2792L12.6248 22.2479C13.4259 22.8432 14.2331 23.258 14.7206 23.447L13.8746 25.629C13.2705 25.3948 12.3438 24.9279 11.3973 24.2487C10.7623 24.6186 10.0991 25.1066 9.55308 25.7093C8.53766 26.8301 7.93882 28.3106 8.65586 30.3247C9.01635 31.3372 9.55721 31.9293 10.1463 32.2871C10.7548 32.6566 11.5002 32.8266 12.3233 32.8397C12.5214 32.8428 12.72 32.8364 12.9177 32.8228C13.064 31.5953 13.4025 30.5201 13.7085 29.8235L15.8512 30.7648C15.685 31.1431 15.5043 31.6821 15.3729 32.3049C15.8311 32.1476 16.2132 31.9818 16.4742 31.8447L17.5629 33.9161C17.0459 34.1878 16.2144 34.5329 15.225 34.7941C15.226 34.8033 15.2269 34.8125 15.228 34.8217C15.4056 36.3236 16.1282 37.7478 18.1175 38.5308C19.1177 38.9245 19.9194 38.9059 20.5763 38.6969C21.2547 38.4811 21.8725 38.0308 22.4233 37.419C22.8702 36.9225 23.2435 36.3517 23.5435 35.793C22.6668 34.2024 22.0689 32.3066 21.8492 30.0671C17.0873 29.0593 16.0713 24.2424 16.1983 21.7415C18.0919 21.4894 19.7795 22.9946 20.3866 23.7789C21.8651 18.9087 24.1119 18.105 25.0505 18.3119C26.648 21.5784 25.5161 24.6909 24.18 26.6561C27.3386 23.3899 30.5101 23.4823 31.8303 24.0261C30.3401 29.0731 26.4727 30.2927 24.1533 30.2961C24.3245 31.632 24.6508 32.7925 25.0873 33.7993L26.6776 34.1768C26.5803 34.5867 26.4042 35.1452 26.1435 35.769C26.8507 36.3874 27.9131 37.1061 29.0998 37.4638C30.5478 37.9002 32.1421 37.8058 33.6538 36.2942C34.4138 35.5342 34.7166 34.7916 34.7871 34.106C34.8598 33.3978 34.6936 32.6516 34.3524 31.9025C34.3091 31.8075 34.2634 31.7134 34.2157 31.6205C34.0196 31.639 33.8372 31.6505 33.6716 31.6554L33.6426 30.6753C32.9659 29.7074 32.1553 28.9417 31.6729 28.5798L33.077 26.7077C33.6587 27.144 34.5529 27.9717 35.3543 29.0486C36.0684 28.8642 36.8428 28.5732 37.5345 28.1386C38.815 27.3338 39.7915 26.0702 39.6454 23.9372C39.572 22.8649 39.2112 22.1488 38.7407 21.6451C38.336 21.2119 37.8026 20.8867 37.18 20.6541C36.7911 21.4079 36.3645 22.0321 36.0097 22.4641L34.2011 20.9789C34.367 20.7769 34.5551 20.5141 34.7462 20.2058C33.8271 20.1691 33.0069 20.2591 32.5287 20.3612L32.0403 18.0724C32.8298 17.9039 34.2358 17.7626 35.7474 17.9376C35.809 17.7096 35.8602 17.4768 35.8973 17.2413C36.1321 15.7472 35.8213 14.1808 34.1175 12.8893C33.2609 12.2401 32.484 12.0413 31.7951 12.065C31.0837 12.0895 30.3672 12.3561 29.6716 12.7963C29.6083 12.8364 29.5457 12.8777 29.4838 12.92C29.6254 13.379 29.7226 13.7975 29.7809 14.1444L27.7677 14.482C27.2954 15.0292 26.9411 15.5515 26.7455 15.9039L24.6992 14.7683C25.0495 14.1372 25.7401 13.1483 26.687 12.2136C26.4417 11.7253 26.1381 11.2362 25.7699 10.7971Z" fill="#1C1C1C"/>
<defs>
<linearGradient id="paint0_linear_3361_22238" x1="48" y1="24" x2="0" y2="24" gradientUnits="userSpaceOnUse">
<stop stop-color="#101010" stop-opacity="0"/>
<stop offset="1" stop-color="#101010"/>
</linearGradient>
</defs>
</svg>
