<svg width="10" height="10" viewBox="0 0 10 10" fill="none" xmlns="http://www.w3.org/2000/svg">
<path d="M4.11839 0.123468C4.36581 -0.000243768 4.68393 -0.000243768 4.94902 0.123468L8.80175 1.90845C8.96081 1.97914 9.04918 2.1382 9.04918 2.29726C9.04918 2.45631 8.96081 2.61537 8.80175 2.68606L4.94902 4.47104C4.68393 4.59475 4.36581 4.59475 4.11839 4.47104L0.247988 2.68606C0.0889299 2.61537 0.000564575 2.45631 0.000564575 2.29726C0.000564575 2.1382 0.0889299 1.97914 0.247988 1.90845L4.11839 0.123468ZM0.848872 3.88783L3.74725 5.23098C4.2421 5.46073 4.80764 5.46073 5.30248 5.23098L8.20087 3.88783L8.80175 4.1706C8.96081 4.24129 9.04918 4.40035 9.04918 4.55941C9.04918 4.71847 8.96081 4.87752 8.80175 4.94822L4.94902 6.7332C4.68393 6.85691 4.36581 6.85691 4.11839 6.7332L0.247988 4.94822C0.0889299 4.87752 0.000564575 4.71847 0.000564575 4.55941C0.000564575 4.40035 0.0889299 4.24129 0.247988 4.1706L0.848872 3.88783ZM0.247988 6.43275L0.848872 6.14998L3.74725 7.49314C4.2421 7.72289 4.80764 7.72289 5.30248 7.49314L8.20087 6.14998L8.80175 6.43275C8.96081 6.50345 9.04918 6.6625 9.04918 6.82156C9.04918 6.98062 8.96081 7.13968 8.80175 7.21037L4.93135 8.99535C4.68393 9.11906 4.36581 9.11906 4.10072 8.99535L0.247988 7.21037C0.0889299 7.13968 0.000564575 6.98062 0.000564575 6.82156C0.000564575 6.6625 0.0889299 6.50345 0.247988 6.43275Z" fill="white"/>
</svg>
