<svg width="10" height="10" viewBox="0 0 10 10" fill="none" xmlns="http://www.w3.org/2000/svg">
<path d="M6.48658 7.29892L5.46154 6.27389C5.19645 6.41527 4.86066 6.50364 4.52487 6.50364C4.18908 6.50364 3.87097 6.41527 3.5882 6.27389L2.56316 7.29892C3.11102 7.68773 3.80027 7.91748 4.52487 7.91748C5.26714 7.91748 5.93872 7.68773 6.48658 7.29892ZM8.09483 7.29892C8.25389 7.52867 8.23621 7.82912 8.04181 8.04119C7.82973 8.2356 7.52929 8.25327 7.29954 8.09421C6.5396 8.6951 5.56758 9.04856 4.52487 9.04856C3.48216 9.04856 2.51014 8.6951 1.7502 8.09421C1.52045 8.25327 1.22001 8.2356 1.00793 8.04119C0.813526 7.82912 0.795853 7.52867 0.95491 7.29892C0.354026 6.53898 0.000564575 5.56696 0.000564575 4.52425C0.000564575 3.48154 0.354026 2.50952 0.95491 1.74958C0.795853 1.51983 0.813526 1.21939 1.00793 1.00731C1.22001 0.812907 1.52045 0.795234 1.7502 0.954292C2.51014 0.353407 3.48216 -5.38826e-05 4.52487 -5.38826e-05C5.56758 -5.38826e-05 6.5396 0.353407 7.29954 0.954292C7.52929 0.795234 7.82973 0.812907 8.04181 1.00731C8.23621 1.21939 8.25389 1.51983 8.09483 1.74958C8.69571 2.50952 9.04918 3.48154 9.04918 4.52425C9.04918 5.56696 8.69571 6.53898 8.09483 7.29892ZM7.28187 6.48596H7.29954C7.68835 5.9381 7.9181 5.26652 7.9181 4.52425C7.9181 3.79966 7.68835 3.11041 7.28187 2.56254L6.25683 3.58758C6.41589 3.87035 6.50425 4.18846 6.50425 4.52425C6.50425 4.86004 6.41589 5.17815 6.25683 5.46092L7.28187 6.48596ZM6.48658 1.76725C5.93872 1.36077 5.26714 1.13102 4.52487 1.13102C3.80027 1.13102 3.11102 1.36077 2.56316 1.76725L3.5882 2.79229C3.87097 2.63323 4.18908 2.54487 4.52487 2.54487C4.86066 2.54487 5.17877 2.63323 5.46154 2.79229L6.48658 1.76725ZM2.79291 5.46092C2.63385 5.19583 2.54549 4.86004 2.54549 4.52425C2.54549 4.18846 2.63385 3.87035 2.79291 3.58758L1.76787 2.56254C1.36139 3.11041 1.13164 3.79966 1.13164 4.52425C1.13164 5.26652 1.36139 5.9381 1.76787 6.48596L2.79291 5.46092ZM3.67656 4.52425C3.67656 5.00142 4.0477 5.37256 4.52487 5.37256C5.00204 5.37256 5.37318 5.00142 5.37318 4.52425C5.37318 4.04708 5.00204 3.67594 4.52487 3.67594C4.0477 3.67594 3.67656 4.04708 3.67656 4.52425Z" fill="white"/>
</svg>
