<svg width="14" height="14" viewBox="0 0 14 14" fill="none" xmlns="http://www.w3.org/2000/svg">
<path d="M13.0703 1.25781V1.23047L8.69531 12.6055C8.55859 12.9609 8.23047 13.1797 7.84766 13.1797C7.49219 13.1797 7.16406 12.9336 7.05469 12.5781L5.44141 7.73828L0.601562 6.125C0.246094 6.01562 0 5.6875 0 5.33203C0 4.94922 0.21875 4.62109 0.574219 4.48438L11.9492 0.109375C12.25 0 12.6328 0.0820312 12.8789 0.300781C13.125 0.546875 13.1797 0.929688 13.0703 1.25781Z" fill="url(#paint0_linear_3361_22859)"/>
<path d="M13.0703 1.25781V1.23047L8.69531 12.6055C8.55859 12.9609 8.23047 13.1797 7.84766 13.1797C7.49219 13.1797 7.16406 12.9336 7.05469 12.5781L5.44141 7.73828L0.601562 6.125C0.246094 6.01562 0 5.6875 0 5.33203C0 4.94922 0.21875 4.62109 0.574219 4.48438L11.9492 0.109375C12.25 0 12.6328 0.0820312 12.8789 0.300781C13.125 0.546875 13.1797 0.929688 13.0703 1.25781Z" fill="#1C1C1C"/>
<defs>
<linearGradient id="paint0_linear_3361_22859" x1="-13.3125" y1="-2.32031" x2="19.5" y2="16.4297" gradientUnits="userSpaceOnUse">
<stop stop-color="#FF6502"/>
<stop offset="1" stop-color="#F581FB"/>
</linearGradient>
</defs>
</svg>
