<svg width="650" height="484" viewBox="0 0 650 484" fill="none" xmlns="http://www.w3.org/2000/svg">
<path opacity="0.4" d="M10.3555 86.6572H701.431" stroke="url(#paint0_linear_3361_23094)" stroke-width="2" stroke-dasharray="10 10"/>
<path d="M10.9004 87.2021H28.6133C46.5229 87.2021 61.0415 72.6835 61.0415 54.7739V50.6863C61.0415 35.0342 73.73 22.3457 89.3821 22.3457" stroke="white" stroke-width="2"/>
<path d="M10.9004 87.2021H28.6133C46.5229 87.2021 61.0415 72.6835 61.0415 54.7739V50.6863C61.0415 35.0342 73.73 22.3457 89.3821 22.3457" stroke="url(#paint1_linear_3361_23094)" stroke-width="2"/>
<circle cx="5.45012" cy="86.1122" r="4.45012" stroke="white" stroke-width="2"/>
<path opacity="0.4" d="M63.7656 213.1H754.841" stroke="url(#paint2_linear_3361_23094)" stroke-width="2" stroke-dasharray="10 10"/>
<path d="M116.633 150.423H420.749" stroke="url(#paint3_linear_3361_23094)" stroke-width="2" stroke-dasharray="10 10"/>
<path d="M111.183 144.883C113.64 144.883 115.633 146.876 115.633 149.333C115.633 151.791 113.64 153.784 111.183 153.784C108.725 153.784 106.732 151.791 106.732 149.333C106.732 146.876 108.725 144.883 111.183 144.883Z" stroke="white" stroke-width="2"/>
<path d="M591.883 462.17H895.999" stroke="url(#paint4_linear_3361_23094)" stroke-width="2" stroke-dasharray="10 10"/>
<path d="M586.433 456.63C588.89 456.63 590.883 458.622 590.883 461.08C590.883 463.538 588.89 465.53 586.433 465.53C583.975 465.53 581.982 463.538 581.982 461.08C581.982 458.622 583.975 456.63 586.433 456.63Z" stroke="white" stroke-width="2"/>
<path d="M132.982 403.309H310.657" stroke="url(#paint5_linear_3361_23094)" stroke-width="2" stroke-dasharray="10 10"/>
<path d="M127.532 397.769C129.99 397.769 131.982 399.762 131.982 402.219C131.982 404.677 129.99 406.669 127.532 406.669C125.075 406.669 123.082 404.677 123.082 402.219C123.082 399.762 125.074 397.769 127.532 397.769Z" stroke="white" stroke-width="2"/>
<path d="M640.934 403.309H463.26" stroke="url(#paint6_linear_3361_23094)" stroke-width="2" stroke-dasharray="10 10"/>
<path d="M537.102 403.309H579.348C596.806 403.309 610.958 389.156 610.958 371.698C610.958 354.24 625.111 340.087 642.569 340.087H661.645" stroke="white" stroke-width="2"/>
<path d="M537.102 403.309H579.348C596.806 403.309 610.958 389.156 610.958 371.698C610.958 354.24 625.111 340.087 642.569 340.087H661.645" stroke="url(#paint7_linear_3361_23094)" stroke-width="2"/>
<path opacity="0.4" d="M116.633 340.087H671.455" stroke="url(#paint8_linear_3361_23094)" stroke-width="2" stroke-dasharray="10 10"/>
<circle cx="494.872" cy="338.997" r="4.45012" stroke="white" stroke-width="2"/>
<path d="M10.9004 276.866H377.149" stroke="url(#paint9_linear_3361_23094)" stroke-width="2" stroke-dasharray="10 10"/>
<path d="M107.818 276.866L226.726 276.866C244.196 276.866 258.369 291.007 258.41 308.477C258.45 325.947 272.623 340.088 290.093 340.088H362.035" stroke="white" stroke-width="2"/>
<path d="M107.818 276.866L226.726 276.866C244.196 276.866 258.369 291.007 258.41 308.477C258.45 325.947 272.623 340.088 290.093 340.088H362.035" stroke="url(#paint10_linear_3361_23094)" stroke-width="2"/>
<circle cx="5.45012" cy="276.866" r="4.45012" stroke="white" stroke-width="2"/>
<circle cx="377.149" cy="276.866" r="4.45012" stroke="white" stroke-width="2"/>
<path d="M409.85 21.8003H105.734" stroke="url(#paint11_linear_3361_23094)" stroke-width="2" stroke-dasharray="10 10"/>
<path d="M415.3 16.2603C412.842 16.2603 410.85 18.2527 410.85 20.7104C410.85 23.1681 412.842 25.1606 415.3 25.1606C417.758 25.1606 419.75 23.1682 419.75 20.7104C419.75 18.2527 417.758 16.2603 415.3 16.2603Z" stroke="white" stroke-width="2"/>
<path d="M817.518 150.423H513.401" stroke="url(#paint12_linear_3361_23094)" stroke-width="2" stroke-dasharray="10 10"/>
<path d="M627.309 150.423H584.525C566.917 150.423 552.642 136.149 552.642 118.54C552.642 100.931 538.367 86.6567 520.759 86.6567H458.9" stroke="white" stroke-width="2"/>
<path d="M627.309 150.423H584.525C566.917 150.423 552.642 136.149 552.642 118.54C552.642 100.931 538.367 86.6567 520.759 86.6567H458.9" stroke="url(#paint13_linear_3361_23094)" stroke-width="2"/>
<path d="M767.377 276.866H463.26" stroke="url(#paint14_linear_3361_23094)" stroke-width="2" stroke-dasharray="10 10"/>
<rect x="195.115" y="380.418" width="43.601" height="43.601" rx="6.16898" fill="#9E9E9E" fill-opacity="0.1"/>
<path d="M216.916 394.219C217.385 394.219 217.791 394.469 218.01 394.875L224.76 407.375C224.979 407.75 224.979 408.219 224.729 408.625C224.51 409 224.104 409.219 223.666 409.219H210.166C209.729 409.219 209.322 409 209.104 408.625C208.854 408.219 208.854 407.75 209.072 407.375L215.822 394.875C216.041 394.469 216.447 394.219 216.916 394.219ZM216.916 399.469C216.51 399.469 216.166 399.812 216.166 400.219V403.719C216.166 404.125 216.51 404.469 216.916 404.469C217.322 404.469 217.666 404.125 217.666 403.719V400.219C217.666 399.812 217.322 399.469 216.916 399.469ZM217.76 406.219C217.76 405.906 217.604 405.625 217.354 405.469C217.072 405.281 216.76 405.281 216.479 405.469C216.229 405.625 216.072 405.906 216.072 406.219C216.072 406.531 216.229 406.812 216.479 406.969C216.76 407.156 217.072 407.156 217.354 406.969C217.604 406.812 217.76 406.531 217.76 406.219Z" fill="white"/>
<rect x="303.027" y="63.2212" width="43.601" height="43.601" rx="6.16898" fill="#9E9E9E" fill-opacity="0.1"/>
<path d="M318.828 80.0215C318.828 79.459 319.266 79.0215 319.828 79.0215H324.828C325.391 79.0215 325.828 79.459 325.828 80.0215V89.0215H328.828V85.0215C328.828 84.459 329.266 84.0215 329.828 84.0215H331.828C332.391 84.0215 332.828 84.459 332.828 85.0215C332.828 85.584 332.391 86.0215 331.828 86.0215H330.828V90.0215C330.828 90.584 330.391 91.0215 329.828 91.0215H324.828C324.266 91.0215 323.828 90.584 323.828 90.0215V81.0215H320.828V85.0215C320.828 85.584 320.391 86.0215 319.828 86.0215H317.828C317.266 86.0215 316.828 85.584 316.828 85.0215C316.828 84.459 317.266 84.0215 317.828 84.0215H318.828V80.0215Z" fill="white"/>
<rect x="360.799" y="317.197" width="43.601" height="43.601" rx="6.16898" fill="#9E9E9E" fill-opacity="0.1"/>
<path d="M386.193 330.685C386.568 330.966 386.693 331.435 386.537 331.873L384.068 337.998H388.6C389.037 337.998 389.412 338.248 389.537 338.654C389.693 339.06 389.568 339.498 389.256 339.779L380.256 347.279C379.881 347.56 379.381 347.591 379.006 347.31C378.631 347.029 378.506 346.56 378.662 346.123L381.131 339.998H376.6C376.193 339.998 375.818 339.748 375.662 339.341C375.506 338.935 375.631 338.498 375.975 338.216L384.975 330.716C385.318 330.435 385.818 330.404 386.193 330.685Z" fill="white"/>
<rect x="548.283" y="440.37" width="43.601" height="43.601" rx="6.16898" fill="#9E9E9E" fill-opacity="0.1"/>
<path d="M568.115 453.357C568.396 453.107 568.834 453.107 569.084 453.357C569.49 453.732 569.834 454.139 570.146 454.545C570.584 455.045 571.084 455.732 571.584 456.545C571.74 456.326 571.896 456.139 572.021 455.982C572.053 455.951 572.084 455.92 572.115 455.857C572.365 455.545 572.678 455.17 573.084 455.17C573.49 455.17 573.803 455.545 574.053 455.857C574.084 455.92 574.115 455.951 574.178 456.014C574.49 456.389 574.928 456.951 575.334 457.639C576.209 459.014 577.084 460.982 577.084 463.17C577.084 467.045 573.959 470.17 570.084 470.17C566.209 470.17 563.084 467.045 563.084 463.17C563.084 460.326 564.365 457.857 565.615 456.139C566.209 455.264 566.834 454.576 567.303 454.107C567.553 453.826 567.834 453.576 568.115 453.357ZM570.146 467.17C570.928 467.17 571.615 466.951 572.303 466.514C573.615 465.607 573.959 463.764 573.178 462.326C573.021 462.045 572.678 462.014 572.459 462.264L571.678 463.17C571.459 463.42 571.084 463.389 570.896 463.139C570.365 462.451 569.365 461.201 568.865 460.545C568.709 460.357 568.396 460.295 568.178 460.514C567.615 461.045 566.584 462.264 566.584 463.764C566.584 465.889 568.178 467.17 570.146 467.17Z" fill="white"/>
<rect x="548.283" y="191.844" width="43.601" height="43.601" rx="6.16898" fill="#9E9E9E" fill-opacity="0.1"/>
<path d="M574.709 206.707C575.084 206.551 575.521 206.645 575.803 206.926L577.803 208.926C577.99 209.113 578.084 209.363 578.084 209.645C578.084 209.895 577.99 210.176 577.803 210.363L575.803 212.363C575.521 212.645 575.084 212.707 574.709 212.551C574.334 212.395 574.084 212.051 574.084 211.645V210.645H573.084C572.771 210.645 572.459 210.801 572.271 211.051L571.271 212.395L570.021 210.738L570.678 209.832C571.24 209.082 572.146 208.645 573.084 208.645H574.084V207.645C574.084 207.238 574.334 206.863 574.709 206.707ZM566.896 214.895L568.146 216.551L567.49 217.457C566.928 218.207 566.021 218.645 565.084 218.645H563.084C562.521 218.645 562.084 218.207 562.084 217.645C562.084 217.082 562.521 216.645 563.084 216.645H565.084C565.396 216.645 565.709 216.488 565.896 216.238L566.896 214.895ZM575.803 220.363C575.49 220.645 575.084 220.738 574.709 220.582C574.334 220.426 574.084 220.051 574.084 219.645V218.645H573.084C572.146 218.645 571.24 218.207 570.678 217.457L565.896 211.051C565.709 210.801 565.396 210.645 565.084 210.645H563.084C562.521 210.645 562.084 210.207 562.084 209.645C562.084 209.082 562.521 208.645 563.084 208.645H565.084C566.021 208.645 566.928 209.082 567.49 209.832L572.271 216.238C572.459 216.488 572.771 216.645 573.084 216.645H574.084V215.645C574.084 215.238 574.334 214.863 574.709 214.707C575.084 214.551 575.521 214.645 575.803 214.926L577.803 216.926C577.99 217.113 578.084 217.363 578.084 217.645C578.084 217.895 577.99 218.176 577.803 218.363L575.803 220.363Z" fill="white"/>
<rect x="89.3828" width="43.601" height="43.601" rx="6.16898" fill="#9E9E9E" fill-opacity="0.1"/>
<path d="M113.496 27.8003C113.34 27.8003 113.184 27.9253 113.184 28.0815V28.3003C113.184 29.144 112.527 29.8003 111.684 29.8003H106.684C105.871 29.8003 105.184 29.144 105.184 28.3003V26.3003C105.184 25.9253 105.027 25.5503 104.777 25.2378C103.777 24.0503 103.184 22.4878 103.184 20.8003C103.184 16.9253 106.309 13.8003 110.184 13.8003C113.715 13.8003 116.621 16.394 117.121 19.8003C117.121 19.894 117.152 19.9878 117.215 20.0503L118.34 21.394C118.559 21.644 118.684 21.9878 118.684 22.3315C118.684 23.144 118.027 23.8003 117.215 23.8003H117.184C116.902 23.8003 116.684 24.019 116.684 24.3003V25.8003C116.684 26.894 115.777 27.8003 114.684 27.8003H113.496ZM110.184 15.8003C109.777 15.8003 109.434 16.144 109.434 16.5503C109.434 17.269 108.559 17.6128 108.059 17.1128C107.777 16.8315 107.309 16.8315 106.996 17.1128C106.715 17.4253 106.715 17.894 106.996 18.1753C107.496 18.6753 107.152 19.5503 106.434 19.5503C106.027 19.5503 105.684 19.894 105.684 20.3003C105.684 20.7065 106.027 21.0503 106.434 21.0503C107.152 21.0503 107.496 21.9253 106.996 22.4253C106.715 22.7065 106.715 23.2065 106.996 23.4878C107.309 23.769 107.777 23.769 108.059 23.4878C108.559 22.9878 109.434 23.3315 109.434 24.0503C109.434 24.4565 109.777 24.8003 110.184 24.8003C110.59 24.8003 110.934 24.4565 110.934 24.0503C110.934 23.3315 111.809 22.9878 112.309 23.4878C112.59 23.769 113.09 23.769 113.371 23.4878C113.652 23.1753 113.652 22.7065 113.371 22.4253C112.871 21.9253 113.215 21.0503 113.934 21.0503C114.34 21.0503 114.684 20.7065 114.684 20.3003C114.684 19.894 114.34 19.5503 113.934 19.5503C113.215 19.5503 112.871 18.6753 113.371 18.1753C113.652 17.894 113.652 17.4253 113.371 17.1128C113.059 16.8315 112.59 16.8315 112.309 17.1128C111.809 17.6128 110.934 17.269 110.934 16.5503C110.934 16.144 110.59 15.8003 110.184 15.8003ZM109.184 18.5503C109.59 18.5503 109.934 18.894 109.934 19.3003C109.934 19.7065 109.59 20.0503 109.184 20.0503C108.777 20.0503 108.434 19.7065 108.434 19.3003C108.434 18.894 108.777 18.5503 109.184 18.5503ZM110.434 21.3003C110.434 20.894 110.777 20.5503 111.184 20.5503C111.59 20.5503 111.934 20.894 111.934 21.3003C111.934 21.7065 111.59 22.0503 111.184 22.0503C110.777 22.0503 110.434 21.7065 110.434 21.3003Z" fill="white"/>
<defs>
<linearGradient id="paint0_linear_3361_23094" x1="334.638" y1="87.1572" x2="667.64" y2="87.1572" gradientUnits="userSpaceOnUse">
<stop stop-color="white"/>
<stop offset="1" stop-color="white" stop-opacity="0"/>
</linearGradient>
<linearGradient id="paint1_linear_3361_23094" x1="10.7288" y1="25.1412" x2="94.1925" y2="31.8542" gradientUnits="userSpaceOnUse">
<stop stop-color="#C2C39B"/>
<stop offset="1" stop-color="#53674A"/>
</linearGradient>
<linearGradient id="paint2_linear_3361_23094" x1="388.048" y1="213.6" x2="721.05" y2="213.6" gradientUnits="userSpaceOnUse">
<stop stop-color="white"/>
<stop offset="1" stop-color="white" stop-opacity="0"/>
</linearGradient>
<linearGradient id="paint3_linear_3361_23094" x1="259.337" y1="150.923" x2="405.879" y2="150.923" gradientUnits="userSpaceOnUse">
<stop stop-color="white"/>
<stop offset="1" stop-color="white" stop-opacity="0"/>
</linearGradient>
<linearGradient id="paint4_linear_3361_23094" x1="734.587" y1="462.67" x2="881.129" y2="462.67" gradientUnits="userSpaceOnUse">
<stop stop-color="white"/>
<stop offset="1" stop-color="white" stop-opacity="0"/>
</linearGradient>
<linearGradient id="paint5_linear_3361_23094" x1="216.355" y1="403.809" x2="301.97" y2="403.809" gradientUnits="userSpaceOnUse">
<stop stop-color="white"/>
<stop offset="1" stop-color="white" stop-opacity="0"/>
</linearGradient>
<linearGradient id="paint6_linear_3361_23094" x1="557.561" y1="403.809" x2="471.947" y2="403.809" gradientUnits="userSpaceOnUse">
<stop stop-color="white"/>
<stop offset="1" stop-color="white" stop-opacity="0"/>
</linearGradient>
<linearGradient id="paint7_linear_3361_23094" x1="661.895" y1="342.812" x2="541.138" y2="357.343" gradientUnits="userSpaceOnUse">
<stop stop-color="#C2C39B"/>
<stop offset="1" stop-color="#53674A"/>
</linearGradient>
<linearGradient id="paint8_linear_3361_23094" x1="376.979" y1="340.587" x2="644.327" y2="340.587" gradientUnits="userSpaceOnUse">
<stop stop-color="white"/>
<stop offset="1" stop-color="white" stop-opacity="0"/>
</linearGradient>
<linearGradient id="paint9_linear_3361_23094" x1="182.76" y1="277.366" x2="359.241" y2="277.366" gradientUnits="userSpaceOnUse">
<stop stop-color="white"/>
<stop offset="1" stop-color="white" stop-opacity="0"/>
</linearGradient>
<linearGradient id="paint10_linear_3361_23094" x1="112.273" y1="279.591" x2="361.889" y2="344.993" gradientUnits="userSpaceOnUse">
<stop stop-color="#C2C39B"/>
<stop offset="1" stop-color="#53674A"/>
</linearGradient>
<linearGradient id="paint11_linear_3361_23094" x1="267.145" y1="22.3003" x2="120.604" y2="22.3003" gradientUnits="userSpaceOnUse">
<stop stop-color="white"/>
<stop offset="1" stop-color="white" stop-opacity="0"/>
</linearGradient>
<linearGradient id="paint12_linear_3361_23094" x1="674.813" y1="150.923" x2="528.271" y2="150.923" gradientUnits="userSpaceOnUse">
<stop stop-color="white"/>
<stop offset="1" stop-color="white" stop-opacity="0"/>
</linearGradient>
<linearGradient id="paint13_linear_3361_23094" x1="627.677" y1="89.4053" x2="452.807" y2="120.102" gradientUnits="userSpaceOnUse">
<stop stop-color="#C2C39B"/>
<stop offset="1" stop-color="#53674A"/>
</linearGradient>
<linearGradient id="paint14_linear_3361_23094" x1="624.672" y1="277.366" x2="478.13" y2="277.366" gradientUnits="userSpaceOnUse">
<stop stop-color="white"/>
<stop offset="1" stop-color="white" stop-opacity="0"/>
</linearGradient>
</defs>
</svg>
