<svg width="10" height="10" viewBox="0 0 10 10" fill="none" xmlns="http://www.w3.org/2000/svg">
<path d="M9.04918 0.565973C9.04918 2.47466 7.68835 4.06524 5.90337 4.43637C5.76198 3.41134 5.30248 2.49234 4.61324 1.78541C5.32016 0.707357 6.5396 0.000434399 7.9181 0.000434399H8.48364C8.80175 0.000434399 9.04918 0.247857 9.04918 0.565973ZM0.000564575 1.69705C0.000564575 1.37893 0.247988 1.13151 0.566103 1.13151H1.13164C3.3231 1.13151 5.09041 2.89882 5.09041 5.09028V8.48351C5.09041 8.80162 4.84299 9.04905 4.52487 9.04905C4.20675 9.04905 3.95933 8.80162 3.95933 8.48351V5.65582C1.76787 5.65582 0.000564575 3.88851 0.000564575 1.69705Z" fill="url(#paint0_linear_3361_23603)"/>
<path d="M9.04918 0.565973C9.04918 2.47466 7.68835 4.06524 5.90337 4.43637C5.76198 3.41134 5.30248 2.49234 4.61324 1.78541C5.32016 0.707357 6.5396 0.000434399 7.9181 0.000434399H8.48364C8.80175 0.000434399 9.04918 0.247857 9.04918 0.565973ZM0.000564575 1.69705C0.000564575 1.37893 0.247988 1.13151 0.566103 1.13151H1.13164C3.3231 1.13151 5.09041 2.89882 5.09041 5.09028V8.48351C5.09041 8.80162 4.84299 9.04905 4.52487 9.04905C4.20675 9.04905 3.95933 8.80162 3.95933 8.48351V5.65582C1.76787 5.65582 0.000564575 3.88851 0.000564575 1.69705Z" fill="white"/>
<defs>
<linearGradient id="paint0_linear_3361_23603" x1="-6.50312" y1="-0.403385" x2="11.3113" y2="9.7763" gradientUnits="userSpaceOnUse">
<stop stop-color="#FF6502"/>
<stop offset="1" stop-color="#F581FB"/>
</linearGradient>
</defs>
</svg>
