<svg width="9" height="10" viewBox="0 0 9 10" fill="none" xmlns="http://www.w3.org/2000/svg">
<path d="M6.78702 3.39318C6.36287 3.39318 5.95639 3.23412 5.65595 2.96902L3.37612 4.24148C3.39379 4.32985 3.39379 4.43589 3.39379 4.52425C3.39379 4.63029 3.39379 4.71866 3.37612 4.80702L5.65595 6.07948C5.95639 5.81439 6.36287 5.65533 6.78702 5.65533C7.7237 5.65533 8.48364 6.41527 8.48364 7.35194C8.48364 8.28861 7.7237 9.04856 6.78702 9.04856C5.85035 9.04856 5.09041 8.28861 5.09041 7.35194C5.09041 7.26358 5.09041 7.15754 5.10808 7.06917L2.82826 5.79671C2.52781 6.06181 2.12133 6.22087 1.69718 6.22087C0.760506 6.22087 0.000564575 5.46092 0.000564575 4.52425C0.000564575 3.58758 0.760506 2.82764 1.69718 2.82764C2.12133 2.82764 2.52781 2.98669 2.82826 3.25179L5.10808 1.97933C5.10808 1.89096 5.09041 1.78493 5.09041 1.69656C5.09041 0.759888 5.85035 -5.38826e-05 6.78702 -5.38826e-05C7.7237 -5.38826e-05 8.48364 0.759888 8.48364 1.69656C8.48364 2.63323 7.7237 3.39318 6.78702 3.39318Z" fill="white"/>
</svg>
