<svg width="251" height="254" viewBox="0 0 251 254" fill="none" xmlns="http://www.w3.org/2000/svg">
<mask id="mask0_3361_22760" style="mask-type:alpha" maskUnits="userSpaceOnUse" x="1" y="0" width="250" height="136">
<rect x="1.33203" width="249" height="136" fill="url(#paint0_linear_3361_22760)"/>
</mask>
<g mask="url(#mask0_3361_22760)">
<g opacity="0.4">
<rect x="13.8281" y="3.60889" width="211.651" height="38.7066" rx="6.58835" fill="white"/>
<rect x="14.2399" y="4.02066" width="210.827" height="37.883" rx="6.17658" stroke="#1C1C1C" stroke-opacity="0.1" stroke-width="0.823544"/>
<rect x="20.8278" y="10.609" width="9.05898" height="9.05898" rx="1.23532" stroke="#1C1C1C" stroke-opacity="0.1" stroke-width="0.823544"/>
<path d="M42.9309 15.3379L42.9606 13.2626H42.8815L41.498 16.8104L40.1144 13.2626H40.0353L40.065 15.3379V18.6387H39.0866V11.7407H40.4405L41.498 14.4781H41.5671L42.6345 11.7407H43.9093V18.6387H42.9309V15.3379ZM47.6213 18.7573C47.1864 18.7573 46.8076 18.6782 46.4848 18.5201C46.1685 18.3554 45.905 18.1215 45.6942 17.8184C45.4899 17.5154 45.3384 17.1431 45.2396 16.7017C45.1408 16.2603 45.0913 15.7563 45.0913 15.1897C45.0913 14.6297 45.1408 14.1289 45.2396 13.6875C45.3384 13.2395 45.4899 12.864 45.6942 12.5609C45.905 12.2579 46.1685 12.0273 46.4848 11.8691C46.8076 11.7044 47.1864 11.6221 47.6213 11.6221C48.0561 11.6221 48.4316 11.7044 48.7479 11.8691C49.0707 12.0273 49.3342 12.2579 49.5385 12.5609C49.7493 12.864 49.9041 13.2395 50.003 13.6875C50.1018 14.1289 50.1512 14.6297 50.1512 15.1897C50.1512 15.7563 50.1018 16.2603 50.003 16.7017C49.9041 17.1431 49.7493 17.5154 49.5385 17.8184C49.3342 18.1215 49.0707 18.3554 48.7479 18.5201C48.4316 18.6782 48.0561 18.7573 47.6213 18.7573ZM47.6213 17.8382C48.1154 17.8382 48.4646 17.6537 48.6688 17.2848C48.8731 16.9092 48.9752 16.4019 48.9752 15.7629V14.6066C48.9752 13.9741 48.8731 13.4734 48.6688 13.1045C48.4646 12.7289 48.1154 12.5412 47.6213 12.5412C47.1271 12.5412 46.778 12.7289 46.5737 13.1045C46.3695 13.4734 46.2674 13.9741 46.2674 14.6066V15.7727C46.2674 16.4052 46.3695 16.9092 46.5737 17.2848C46.778 17.6537 47.1271 17.8382 47.6213 17.8382ZM52.7069 18.6387H51.6099V11.7407H54.1893C54.8481 11.7407 55.3488 11.9251 55.6914 12.2941C56.0406 12.663 56.2152 13.1703 56.2152 13.816C56.2152 14.3431 56.0867 14.7779 55.8298 15.1205C55.5728 15.4631 55.2039 15.6739 54.7229 15.753L56.314 18.6387H55.0886L53.626 15.8518H52.7069V18.6387ZM54.0312 14.9624C54.7164 14.9624 55.059 14.6494 55.059 14.0235V13.5986C55.059 12.9727 54.7164 12.6597 54.0312 12.6597H52.7069V14.9624H54.0312ZM58.6721 13.3318H58.5832V18.6387H57.6147V11.7407H59.0377L61.0637 17.0476H61.1526V11.7407H62.1211V18.6387H60.698L58.6721 13.3318ZM63.817 18.6387V17.7987H65.4378V12.5807H63.817V11.7407H68.1653V12.5807H66.5446V17.7987H68.1653V18.6387H63.817ZM70.9187 13.3318H70.8298V18.6387H69.8613V11.7407H71.2844L73.3103 17.0476H73.3992V11.7407H74.3677V18.6387H72.9446L70.9187 13.3318ZM79.5225 17.6899H79.4533C79.3941 17.8283 79.3216 17.9634 79.2359 18.0951C79.1569 18.2203 79.0548 18.3323 78.9296 18.4311C78.811 18.53 78.666 18.609 78.4947 18.6683C78.3234 18.7276 78.1258 18.7573 77.9018 18.7573C77.1837 18.7573 76.6434 18.4509 76.2811 17.8382C75.9187 17.2255 75.7375 16.3591 75.7375 15.2391C75.7375 14.0664 75.9451 13.1703 76.3601 12.551C76.7752 11.9317 77.411 11.6221 78.2674 11.6221C78.6035 11.6221 78.8966 11.6682 79.147 11.7604C79.4039 11.8527 79.6214 11.9778 79.7992 12.136C79.9771 12.2875 80.1254 12.4687 80.244 12.6795C80.3625 12.8837 80.4581 13.1012 80.5305 13.3318L79.5324 13.6678C79.4797 13.5162 79.4204 13.3746 79.3545 13.2428C79.2886 13.1045 79.2063 12.9826 79.1075 12.8772C79.0152 12.7717 78.8999 12.6894 78.7616 12.6301C78.6298 12.5708 78.4684 12.5412 78.2773 12.5412C77.7964 12.5412 77.4472 12.7289 77.2298 13.1045C77.019 13.4734 76.9135 13.9741 76.9135 14.6066V15.7036C76.9135 16.0198 76.9366 16.3097 76.9827 16.5732C77.0288 16.8368 77.1046 17.0641 77.21 17.2551C77.322 17.4396 77.4637 17.5845 77.635 17.6899C77.8129 17.7954 78.027 17.8481 78.2773 17.8481C78.6792 17.8481 78.9856 17.7295 79.1964 17.4923C79.4138 17.2485 79.5225 16.9389 79.5225 16.5633V15.9407H78.1884V15.1106H80.5305V18.6387H79.5225V17.6899ZM91.7691 17.6899H91.7C91.6407 17.8283 91.5682 17.9634 91.4825 18.0951C91.4035 18.2203 91.3014 18.3323 91.1762 18.4311C91.0576 18.53 90.9127 18.609 90.7414 18.6683C90.5701 18.7276 90.3724 18.7573 90.1484 18.7573C89.4303 18.7573 88.89 18.4509 88.5277 17.8382C88.1653 17.2255 87.9841 16.3591 87.9841 15.2391C87.9841 14.0664 88.1917 13.1703 88.6067 12.551C89.0218 11.9317 89.6576 11.6221 90.5141 11.6221C90.8501 11.6221 91.1432 11.6682 91.3936 11.7604C91.6505 11.8527 91.868 11.9778 92.0459 12.136C92.2237 12.2875 92.372 12.4687 92.4906 12.6795C92.6092 12.8837 92.7047 13.1012 92.7772 13.3318L91.779 13.6678C91.7263 13.5162 91.667 13.3746 91.6011 13.2428C91.5353 13.1045 91.4529 12.9826 91.3541 12.8772C91.2618 12.7717 91.1465 12.6894 91.0082 12.6301C90.8764 12.5708 90.715 12.5412 90.5239 12.5412C90.043 12.5412 89.6938 12.7289 89.4764 13.1045C89.2656 13.4734 89.1602 13.9741 89.1602 14.6066V15.7036C89.1602 16.0198 89.1832 16.3097 89.2293 16.5732C89.2754 16.8368 89.3512 17.0641 89.4566 17.2551C89.5686 17.4396 89.7103 17.5845 89.8816 17.6899C90.0595 17.7954 90.2736 17.8481 90.5239 17.8481C90.9258 17.8481 91.2322 17.7295 91.443 17.4923C91.6604 17.2485 91.7691 16.9389 91.7691 16.5633V15.9407H90.435V15.1106H92.7772V18.6387H91.7691V17.6899ZM95.5701 18.6387H94.4731V11.7407H97.0524C97.7113 11.7407 98.212 11.9251 98.5546 12.2941C98.9038 12.663 99.0783 13.1703 99.0783 13.816C99.0783 14.3431 98.9499 14.7779 98.6929 15.1205C98.436 15.4631 98.067 15.6739 97.5861 15.753L99.1772 18.6387H97.9517L96.4891 15.8518H95.5701V18.6387ZM96.8943 14.9624C97.5795 14.9624 97.9221 14.6494 97.9221 14.0235V13.5986C97.9221 12.9727 97.5795 12.6597 96.8943 12.6597H95.5701V14.9624H96.8943ZM102.731 18.7573C102.296 18.7573 101.917 18.6782 101.595 18.5201C101.278 18.3554 101.015 18.1215 100.804 17.8184C100.6 17.5154 100.448 17.1431 100.349 16.7017C100.251 16.2603 100.201 15.7563 100.201 15.1897C100.201 14.6297 100.251 14.1289 100.349 13.6875C100.448 13.2395 100.6 12.864 100.804 12.5609C101.015 12.2579 101.278 12.0273 101.595 11.8691C101.917 11.7044 102.296 11.6221 102.731 11.6221C103.166 11.6221 103.541 11.7044 103.858 11.8691C104.18 12.0273 104.444 12.2579 104.648 12.5609C104.859 12.864 105.014 13.2395 105.113 13.6875C105.212 14.1289 105.261 14.6297 105.261 15.1897C105.261 15.7563 105.212 16.2603 105.113 16.7017C105.014 17.1431 104.859 17.5154 104.648 17.8184C104.444 18.1215 104.18 18.3554 103.858 18.5201C103.541 18.6782 103.166 18.7573 102.731 18.7573ZM102.731 17.8382C103.225 17.8382 103.574 17.6537 103.779 17.2848C103.983 16.9092 104.085 16.4019 104.085 15.7629V14.6066C104.085 13.9741 103.983 13.4734 103.779 13.1045C103.574 12.7289 103.225 12.5412 102.731 12.5412C102.237 12.5412 101.888 12.7289 101.683 13.1045C101.479 13.4734 101.377 13.9741 101.377 14.6066V15.7727C101.377 16.4052 101.479 16.9092 101.683 17.2848C101.888 17.6537 102.237 17.8382 102.731 17.8382ZM107.678 11.7407V15.9803C107.678 16.2636 107.685 16.5205 107.698 16.7511C107.718 16.9817 107.767 17.1794 107.846 17.3441C107.925 17.5022 108.044 17.6241 108.202 17.7097C108.36 17.7954 108.578 17.8382 108.854 17.8382C109.131 17.8382 109.348 17.7954 109.507 17.7097C109.665 17.6241 109.783 17.5022 109.862 17.3441C109.941 17.1794 109.988 16.9817 110.001 16.7511C110.02 16.5205 110.03 16.2636 110.03 15.9803V11.7407H111.137V15.7826C111.137 16.2767 111.108 16.7116 111.048 17.0871C110.996 17.4561 110.887 17.7657 110.722 18.0161C110.557 18.2598 110.324 18.4443 110.02 18.5695C109.724 18.6947 109.335 18.7573 108.854 18.7573C108.373 18.7573 107.981 18.6947 107.678 18.5695C107.382 18.4443 107.151 18.2598 106.987 18.0161C106.822 17.7657 106.71 17.4561 106.651 17.0871C106.598 16.7116 106.571 16.2767 106.571 15.7826V11.7407H107.678ZM113.782 13.3318H113.693V18.6387H112.724V11.7407H114.148L116.173 17.0476H116.262V11.7407H117.231V18.6387H115.808L113.782 13.3318ZM118.947 11.7407H121.002C121.885 11.7407 122.537 12.0338 122.959 12.6202C123.387 13.2066 123.601 14.0631 123.601 15.1897C123.601 16.3163 123.387 17.1728 122.959 17.7591C122.537 18.3455 121.885 18.6387 121.002 18.6387H118.947V11.7407ZM120.933 17.7295C121.44 17.7295 121.816 17.5615 122.06 17.2255C122.31 16.8829 122.435 16.3953 122.435 15.7629V14.6165C122.435 13.984 122.31 13.4998 122.06 13.1638C121.816 12.8212 121.44 12.6499 120.933 12.6499H120.044V17.7295H120.933ZM125.05 18.6387V17.7987H126.671V12.5807H125.05V11.7407H129.398V12.5807H127.778V17.7987H129.398V18.6387H125.05ZM132.152 13.3318H132.063V18.6387H131.094V11.7407H132.517L134.543 17.0476H134.632V11.7407H135.601V18.6387H134.178L132.152 13.3318ZM140.756 17.6899H140.686C140.627 17.8283 140.555 17.9634 140.469 18.0951C140.39 18.2203 140.288 18.3323 140.163 18.4311C140.044 18.53 139.899 18.609 139.728 18.6683C139.557 18.7276 139.359 18.7573 139.135 18.7573C138.417 18.7573 137.876 18.4509 137.514 17.8382C137.152 17.2255 136.971 16.3591 136.971 15.2391C136.971 14.0664 137.178 13.1703 137.593 12.551C138.008 11.9317 138.644 11.6221 139.501 11.6221C139.837 11.6221 140.13 11.6682 140.38 11.7604C140.637 11.8527 140.854 11.9778 141.032 12.136C141.21 12.2875 141.358 12.4687 141.477 12.6795C141.596 12.8837 141.691 13.1012 141.764 13.3318L140.765 13.6678C140.713 13.5162 140.653 13.3746 140.588 13.2428C140.522 13.1045 140.439 12.9826 140.341 12.8772C140.248 12.7717 140.133 12.6894 139.995 12.6301C139.863 12.5708 139.701 12.5412 139.51 12.5412C139.029 12.5412 138.68 12.7289 138.463 13.1045C138.252 13.4734 138.147 13.9741 138.147 14.6066V15.7036C138.147 16.0198 138.17 16.3097 138.216 16.5732C138.262 16.8368 138.338 17.0641 138.443 17.2551C138.555 17.4396 138.697 17.5845 138.868 17.6899C139.046 17.7954 139.26 17.8481 139.51 17.8481C139.912 17.8481 140.219 17.7295 140.429 17.4923C140.647 17.2485 140.756 16.9389 140.756 16.5633V15.9407H139.421V15.1106H141.764V18.6387H140.756V17.6899ZM151.915 18.7573C151.039 18.7573 150.387 18.4476 149.958 17.8283C149.537 17.209 149.326 16.3295 149.326 15.1897C149.326 14.0499 149.537 13.1703 149.958 12.551C150.387 11.9317 151.039 11.6221 151.915 11.6221C152.251 11.6221 152.541 11.6682 152.785 11.7604C153.035 11.8461 153.249 11.968 153.427 12.1261C153.605 12.2776 153.753 12.4588 153.872 12.6696C153.997 12.8739 154.099 13.0946 154.178 13.3318L153.18 13.6678C153.127 13.5096 153.068 13.3614 153.002 13.223C152.936 13.0847 152.854 12.9661 152.755 12.8673C152.656 12.7685 152.538 12.6894 152.399 12.6301C152.268 12.5708 152.103 12.5412 151.905 12.5412C151.418 12.5412 151.062 12.7289 150.838 13.1045C150.614 13.4734 150.502 13.9741 150.502 14.6066V15.7727C150.502 16.4052 150.614 16.9092 150.838 17.2848C151.062 17.6537 151.418 17.8382 151.905 17.8382C152.103 17.8382 152.268 17.8085 152.399 17.7492C152.538 17.6899 152.656 17.6109 152.755 17.5121C152.854 17.4132 152.936 17.2946 153.002 17.1563C153.068 17.0179 153.127 16.8697 153.18 16.7116L154.178 17.0476C154.099 17.2848 153.997 17.5088 153.872 17.7196C153.753 17.9238 153.605 18.105 153.427 18.2631C153.249 18.4147 153.035 18.5366 152.785 18.6288C152.541 18.7144 152.251 18.7573 151.915 18.7573ZM158.987 15.6047H156.694V18.6387H155.588V11.7407H156.694V14.6758H158.987V11.7407H160.094V18.6387H158.987V15.6047ZM161.849 18.6387V11.7407H166.168V12.6696H162.956V14.6758H166.049V15.6047H162.956V17.7097H166.168V18.6387H161.849ZM170.285 18.7573C169.409 18.7573 168.757 18.4476 168.328 17.8283C167.907 17.209 167.696 16.3295 167.696 15.1897C167.696 14.0499 167.907 13.1703 168.328 12.551C168.757 11.9317 169.409 11.6221 170.285 11.6221C170.621 11.6221 170.911 11.6682 171.155 11.7604C171.405 11.8461 171.619 11.968 171.797 12.1261C171.975 12.2776 172.123 12.4588 172.242 12.6696C172.367 12.8739 172.469 13.0946 172.548 13.3318L171.55 13.6678C171.497 13.5096 171.438 13.3614 171.372 13.223C171.306 13.0847 171.224 12.9661 171.125 12.8673C171.026 12.7685 170.908 12.6894 170.769 12.6301C170.638 12.5708 170.473 12.5412 170.275 12.5412C169.788 12.5412 169.432 12.7289 169.208 13.1045C168.984 13.4734 168.872 13.9741 168.872 14.6066V15.7727C168.872 16.4052 168.984 16.9092 169.208 17.2848C169.432 17.6537 169.788 17.8382 170.275 17.8382C170.473 17.8382 170.638 17.8085 170.769 17.7492C170.908 17.6899 171.026 17.6109 171.125 17.5121C171.224 17.4132 171.306 17.2946 171.372 17.1563C171.438 17.0179 171.497 16.8697 171.55 16.7116L172.548 17.0476C172.469 17.2848 172.367 17.5088 172.242 17.7196C172.123 17.9238 171.975 18.105 171.797 18.2631C171.619 18.4147 171.405 18.5366 171.155 18.6288C170.911 18.7144 170.621 18.7573 170.285 18.7573ZM175.954 15.4664L175.124 16.504V18.6387H174.017V11.7407H175.124V15.0414H175.173L176.013 13.8951L177.703 11.7407H178.978L176.705 14.6461L179.067 18.6387H177.802L175.954 15.4664ZM180.842 16.168V15.0908H183.826V16.168H180.842ZM186.283 18.6387V17.7987H187.904V12.5807H186.283V11.7407H190.631V12.5807H189.011V17.7987H190.631V18.6387H186.283ZM193.385 13.3318H193.296V18.6387H192.327V11.7407H193.75L195.776 17.0476H195.865V11.7407H196.834V18.6387H195.411L193.385 13.3318Z" fill="#1C1C1C"/>
<path opacity="0.4" d="M41.9689 26.7119C42.1571 26.7119 42.3164 26.8711 42.3164 27.0593V27.6383H44.6326V27.0593C44.6326 26.8711 44.7918 26.7119 44.98 26.7119C45.1682 26.7119 45.3274 26.8711 45.3274 27.0593V27.6383H45.7907C46.2974 27.6383 46.7172 28.0582 46.7172 28.5648V32.734C46.7172 33.2407 46.2974 33.6605 45.7907 33.6605H41.1582C40.6516 33.6605 40.2318 33.2407 40.2318 32.734V28.5648C40.2318 28.0582 40.6516 27.6383 41.1582 27.6383H41.6215V27.0593C41.6215 26.8711 41.7807 26.7119 41.9689 26.7119ZM41.9689 28.3332H41.1582C41.028 28.3332 40.9266 28.4345 40.9266 28.5648V32.734C40.9266 32.8643 41.028 32.9656 41.1582 32.9656H45.7907C45.921 32.9656 46.0223 32.8643 46.0223 32.734V28.5648C46.0223 28.4345 45.921 28.3332 45.7907 28.3332H41.9689ZM42.3164 30.4178V31.5759H43.4745V30.4178H42.3164ZM41.6215 30.4178C41.6215 30.0414 41.94 29.7229 42.3164 29.7229H43.4745C43.8653 29.7229 44.1693 30.0414 44.1693 30.4178V31.5759C44.1693 31.9668 43.8653 32.2708 43.4745 32.2708H42.3164C41.94 32.2708 41.6215 31.9668 41.6215 31.5759V30.4178Z" fill="#1C1C1C"/>
<path opacity="0.6" d="M53.251 28.5566H51.9992V27.8319H54.0251V33.7861H53.251V28.5566ZM59.6227 33.7861H57.6544V27.8319H59.5897C61.3686 27.8319 62.571 29.0343 62.571 30.8131C62.571 32.5838 61.3851 33.7861 59.6227 33.7861ZM59.5321 28.5731H58.4615V33.0367H59.565C60.8909 33.0367 61.731 32.1802 61.731 30.8131C61.731 29.4296 60.8909 28.5731 59.5321 28.5731ZM65.2037 33.885C64.0178 33.885 63.2025 33.0285 63.2025 31.7767C63.2025 30.5167 64.0013 29.6437 65.1707 29.6437C66.3155 29.6437 67.0649 30.4343 67.0649 31.6284V31.9167L63.9519 31.9249C64.0095 32.7732 64.4543 33.2426 65.2201 33.2426C65.8213 33.2426 66.2166 32.9955 66.3484 32.5343H67.0731C66.8755 33.3991 66.2002 33.885 65.2037 33.885ZM65.1707 30.2943C64.4954 30.2943 64.0672 30.6978 63.9684 31.4061H66.2908C66.2908 30.739 65.8543 30.2943 65.1707 30.2943ZM67.666 31.7767C67.666 30.5167 68.4648 29.6437 69.6425 29.6437C70.6555 29.6437 71.3637 30.2202 71.5037 31.1179H70.7296C70.5978 30.6073 70.1861 30.3355 69.6672 30.3355C68.9343 30.3355 68.4319 30.8955 68.4319 31.7684C68.4319 32.6332 68.9013 33.1932 69.6343 33.1932C70.1861 33.1932 70.5978 32.9049 70.7378 32.4273H71.512C71.3555 33.3002 70.6061 33.885 69.6343 33.885C68.4484 33.885 67.666 33.0449 67.666 31.7767ZM73.3291 33.465C73.3291 34.0579 72.8844 34.552 72.2997 34.6261V34.2803C72.6373 34.2226 72.8761 34.0003 72.8761 33.745C72.8185 33.7779 72.7526 33.7944 72.6538 33.7944C72.382 33.7944 72.1514 33.5967 72.1514 33.292C72.1514 32.9626 72.3738 32.7238 72.7032 32.7238C73.0491 32.7238 73.3291 33.012 73.3291 33.465ZM80.5335 33.7779L76.5146 33.7861V33.1685L78.4335 31.5132C79.397 30.6814 79.6688 30.2778 79.6688 29.6437C79.6688 28.8943 79.2405 28.4496 78.5241 28.4496C77.7911 28.4496 77.3134 28.9849 77.297 29.8331H76.4899C76.5146 28.5566 77.3217 27.7248 78.5323 27.7248C79.7264 27.7248 80.4923 28.4496 80.4923 29.5943C80.4923 30.4425 80.0723 31.0437 79.0182 31.9579L77.7829 33.0285H80.5335V33.7779ZM81.2763 30.8131C81.2763 28.9684 82.2316 27.7166 83.7305 27.7166C85.2211 27.7166 86.1764 28.9684 86.1764 30.8131C86.1764 32.6661 85.2623 33.8932 83.7305 33.8932C82.1904 33.8932 81.2763 32.6661 81.2763 30.8131ZM82.0751 30.8131C82.0751 32.279 82.6846 33.1685 83.7305 33.1685C84.7764 33.1685 85.3775 32.279 85.3775 30.8131C85.3775 29.3308 84.7764 28.4413 83.7305 28.4413C82.6846 28.4413 82.0751 29.3308 82.0751 30.8131ZM90.9806 33.7779L86.9617 33.7861V33.1685L88.8806 31.5132C89.8441 30.6814 90.1159 30.2778 90.1159 29.6437C90.1159 28.8943 89.6876 28.4496 88.9712 28.4496C88.2382 28.4496 87.7605 28.9849 87.7441 29.8331H86.937C86.9617 28.5566 87.7688 27.7248 88.9794 27.7248C90.1735 27.7248 90.9394 28.4496 90.9394 29.5943C90.9394 30.4425 90.5194 31.0437 89.4653 31.9579L88.23 33.0285H90.9806V33.7779ZM93.6683 33.885C92.4495 33.885 91.6589 33.1108 91.6589 31.9249H92.4577C92.4577 32.6908 92.9271 33.1602 93.6848 33.1602C94.4919 33.1602 95.0107 32.6249 95.0107 31.8179C95.0107 31.052 94.5248 30.4837 93.693 30.4837C93.1907 30.4837 92.7295 30.7225 92.4577 31.0602L91.7742 30.8873L92.4989 27.8319H95.4801V28.5731H93.0836L92.6883 30.1543C93.0012 29.9155 93.3965 29.7919 93.8413 29.7919C95.0519 29.7919 95.8342 30.6402 95.8342 31.7849C95.8342 33.0202 94.953 33.885 93.6683 33.885Z" fill="#1C1C1C"/>
</g>
<rect x="1.33203" y="50.5508" width="211.651" height="38.7066" rx="6.58835" fill="white"/>
<rect x="1.7438" y="50.9626" width="210.827" height="37.883" rx="6.17658" stroke="url(#paint1_linear_3361_22760)" stroke-opacity="0.7" stroke-width="0.823544"/>
<rect x="8.33169" y="57.5509" width="9.05898" height="9.05898" rx="1.23532" fill="#23B100" stroke="url(#paint2_linear_3361_22760)" stroke-width="0.823544"/>
<g filter="url(#filter0_d_3361_22760)">
<path d="M14.8996 60.1381C15.0347 60.2443 15.0636 60.4373 14.9671 60.5724L12.4965 63.9695C12.4386 64.0371 12.3614 64.0853 12.2745 64.095C12.178 64.1046 12.0911 64.066 12.0236 64.0081L10.7883 62.7728C10.6725 62.6473 10.6725 62.4543 10.7883 62.3288C10.9137 62.213 11.1067 62.213 11.2322 62.3288L12.2069 63.3132L14.4653 60.2056C14.5714 60.0705 14.7644 60.0416 14.8996 60.1381Z" fill="white"/>
</g>
<path d="M26.887 65.5806V58.6826H31.2057V59.6115H27.9938V61.6177H31.0871V62.5466H27.9938V64.6516H31.2057V65.5806H26.887ZM36.5581 62.2798L36.5878 60.2045H36.5087L35.1252 63.7523L33.7416 60.2045H33.6626L33.6922 62.2798V65.5806H32.7138V58.6826H34.0677L35.1252 61.42H35.1944L36.2617 58.6826H37.5365V65.5806H36.5581V62.2798ZM41.2485 65.6992C40.8136 65.6992 40.4348 65.6201 40.112 65.462C39.7957 65.2973 39.5322 65.0634 39.3214 64.7603C39.1171 64.4573 38.9656 64.085 38.8668 63.6436C38.768 63.2022 38.7186 62.6982 38.7186 62.1316C38.7186 61.5716 38.768 61.0708 38.8668 60.6294C38.9656 60.1814 39.1171 59.8059 39.3214 59.5028C39.5322 59.1997 39.7957 58.9692 40.112 58.811C40.4348 58.6463 40.8136 58.564 41.2485 58.564C41.6833 58.564 42.0588 58.6463 42.3751 58.811C42.6979 58.9692 42.9615 59.1997 43.1657 59.5028C43.3765 59.8059 43.5313 60.1814 43.6302 60.6294C43.729 61.0708 43.7784 61.5716 43.7784 62.1316C43.7784 62.6982 43.729 63.2022 43.6302 63.6436C43.5313 64.085 43.3765 64.4573 43.1657 64.7603C42.9615 65.0634 42.6979 65.2973 42.3751 65.462C42.0588 65.6201 41.6833 65.6992 41.2485 65.6992ZM41.2485 64.7801C41.7426 64.7801 42.0918 64.5956 42.296 64.2267C42.5003 63.8511 42.6024 63.3438 42.6024 62.7048V61.5485C42.6024 60.916 42.5003 60.4153 42.296 60.0464C42.0918 59.6708 41.7426 59.483 41.2485 59.483C40.7544 59.483 40.4052 59.6708 40.2009 60.0464C39.9967 60.4153 39.8946 60.916 39.8946 61.5485V62.7146C39.8946 63.3471 39.9967 63.8511 40.2009 64.2267C40.4052 64.5956 40.7544 64.7801 41.2485 64.7801ZM47.9252 59.6115V65.5806H46.8184V59.6115H44.6541V58.6826H50.0895V59.6115H47.9252ZM51.3209 65.5806V64.7406H52.9417V59.5226H51.3209V58.6826H55.6692V59.5226H54.0485V64.7406H55.6692V65.5806H51.3209ZM59.6184 65.6992C59.1836 65.6992 58.8047 65.6201 58.4819 65.462C58.1657 65.2973 57.9021 65.0634 57.6913 64.7603C57.4871 64.4573 57.3355 64.085 57.2367 63.6436C57.1379 63.2022 57.0885 62.6982 57.0885 62.1316C57.0885 61.5716 57.1379 61.0708 57.2367 60.6294C57.3355 60.1814 57.4871 59.8059 57.6913 59.5028C57.9021 59.1997 58.1657 58.9692 58.4819 58.811C58.8047 58.6463 59.1836 58.564 59.6184 58.564C60.0532 58.564 60.4288 58.6463 60.745 58.811C61.0678 58.9692 61.3314 59.1997 61.5356 59.5028C61.7464 59.8059 61.9013 60.1814 62.0001 60.6294C62.0989 61.0708 62.1483 61.5716 62.1483 62.1316C62.1483 62.6982 62.0989 63.2022 62.0001 63.6436C61.9013 64.085 61.7464 64.4573 61.5356 64.7603C61.3314 65.0634 61.0678 65.2973 60.745 65.462C60.4288 65.6201 60.0532 65.6992 59.6184 65.6992ZM59.6184 64.7801C60.1125 64.7801 60.4617 64.5956 60.6659 64.2267C60.8702 63.8511 60.9723 63.3438 60.9723 62.7048V61.5485C60.9723 60.916 60.8702 60.4153 60.6659 60.0464C60.4617 59.6708 60.1125 59.483 59.6184 59.483C59.1243 59.483 58.7751 59.6708 58.5709 60.0464C58.3666 60.4153 58.2645 60.916 58.2645 61.5485V62.7146C58.2645 63.3471 58.3666 63.8511 58.5709 64.2267C58.7751 64.5956 59.1243 64.7801 59.6184 64.7801ZM64.5459 60.2736H64.457V65.5806H63.4885V58.6826H64.9116L66.9375 63.9895H67.0264V58.6826H67.9949V65.5806H66.5718L64.5459 60.2736ZM73.466 65.5806L72.9422 63.7424H70.7483L70.2245 65.5806H69.0979L71.1139 58.6826H72.626L74.642 65.5806H73.466ZM71.8848 59.7993H71.8057L70.9558 62.8233H72.7347L71.8848 59.7993ZM76.0909 65.5806V58.6826H77.1977V64.6516H80.3404V65.5806H76.0909ZM90.1756 65.6992C89.5761 65.6992 89.0721 65.5937 88.6636 65.3829C88.2551 65.1721 87.9191 64.8921 87.6556 64.5429L88.3671 63.861C88.6307 64.1772 88.9107 64.4111 89.2071 64.5627C89.5036 64.7076 89.8396 64.7801 90.2152 64.7801C90.65 64.7801 90.9827 64.6813 91.2133 64.4836C91.4505 64.286 91.5691 64.0027 91.5691 63.6337C91.5691 63.3372 91.4834 63.1099 91.3121 62.9518C91.1408 62.7871 90.8476 62.6685 90.4326 62.596L89.6815 62.4775C89.3521 62.4247 89.0754 62.3391 88.8514 62.2205C88.6274 62.0953 88.4462 61.9504 88.3078 61.7857C88.1695 61.6144 88.0674 61.4266 88.0015 61.2224C87.9422 61.0115 87.9125 60.7908 87.9125 60.5602C87.9125 59.908 88.1234 59.4139 88.545 59.0779C88.9667 58.7353 89.5464 58.564 90.2843 58.564C90.8312 58.564 91.2957 58.6529 91.6778 58.8308C92.0665 59.0021 92.3794 59.2459 92.6166 59.5621L91.9248 60.2539C91.7338 60.0233 91.5065 59.8388 91.2429 59.7005C90.986 59.5555 90.6665 59.483 90.2843 59.483C89.8759 59.483 89.5629 59.572 89.3455 59.7499C89.1347 59.9212 89.0293 60.1748 89.0293 60.5108C89.0293 60.7941 89.1116 61.0181 89.2763 61.1828C89.4476 61.341 89.7474 61.4563 90.1756 61.5287L90.9069 61.6572C91.5262 61.7692 91.9775 61.9965 92.2608 62.3391C92.5441 62.6751 92.6858 63.0869 92.6858 63.5744C92.6858 63.8907 92.6298 64.1805 92.5178 64.4441C92.4124 64.7076 92.251 64.9316 92.0336 65.1161C91.8227 65.3006 91.5592 65.4455 91.2429 65.5509C90.9333 65.6497 90.5775 65.6992 90.1756 65.6992ZM95.1625 60.2736H95.0735V65.5806H94.105V58.6826H95.5281L97.554 63.9895H97.643V58.6826H98.6115V65.5806H97.1884L95.1625 60.2736ZM104.083 65.5806L103.559 63.7424H101.365L100.841 65.5806H99.7144L101.73 58.6826H103.242L105.259 65.5806H104.083ZM102.501 59.7993H102.422L101.572 62.8233H103.351L102.501 59.7993ZM106.47 65.5806V58.6826H109.05C109.708 58.6826 110.209 58.867 110.552 59.236C110.901 59.6049 111.075 60.1122 111.075 60.7579C111.075 61.4036 110.901 61.9109 110.552 62.2798C110.209 62.6487 109.708 62.8332 109.05 62.8332H107.577V65.5806H106.47ZM107.577 61.9141H108.882C109.567 61.9141 109.909 61.5979 109.909 60.9654V60.5405C109.909 59.9146 109.567 59.6016 108.882 59.6016H107.577V61.9141ZM114.669 65.6992C114.069 65.6992 113.565 65.5937 113.157 65.3829C112.748 65.1721 112.412 64.8921 112.149 64.5429L112.86 63.861C113.124 64.1772 113.404 64.4111 113.7 64.5627C113.997 64.7076 114.333 64.7801 114.708 64.7801C115.143 64.7801 115.476 64.6813 115.707 64.4836C115.944 64.286 116.062 64.0027 116.062 63.6337C116.062 63.3372 115.977 63.1099 115.805 62.9518C115.634 62.7871 115.341 62.6685 114.926 62.596L114.175 62.4775C113.845 62.4247 113.569 62.3391 113.345 62.2205C113.121 62.0953 112.939 61.9504 112.801 61.7857C112.663 61.6144 112.561 61.4266 112.495 61.2224C112.435 61.0115 112.406 60.7908 112.406 60.5602C112.406 59.908 112.617 59.4139 113.038 59.0779C113.46 58.7353 114.04 58.564 114.778 58.564C115.324 58.564 115.789 58.6529 116.171 58.8308C116.56 59.0021 116.873 59.2459 117.11 59.5621L116.418 60.2539C116.227 60.0233 116 59.8388 115.736 59.7005C115.479 59.5555 115.16 59.483 114.778 59.483C114.369 59.483 114.056 59.572 113.839 59.7499C113.628 59.9212 113.522 60.1748 113.522 60.5108C113.522 60.7941 113.605 61.0181 113.77 61.1828C113.941 61.341 114.241 61.4563 114.669 61.5287L115.4 61.6572C116.019 61.7692 116.471 61.9965 116.754 62.3391C117.037 62.6751 117.179 63.0869 117.179 63.5744C117.179 63.8907 117.123 64.1805 117.011 64.4441C116.906 64.7076 116.744 64.9316 116.527 65.1161C116.316 65.3006 116.052 65.4455 115.736 65.5509C115.427 65.6497 115.071 65.6992 114.669 65.6992ZM121.998 62.5466H119.705V65.5806H118.598V58.6826H119.705V61.6177H121.998V58.6826H123.105V65.5806H121.998V62.5466ZM126.975 65.6992C126.54 65.6992 126.161 65.6201 125.838 65.462C125.522 65.2973 125.259 65.0634 125.048 64.7603C124.843 64.4573 124.692 64.085 124.593 63.6436C124.494 63.2022 124.445 62.6982 124.445 62.1316C124.445 61.5716 124.494 61.0708 124.593 60.6294C124.692 60.1814 124.843 59.8059 125.048 59.5028C125.259 59.1997 125.522 58.9692 125.838 58.811C126.161 58.6463 126.54 58.564 126.975 58.564C127.41 58.564 127.785 58.6463 128.101 58.811C128.424 58.9692 128.688 59.1997 128.892 59.5028C129.103 59.8059 129.258 60.1814 129.356 60.6294C129.455 61.0708 129.505 61.5716 129.505 62.1316C129.505 62.6982 129.455 63.2022 129.356 63.6436C129.258 64.085 129.103 64.4573 128.892 64.7603C128.688 65.0634 128.424 65.2973 128.101 65.462C127.785 65.6201 127.41 65.6992 126.975 65.6992ZM126.975 64.7801C127.469 64.7801 127.818 64.5956 128.022 64.2267C128.227 63.8511 128.329 63.3438 128.329 62.7048V61.5485C128.329 60.916 128.227 60.4153 128.022 60.0464C127.818 59.6708 127.469 59.483 126.975 59.483C126.481 59.483 126.131 59.6708 125.927 60.0464C125.723 60.4153 125.621 60.916 125.621 61.5485V62.7146C125.621 63.3471 125.723 63.8511 125.927 64.2267C126.131 64.5956 126.481 64.7801 126.975 64.7801ZM133.651 59.6115V65.5806H132.545V59.6115H130.38V58.6826H135.816V59.6115H133.651ZM144.307 65.5806H143.21V58.6826H145.789C146.448 58.6826 146.949 58.867 147.292 59.236C147.641 59.6049 147.815 60.1122 147.815 60.7579C147.815 61.285 147.687 61.7198 147.43 62.0624C147.173 62.405 146.804 62.6158 146.323 62.6949L147.914 65.5806H146.689L145.226 62.7937H144.307V65.5806ZM145.631 61.9043C146.316 61.9043 146.659 61.5913 146.659 60.9654V60.5405C146.659 59.9146 146.316 59.6016 145.631 59.6016H144.307V61.9043H145.631ZM149.353 65.5806V58.6826H153.672V59.6115H150.46V61.6177H153.553V62.5466H150.46V64.6516H153.672V65.5806H149.353ZM156.82 65.5806L154.874 58.6826H156.069L156.979 62.1612L157.581 64.5034H157.641L158.244 62.1612L159.163 58.6826H160.309L158.362 65.5806H156.82ZM161.54 65.5806V64.7406H163.161V59.5226H161.54V58.6826H165.889V59.5226H164.268V64.7406H165.889V65.5806H161.54ZM167.723 65.5806V58.6826H172.042V59.6115H168.83V61.6177H171.923V62.5466H168.83V64.6516H172.042V65.5806H167.723ZM173.738 65.5806L173.244 58.6826H174.212L174.459 62.6949L174.568 64.4638H174.647L175.428 60.3527H176.525L177.305 64.4638H177.384L177.493 62.6949L177.75 58.6826H178.679L178.185 65.5806H176.702L176.001 61.588H175.922L175.22 65.5806H173.738Z" fill="#1C1C1C"/>
<path opacity="0.4" d="M29.4728 73.6538C29.661 73.6538 29.8203 73.813 29.8203 74.0012V74.5802H32.1365V74.0012C32.1365 73.813 32.2957 73.6538 32.4839 73.6538C32.6721 73.6538 32.8313 73.813 32.8313 74.0012V74.5802H33.2946C33.8013 74.5802 34.2211 75.0001 34.2211 75.5067V79.6759C34.2211 80.1826 33.8013 80.6024 33.2946 80.6024H28.6622C28.1555 80.6024 27.7357 80.1826 27.7357 79.6759V75.5067C27.7357 75.0001 28.1555 74.5802 28.6622 74.5802H29.1254V74.0012C29.1254 73.813 29.2846 73.6538 29.4728 73.6538ZM29.4728 75.2751H28.6622C28.5319 75.2751 28.4305 75.3764 28.4305 75.5067V79.6759C28.4305 79.8062 28.5319 79.9075 28.6622 79.9075H33.2946C33.4249 79.9075 33.5262 79.8062 33.5262 79.6759V75.5067C33.5262 75.3764 33.4249 75.2751 33.2946 75.2751H29.4728ZM29.8203 77.3597V78.5178H30.9784V77.3597H29.8203ZM29.1254 77.3597C29.1254 76.9833 29.4439 76.6648 29.8203 76.6648H30.9784C31.3692 76.6648 31.6732 76.9833 31.6732 77.3597V78.5178C31.6732 78.9087 31.3692 79.2127 30.9784 79.2127H29.8203C29.4439 79.2127 29.1254 78.9087 29.1254 78.5178V77.3597Z" fill="#1C1C1C"/>
<path opacity="0.6" d="M40.7549 75.4985H39.5031V74.7738H41.529V80.728H40.7549V75.4985ZM47.1266 80.728H45.1583V74.7738H47.0937C48.8725 74.7738 50.0749 75.9762 50.0749 77.755C50.0749 79.5257 48.889 80.728 47.1266 80.728ZM47.036 75.515H45.9654V79.9786H47.0689C48.3949 79.9786 49.2349 79.1221 49.2349 77.755C49.2349 76.3715 48.3949 75.515 47.036 75.515ZM52.7076 80.8269C51.5217 80.8269 50.7064 79.9704 50.7064 78.7186C50.7064 77.4586 51.5052 76.5856 52.6746 76.5856C53.8194 76.5856 54.5688 77.3762 54.5688 78.5703V78.8586L51.4558 78.8668C51.5134 79.7151 51.9582 80.1845 52.7241 80.1845C53.3252 80.1845 53.7205 79.9374 53.8523 79.4762H54.577C54.3794 80.341 53.7041 80.8269 52.7076 80.8269ZM52.6746 77.2362C51.9993 77.2362 51.5711 77.6397 51.4723 78.348H53.7947C53.7947 77.6809 53.3582 77.2362 52.6746 77.2362ZM55.1699 78.7186C55.1699 77.4586 55.9688 76.5856 57.1464 76.5856C58.1594 76.5856 58.8676 77.1621 59.0076 78.0597H58.2335C58.1017 77.5491 57.69 77.2774 57.1711 77.2774C56.4382 77.2774 55.9358 77.8374 55.9358 78.7103C55.9358 79.5751 56.4052 80.1351 57.1382 80.1351C57.69 80.1351 58.1017 79.8468 58.2417 79.3692H59.0159C58.8594 80.2421 58.11 80.8269 57.1382 80.8269C55.9523 80.8269 55.1699 79.9868 55.1699 78.7186ZM60.833 80.4068C60.833 80.9998 60.3883 81.4939 59.8036 81.568V81.2222C60.1412 81.1645 60.3801 80.9421 60.3801 80.6869C60.3224 80.7198 60.2565 80.7363 60.1577 80.7363C59.8859 80.7363 59.6553 80.5386 59.6553 80.2339C59.6553 79.9045 59.8777 79.6657 60.2071 79.6657C60.553 79.6657 60.833 79.9539 60.833 80.4068ZM68.0374 80.7198L64.0185 80.728V80.1104L65.9374 78.455C66.9009 77.6233 67.1727 77.2197 67.1727 76.5856C67.1727 75.8362 66.7444 75.3915 66.028 75.3915C65.295 75.3915 64.8173 75.9268 64.8009 76.775H63.9938C64.0185 75.4985 64.8256 74.6667 66.0362 74.6667C67.2303 74.6667 67.9962 75.3915 67.9962 76.5362C67.9962 77.3844 67.5762 77.9856 66.5221 78.8998L65.2868 79.9704H68.0374V80.7198ZM68.7802 77.755C68.7802 75.9103 69.7355 74.6585 71.2344 74.6585C72.725 74.6585 73.6803 75.9103 73.6803 77.755C73.6803 79.608 72.7662 80.8351 71.2344 80.8351C69.6943 80.8351 68.7802 79.608 68.7802 77.755ZM69.579 77.755C69.579 79.2209 70.1885 80.1104 71.2344 80.1104C72.2803 80.1104 72.8815 79.2209 72.8815 77.755C72.8815 76.2727 72.2803 75.3832 71.2344 75.3832C70.1885 75.3832 69.579 76.2727 69.579 77.755ZM78.4845 80.7198L74.4656 80.728V80.1104L76.3845 78.455C77.348 77.6233 77.6198 77.2197 77.6198 76.5856C77.6198 75.8362 77.1915 75.3915 76.4751 75.3915C75.7421 75.3915 75.2645 75.9268 75.248 76.775H74.4409C74.4656 75.4985 75.2727 74.6667 76.4833 74.6667C77.6774 74.6667 78.4433 75.3915 78.4433 76.5362C78.4433 77.3844 78.0233 77.9856 76.9692 78.8998L75.7339 79.9704H78.4845V80.7198ZM81.1722 80.8269C79.9534 80.8269 79.1628 80.0527 79.1628 78.8668H79.9616C79.9616 79.6327 80.431 80.1021 81.1887 80.1021C81.9958 80.1021 82.5146 79.5668 82.5146 78.7598C82.5146 77.9939 82.0287 77.4256 81.1969 77.4256C80.6946 77.4256 80.2334 77.6644 79.9616 78.0021L79.2781 77.8292L80.0028 74.7738H82.984V75.515H80.5875L80.1922 77.0962C80.5052 76.8574 80.9005 76.7338 81.3452 76.7338C82.5558 76.7338 83.3381 77.5821 83.3381 78.7268C83.3381 79.9621 82.457 80.8269 81.1722 80.8269Z" fill="#1C1C1C"/>
<rect x="1.33203" y="97.4932" width="211.651" height="38.7066" rx="6.58835" fill="white"/>
<rect x="1.7438" y="97.9049" width="210.827" height="37.883" rx="6.17658" stroke="url(#paint3_linear_3361_22760)" stroke-opacity="0.7" stroke-width="0.823544"/>
<rect x="8.33169" y="104.493" width="9.05898" height="9.05898" rx="1.23532" fill="#23B100" stroke="url(#paint4_linear_3361_22760)" stroke-width="0.823544"/>
<g filter="url(#filter1_d_3361_22760)">
<path d="M14.8996 107.08C15.0347 107.187 15.0636 107.38 14.9671 107.515L12.4965 110.912C12.4386 110.979 12.3614 111.028 12.2745 111.037C12.178 111.047 12.0911 111.008 12.0236 110.95L10.7883 109.715C10.6725 109.59 10.6725 109.397 10.7883 109.271C10.9137 109.155 11.1067 109.155 11.2322 109.271L12.2069 110.256L14.4653 107.148C14.5714 107.013 14.7644 106.984 14.8996 107.08Z" fill="white"/>
</g>
<path d="M26.7783 112.523L26.2842 105.625H27.2527L27.4997 109.637L27.6084 111.406H27.6875L28.4682 107.295H29.5652L30.3459 111.406H30.425L30.5337 109.637L30.7906 105.625H31.7196L31.2254 112.523H29.7431L29.0414 108.53H28.9623L28.2607 112.523H26.7783ZM34.0875 112.523H32.9905V105.625H35.5699C36.2287 105.625 36.7294 105.809 37.072 106.178C37.4212 106.547 37.5958 107.055 37.5958 107.7C37.5958 108.227 37.4673 108.662 37.2104 109.005C36.9534 109.347 36.5845 109.558 36.1035 109.637L37.6946 112.523H36.4692L35.0066 109.736H34.0875V112.523ZM35.4118 108.847C36.097 108.847 36.4396 108.534 36.4396 107.908V107.483C36.4396 106.857 36.097 106.544 35.4118 106.544H34.0875V108.847H35.4118ZM39.0743 112.523V111.683H40.6951V106.465H39.0743V105.625H43.4226V106.465H41.8019V111.683H43.4226V112.523H39.0743ZM47.9252 106.554V112.523H46.8184V106.554H44.6541V105.625H50.0895V106.554H47.9252ZM51.3802 112.523V105.625H55.6989V106.554H52.4871V108.56H55.5803V109.489H52.4871V111.594H55.6989V112.523H51.3802ZM67.3427 112.523L66.8189 110.685H64.625L64.1012 112.523H62.9746L64.9906 105.625H66.5027L68.5187 112.523H67.3427ZM65.7615 106.742H65.6824L64.8325 109.766H66.6114L65.7615 106.742ZM77.7017 108.471C78.1431 108.471 78.4693 108.379 78.6801 108.194C78.8975 108.003 79.0062 107.766 79.0062 107.483V107.414C79.0062 107.097 78.9008 106.857 78.69 106.692C78.4857 106.521 78.209 106.435 77.8598 106.435C77.5238 106.435 77.2372 106.511 77.0001 106.663C76.7695 106.814 76.5751 107.022 76.417 107.285L75.6659 106.643C75.7713 106.491 75.8932 106.346 76.0316 106.208C76.1699 106.07 76.3281 105.951 76.5059 105.852C76.6838 105.747 76.8881 105.664 77.1187 105.605C77.3492 105.539 77.6095 105.506 77.8994 105.506C78.2222 105.506 78.522 105.546 78.7987 105.625C79.0754 105.704 79.3159 105.823 79.5201 105.981C79.7243 106.132 79.8825 106.32 79.9945 106.544C80.1065 106.761 80.1625 107.008 80.1625 107.285C80.1625 107.503 80.1262 107.7 80.0538 107.878C79.9879 108.056 79.8924 108.214 79.7672 108.353C79.6486 108.484 79.5069 108.593 79.3422 108.679C79.1775 108.764 79.0029 108.827 78.8185 108.866V108.916C79.0161 108.955 79.2039 109.021 79.3818 109.113C79.5596 109.199 79.7178 109.314 79.8561 109.459C79.9945 109.598 80.1032 109.766 80.1822 109.963C80.2613 110.154 80.3008 110.375 80.3008 110.626C80.3008 110.929 80.2415 111.205 80.1229 111.456C80.0044 111.699 79.8331 111.91 79.6091 112.088C79.3916 112.266 79.1281 112.404 78.8185 112.503C78.5088 112.595 78.1629 112.642 77.7808 112.642C77.458 112.642 77.1714 112.605 76.921 112.533C76.6772 112.467 76.4598 112.378 76.2688 112.266C76.0777 112.147 75.9097 112.016 75.7647 111.871C75.6264 111.719 75.5045 111.564 75.3991 111.406L76.2193 110.774C76.3906 111.05 76.5916 111.278 76.8222 111.456C77.0594 111.627 77.3822 111.713 77.7907 111.713C78.2255 111.713 78.5582 111.614 78.7888 111.416C79.0194 111.212 79.1347 110.932 79.1347 110.576V110.497C79.1347 110.141 79.0128 109.871 78.769 109.687C78.5319 109.496 78.186 109.4 77.7314 109.4H76.9902V108.471H77.7017ZM82.6194 110.052V108.975H85.6039V110.052H82.6194ZM90.1756 112.642C89.5761 112.642 89.0721 112.536 88.6636 112.325C88.2551 112.114 87.9191 111.834 87.6556 111.485L88.3671 110.803C88.6307 111.12 88.9107 111.354 89.2071 111.505C89.5036 111.65 89.8396 111.722 90.2152 111.722C90.65 111.722 90.9827 111.624 91.2133 111.426C91.4505 111.228 91.5691 110.945 91.5691 110.576C91.5691 110.28 91.4834 110.052 91.3121 109.894C91.1408 109.729 90.8476 109.611 90.4326 109.538L89.6815 109.42C89.3521 109.367 89.0754 109.281 88.8514 109.163C88.6274 109.038 88.4462 108.893 88.3078 108.728C88.1695 108.557 88.0674 108.369 88.0015 108.165C87.9422 107.954 87.9125 107.733 87.9125 107.503C87.9125 106.85 88.1234 106.356 88.545 106.02C88.9667 105.678 89.5464 105.506 90.2843 105.506C90.8312 105.506 91.2957 105.595 91.6778 105.773C92.0665 105.944 92.3794 106.188 92.6166 106.504L91.9248 107.196C91.7338 106.966 91.5065 106.781 91.2429 106.643C90.986 106.498 90.6665 106.425 90.2843 106.425C89.8759 106.425 89.5629 106.514 89.3455 106.692C89.1347 106.864 89.0293 107.117 89.0293 107.453C89.0293 107.737 89.1116 107.961 89.2763 108.125C89.4476 108.283 89.7474 108.399 90.1756 108.471L90.9069 108.6C91.5262 108.712 91.9775 108.939 92.2608 109.281C92.5441 109.617 92.6858 110.029 92.6858 110.517C92.6858 110.833 92.6298 111.123 92.5178 111.386C92.4124 111.65 92.251 111.874 92.0336 112.058C91.8227 112.243 91.5592 112.388 91.2429 112.493C90.9333 112.592 90.5775 112.642 90.1756 112.642ZM94.2434 112.523V105.625H98.562V106.554H95.3502V108.56H98.4435V109.489H95.3502V111.594H98.562V112.523H94.2434ZM101.286 107.216H101.197V112.523H100.228V105.625H101.651L103.677 110.932H103.766V105.625H104.735V112.523H103.312L101.286 107.216ZM109.158 106.554V112.523H108.051V106.554H105.887V105.625H111.323V106.554H109.158ZM112.613 112.523V105.625H116.932V106.554H113.72V108.56H116.813V109.489H113.72V111.594H116.932V112.523H112.613ZM119.656 107.216H119.567V112.523H118.598V105.625H120.021L122.047 110.932H122.136V105.625H123.105V112.523H121.682L119.656 107.216ZM127.172 112.642C126.296 112.642 125.644 112.332 125.216 111.713C124.794 111.093 124.583 110.214 124.583 109.074C124.583 107.934 124.794 107.055 125.216 106.435C125.644 105.816 126.296 105.506 127.172 105.506C127.508 105.506 127.798 105.552 128.042 105.645C128.292 105.73 128.507 105.852 128.684 106.01C128.862 106.162 129.011 106.343 129.129 106.554C129.254 106.758 129.356 106.979 129.436 107.216L128.437 107.552C128.385 107.394 128.325 107.246 128.259 107.107C128.194 106.969 128.111 106.85 128.012 106.752C127.914 106.653 127.795 106.574 127.657 106.514C127.525 106.455 127.36 106.425 127.163 106.425C126.675 106.425 126.319 106.613 126.095 106.989C125.871 107.358 125.759 107.858 125.759 108.491V109.657C125.759 110.289 125.871 110.794 126.095 111.169C126.319 111.538 126.675 111.722 127.163 111.722C127.36 111.722 127.525 111.693 127.657 111.634C127.795 111.574 127.914 111.495 128.012 111.396C128.111 111.298 128.194 111.179 128.259 111.041C128.325 110.902 128.385 110.754 128.437 110.596L129.436 110.932C129.356 111.169 129.254 111.393 129.129 111.604C129.011 111.808 128.862 111.989 128.684 112.147C128.507 112.299 128.292 112.421 128.042 112.513C127.798 112.599 127.508 112.642 127.172 112.642ZM130.983 112.523V105.625H135.302V106.554H132.09V108.56H135.183V109.489H132.09V111.594H135.302V112.523H130.983ZM144.307 112.523H143.21V105.625H145.789C146.448 105.625 146.949 105.809 147.292 106.178C147.641 106.547 147.815 107.055 147.815 107.7C147.815 108.227 147.687 108.662 147.43 109.005C147.173 109.347 146.804 109.558 146.323 109.637L147.914 112.523H146.689L145.226 109.736H144.307V112.523ZM145.631 108.847C146.316 108.847 146.659 108.534 146.659 107.908V107.483C146.659 106.857 146.316 106.544 145.631 106.544H144.307V108.847H145.631ZM149.353 112.523V105.625H153.672V106.554H150.46V108.56H153.553V109.489H150.46V111.594H153.672V112.523H149.353ZM155.476 112.523V105.625H159.914V106.554H156.583V108.56H159.607V109.489H156.583V112.523H155.476ZM161.817 112.523V105.625H162.924V111.594H166.067V112.523H161.817ZM167.723 112.523V105.625H172.042V106.554H168.83V108.56H171.923V109.489H168.83V111.594H172.042V112.523H167.723ZM176.159 112.642C175.283 112.642 174.63 112.332 174.202 111.713C173.78 111.093 173.57 110.214 173.57 109.074C173.57 107.934 173.78 107.055 174.202 106.435C174.63 105.816 175.283 105.506 176.159 105.506C176.495 105.506 176.785 105.552 177.029 105.645C177.279 105.73 177.493 105.852 177.671 106.01C177.849 106.162 177.997 106.343 178.116 106.554C178.241 106.758 178.343 106.979 178.422 107.216L177.424 107.552C177.371 107.394 177.312 107.246 177.246 107.107C177.18 106.969 177.098 106.85 176.999 106.752C176.9 106.653 176.781 106.574 176.643 106.514C176.511 106.455 176.347 106.425 176.149 106.425C175.661 106.425 175.306 106.613 175.082 106.989C174.858 107.358 174.746 107.858 174.746 108.491V109.657C174.746 110.289 174.858 110.794 175.082 111.169C175.306 111.538 175.661 111.722 176.149 111.722C176.347 111.722 176.511 111.693 176.643 111.634C176.781 111.574 176.9 111.495 176.999 111.396C177.098 111.298 177.18 111.179 177.246 111.041C177.312 110.902 177.371 110.754 177.424 110.596L178.422 110.932C178.343 111.169 178.241 111.393 178.116 111.604C177.997 111.808 177.849 111.989 177.671 112.147C177.493 112.299 177.279 112.421 177.029 112.513C176.785 112.599 176.495 112.642 176.159 112.642ZM182.638 106.554V112.523H181.531V106.554H179.367V105.625H184.802V106.554H182.638ZM186.034 112.523V111.683H187.654V106.465H186.034V105.625H190.382V106.465H188.761V111.683H190.382V112.523H186.034ZM194.331 112.642C193.896 112.642 193.517 112.562 193.195 112.404C192.878 112.24 192.615 112.006 192.404 111.703C192.2 111.4 192.048 111.027 191.949 110.586C191.851 110.145 191.801 109.641 191.801 109.074C191.801 108.514 191.851 108.013 191.949 107.572C192.048 107.124 192.2 106.748 192.404 106.445C192.615 106.142 192.878 105.912 193.195 105.753C193.517 105.589 193.896 105.506 194.331 105.506C194.766 105.506 195.142 105.589 195.458 105.753C195.781 105.912 196.044 106.142 196.248 106.445C196.459 106.748 196.614 107.124 196.713 107.572C196.812 108.013 196.861 108.514 196.861 109.074C196.861 109.641 196.812 110.145 196.713 110.586C196.614 111.027 196.459 111.4 196.248 111.703C196.044 112.006 195.781 112.24 195.458 112.404C195.142 112.562 194.766 112.642 194.331 112.642ZM194.331 111.722C194.825 111.722 195.174 111.538 195.379 111.169C195.583 110.794 195.685 110.286 195.685 109.647V108.491C195.685 107.858 195.583 107.358 195.379 106.989C195.174 106.613 194.825 106.425 194.331 106.425C193.837 106.425 193.488 106.613 193.284 106.989C193.079 107.358 192.977 107.858 192.977 108.491V109.657C192.977 110.289 193.079 110.794 193.284 111.169C193.488 111.538 193.837 111.722 194.331 111.722ZM199.259 107.216H199.17V112.523H198.201V105.625H199.624L201.65 110.932H201.739V105.625H202.708V112.523H201.285L199.259 107.216Z" fill="#1C1C1C"/>
<path opacity="0.4" d="M29.4728 120.597C29.661 120.597 29.8203 120.756 29.8203 120.944V121.523H32.1365V120.944C32.1365 120.756 32.2957 120.597 32.4839 120.597C32.6721 120.597 32.8313 120.756 32.8313 120.944V121.523H33.2946C33.8013 121.523 34.2211 121.943 34.2211 122.45V126.619C34.2211 127.125 33.8013 127.545 33.2946 127.545H28.6622C28.1555 127.545 27.7357 127.125 27.7357 126.619V122.45C27.7357 121.943 28.1555 121.523 28.6622 121.523H29.1254V120.944C29.1254 120.756 29.2846 120.597 29.4728 120.597ZM29.4728 122.218H28.6622C28.5319 122.218 28.4305 122.319 28.4305 122.45V126.619C28.4305 126.749 28.5319 126.85 28.6622 126.85H33.2946C33.4249 126.85 33.5262 126.749 33.5262 126.619V122.45C33.5262 122.319 33.4249 122.218 33.2946 122.218H29.4728ZM29.8203 124.303V125.461H30.9784V124.303H29.8203ZM29.1254 124.303C29.1254 123.926 29.4439 123.608 29.8203 123.608H30.9784C31.3692 123.608 31.6732 123.926 31.6732 124.303V125.461C31.6732 125.852 31.3692 126.156 30.9784 126.156H29.8203C29.4439 126.156 29.1254 125.852 29.1254 125.461V124.303Z" fill="#1C1C1C"/>
<path opacity="0.6" d="M40.7549 122.441H39.5031V121.716H41.529V127.67H40.7549V122.441ZM47.1266 127.67H45.1583V121.716H47.0937C48.8725 121.716 50.0749 122.919 50.0749 124.697C50.0749 126.468 48.889 127.67 47.1266 127.67ZM47.036 122.457H45.9654V126.921H47.0689C48.3949 126.921 49.2349 126.064 49.2349 124.697C49.2349 123.314 48.3949 122.457 47.036 122.457ZM52.7076 127.769C51.5217 127.769 50.7064 126.913 50.7064 125.661C50.7064 124.401 51.5052 123.528 52.6746 123.528C53.8194 123.528 54.5688 124.319 54.5688 125.513V125.801L51.4558 125.809C51.5134 126.657 51.9582 127.127 52.7241 127.127C53.3252 127.127 53.7205 126.88 53.8523 126.419H54.577C54.3794 127.283 53.7041 127.769 52.7076 127.769ZM52.6746 124.179C51.9993 124.179 51.5711 124.582 51.4723 125.29H53.7947C53.7947 124.623 53.3582 124.179 52.6746 124.179ZM55.1699 125.661C55.1699 124.401 55.9688 123.528 57.1464 123.528C58.1594 123.528 58.8676 124.104 59.0076 125.002H58.2335C58.1017 124.492 57.69 124.22 57.1711 124.22C56.4382 124.22 55.9358 124.78 55.9358 125.653C55.9358 126.517 56.4052 127.077 57.1382 127.077C57.69 127.077 58.1017 126.789 58.2417 126.312H59.0159C58.8594 127.185 58.11 127.769 57.1382 127.769C55.9523 127.769 55.1699 126.929 55.1699 125.661ZM60.833 127.349C60.833 127.942 60.3883 128.436 59.8036 128.51V128.165C60.1412 128.107 60.3801 127.885 60.3801 127.629C60.3224 127.662 60.2565 127.679 60.1577 127.679C59.8859 127.679 59.6553 127.481 59.6553 127.176C59.6553 126.847 59.8777 126.608 60.2071 126.608C60.553 126.608 60.833 126.896 60.833 127.349ZM68.0374 127.662L64.0185 127.67V127.053L65.9374 125.397C66.9009 124.566 67.1727 124.162 67.1727 123.528C67.1727 122.779 66.7444 122.334 66.028 122.334C65.295 122.334 64.8173 122.869 64.8009 123.717H63.9938C64.0185 122.441 64.8256 121.609 66.0362 121.609C67.2303 121.609 67.9962 122.334 67.9962 123.479C67.9962 124.327 67.5762 124.928 66.5221 125.842L65.2868 126.913H68.0374V127.662ZM68.7802 124.697C68.7802 122.853 69.7355 121.601 71.2344 121.601C72.725 121.601 73.6803 122.853 73.6803 124.697C73.6803 126.55 72.7662 127.777 71.2344 127.777C69.6943 127.777 68.7802 126.55 68.7802 124.697ZM69.579 124.697C69.579 126.163 70.1885 127.053 71.2344 127.053C72.2803 127.053 72.8815 126.163 72.8815 124.697C72.8815 123.215 72.2803 122.326 71.2344 122.326C70.1885 122.326 69.579 123.215 69.579 124.697ZM78.4845 127.662L74.4656 127.67V127.053L76.3845 125.397C77.348 124.566 77.6198 124.162 77.6198 123.528C77.6198 122.779 77.1915 122.334 76.4751 122.334C75.7421 122.334 75.2645 122.869 75.248 123.717H74.4409C74.4656 122.441 75.2727 121.609 76.4833 121.609C77.6774 121.609 78.4433 122.334 78.4433 123.479C78.4433 124.327 78.0233 124.928 76.9692 125.842L75.7339 126.913H78.4845V127.662ZM81.1722 127.769C79.9534 127.769 79.1628 126.995 79.1628 125.809H79.9616C79.9616 126.575 80.431 127.045 81.1887 127.045C81.9958 127.045 82.5146 126.509 82.5146 125.702C82.5146 124.936 82.0287 124.368 81.1969 124.368C80.6946 124.368 80.2334 124.607 79.9616 124.944L79.2781 124.772L80.0028 121.716H82.984V122.457H80.5875L80.1922 124.039C80.5052 123.8 80.9005 123.676 81.3452 123.676C82.5558 123.676 83.3381 124.524 83.3381 125.669C83.3381 126.905 82.457 127.769 81.1722 127.769Z" fill="#1C1C1C"/>
</g>
<rect x="0.880944" y="155.549" width="205.696" height="97.4348" rx="7.10835" stroke="url(#paint5_linear_3361_22760)" stroke-opacity="0.7" stroke-width="0.902174"/>
<path opacity="0.5" d="M15.6752 174.652L15.2518 173.166H13.4783L13.0549 174.652H12.1441L13.7738 169.076H14.9961L16.6258 174.652H15.6752ZM14.397 169.978H14.3331L13.646 172.423H15.084L14.397 169.978ZM19.5226 174.748C19.038 174.748 18.6305 174.663 18.3003 174.492C17.9701 174.322 17.6985 174.095 17.4855 173.813L18.0607 173.262C18.2737 173.517 18.5 173.707 18.7397 173.829C18.9794 173.946 19.251 174.005 19.5546 174.005C19.9061 174.005 20.175 173.925 20.3614 173.765C20.5531 173.605 20.649 173.376 20.649 173.078C20.649 172.838 20.5798 172.655 20.4413 172.527C20.3028 172.394 20.0658 172.298 19.7303 172.239L19.1232 172.143C18.8569 172.101 18.6332 172.032 18.4521 171.936C18.271 171.835 18.1246 171.717 18.0127 171.584C17.9009 171.446 17.8183 171.294 17.7651 171.129C17.7172 170.958 17.6932 170.78 17.6932 170.594C17.6932 170.066 17.8636 169.667 18.2045 169.395C18.5453 169.118 19.014 168.98 19.6105 168.98C20.0525 168.98 20.428 169.052 20.7369 169.196C21.0511 169.334 21.3041 169.531 21.4958 169.787L20.9366 170.346C20.7822 170.16 20.5984 170.01 20.3854 169.899C20.1777 169.781 19.9194 169.723 19.6105 169.723C19.2803 169.723 19.0273 169.795 18.8515 169.939C18.6811 170.077 18.5959 170.282 18.5959 170.554C18.5959 170.783 18.6625 170.964 18.7956 171.097C18.9341 171.225 19.1764 171.318 19.5226 171.376L20.1138 171.48C20.6144 171.571 20.9792 171.755 21.2082 172.032C21.4372 172.303 21.5517 172.636 21.5517 173.03C21.5517 173.286 21.5065 173.52 21.4159 173.733C21.3307 173.946 21.2002 174.127 21.0245 174.276C20.8541 174.426 20.641 174.543 20.3854 174.628C20.1351 174.708 19.8475 174.748 19.5226 174.748ZM24.5524 172.087L23.8813 172.926V174.652H22.9866V169.076H23.8813V171.744H23.9213L24.6003 170.817L25.9664 169.076H26.9969L25.1595 171.424L27.0688 174.652H26.0463L24.5524 172.087ZM36.2975 171.984L36.3215 170.306H36.2576L35.1392 173.174L34.0207 170.306H33.9568L33.9808 171.984V174.652H33.1899V169.076H34.2844L35.1392 171.289H35.1951L36.0579 169.076H37.0884V174.652H36.2975V171.984ZM38.6191 174.652V169.076H42.1102V169.827H39.5139V171.448H42.0143V172.199H39.5139V173.901H42.1102V174.652H38.6191ZM52.002 174.652L51.5786 173.166H49.8051L49.3817 174.652H48.471L50.1007 169.076H51.3229L52.9526 174.652H52.002ZM50.7238 169.978H50.6599L49.9728 172.423H51.4108L50.7238 169.978ZM54.9307 170.362H54.8588V174.652H54.0759V169.076H55.2263L56.864 173.366H56.9359V169.076H57.7188V174.652H56.5684L54.9307 170.362ZM60.6395 174.652V172.551L58.7861 169.076H59.7847L60.4957 170.466L61.0709 171.656H61.1188L61.702 170.466L62.413 169.076H63.3876L61.5343 172.551V174.652H60.6395ZM66.7238 169.827V174.652H65.8291V169.827H64.0795V169.076H68.4733V169.827H66.7238ZM72.3927 172.199H70.5393V174.652H69.6445V169.076H70.5393V171.448H72.3927V169.076H73.2874V174.652H72.3927V172.199ZM74.898 174.652V173.973H76.2082V169.755H74.898V169.076H78.413V169.755H77.1029V173.973H78.413V174.652H74.898ZM80.8784 170.362H80.8065V174.652H80.0236V169.076H81.174L82.8117 173.366H82.8836V169.076H83.6665V174.652H82.5161L80.8784 170.362ZM88.0731 173.885H88.0172C87.9693 173.997 87.9107 174.106 87.8415 174.212C87.7776 174.314 87.695 174.404 87.5938 174.484C87.498 174.564 87.3808 174.628 87.2423 174.676C87.1038 174.724 86.9441 174.748 86.763 174.748C86.1825 174.748 85.7458 174.5 85.4528 174.005C85.1599 173.509 85.0135 172.809 85.0135 171.904C85.0135 170.956 85.1812 170.231 85.5168 169.731C85.8523 169.23 86.3662 168.98 87.0586 168.98C87.3302 168.98 87.5672 169.017 87.7696 169.092C87.9773 169.166 88.153 169.267 88.2968 169.395C88.4406 169.518 88.5605 169.664 88.6563 169.835C88.7522 170 88.8294 170.176 88.888 170.362L88.0811 170.634C88.0385 170.511 87.9906 170.397 87.9373 170.29C87.8841 170.178 87.8175 170.08 87.7376 169.994C87.6631 169.909 87.5699 169.843 87.458 169.795C87.3515 169.747 87.221 169.723 87.0666 169.723C86.6778 169.723 86.3955 169.875 86.2198 170.178C86.0493 170.476 85.9641 170.881 85.9641 171.392V172.279C85.9641 172.535 85.9828 172.769 86.02 172.982C86.0573 173.195 86.1186 173.379 86.2038 173.533C86.2943 173.683 86.4088 173.8 86.5473 173.885C86.6911 173.97 86.8642 174.013 87.0666 174.013C87.3914 174.013 87.6391 173.917 87.8095 173.725C87.9853 173.528 88.0731 173.278 88.0731 172.974V172.471H86.9947V171.8H88.888V174.652H88.0731V173.885ZM92.2242 174.732C91.9685 174.732 91.7874 174.678 91.6809 174.572C91.5797 174.465 91.5291 174.335 91.5291 174.181V173.973C91.5291 173.818 91.5797 173.688 91.6809 173.581C91.7874 173.475 91.9685 173.422 92.2242 173.422C92.4798 173.422 92.6582 173.475 92.7594 173.581C92.8659 173.688 92.9192 173.818 92.9192 173.973V174.181C92.9192 174.335 92.8659 174.465 92.7594 174.572C92.6582 174.678 92.4798 174.732 92.2242 174.732ZM97.4137 174.732C97.1581 174.732 96.977 174.678 96.8705 174.572C96.7693 174.465 96.7187 174.335 96.7187 174.181V173.973C96.7187 173.818 96.7693 173.688 96.8705 173.581C96.977 173.475 97.1581 173.422 97.4137 173.422C97.6693 173.422 97.8477 173.475 97.9489 173.581C98.0554 173.688 98.1087 173.818 98.1087 173.973V174.181C98.1087 174.335 98.0554 174.465 97.9489 174.572C97.8477 174.678 97.6693 174.732 97.4137 174.732ZM102.603 174.732C102.348 174.732 102.167 174.678 102.06 174.572C101.959 174.465 101.908 174.335 101.908 174.181V173.973C101.908 173.818 101.959 173.688 102.06 173.581C102.167 173.475 102.348 173.422 102.603 173.422C102.859 173.422 103.037 173.475 103.138 173.581C103.245 173.688 103.298 173.818 103.298 173.973V174.181C103.298 174.335 103.245 174.465 103.138 174.572C103.037 174.678 102.859 174.732 102.603 174.732Z" fill="#1C1C1C"/>
<path opacity="0.1" d="M1.33203 224.572H206.126" stroke="#1C1C1C" stroke-width="0.665726"/>
<rect x="0.666305" y="225.238" width="177.692" height="27.9605" rx="7.32299" stroke="white" stroke-opacity="0.1" stroke-width="1.33145"/>
<path opacity="0.6" d="M15.495 235.431C16.3688 234.557 17.7887 234.557 18.6624 235.431C19.5362 236.305 19.5362 237.725 18.6624 238.598L16.1036 241.157C15.5731 241.703 14.6993 241.703 14.1688 241.157C13.6227 240.627 13.6227 239.753 14.1688 239.222L16.556 236.835C16.7433 236.648 17.0553 236.648 17.2582 236.835C17.4454 237.038 17.4454 237.35 17.2582 237.553L14.8709 239.925C14.7305 240.081 14.7305 240.315 14.8709 240.455C15.0113 240.611 15.261 240.611 15.4014 240.455L17.9603 237.896C18.444 237.413 18.444 236.617 17.9603 236.133C17.4766 235.649 16.6809 235.649 16.1972 236.133L13.6383 238.692C12.8113 239.519 12.8113 240.861 13.6383 241.688C14.4652 242.53 15.8071 242.53 16.6341 241.688L18.6624 239.659C18.8653 239.472 19.1773 239.472 19.3802 239.659C19.5674 239.862 19.5674 240.174 19.3802 240.377L17.3362 242.405C16.1192 243.623 14.1532 243.623 12.9362 242.405C11.7035 241.188 11.7035 239.207 12.9362 237.99L15.495 235.431Z" fill="#1C1C1C"/>
<path opacity="0.1" d="M25.3105 235.058V243.379" stroke="#1C1C1C" stroke-width="0.665726"/>
<path opacity="0.6" d="M34.7403 234.807L34.9743 235.384L35.5517 235.618C35.5985 235.634 35.6297 235.681 35.6297 235.727C35.6297 235.774 35.5985 235.821 35.5517 235.837L34.9743 236.071L34.7403 236.648C34.7247 236.695 34.6779 236.726 34.6311 236.726C34.5843 236.726 34.5375 236.695 34.5219 236.648L34.2878 236.071L33.7105 235.837C33.6637 235.821 33.6325 235.774 33.6325 235.727C33.6325 235.681 33.6637 235.634 33.7105 235.618L34.2878 235.384L34.5219 234.807C34.5375 234.76 34.5843 234.729 34.6311 234.729C34.6779 234.729 34.7247 234.76 34.7403 234.807ZM32.3686 235.883L32.6963 236.664L33.4765 236.991C33.5701 237.038 33.6325 237.132 33.6325 237.225C33.6325 237.319 33.5701 237.413 33.4765 237.459L32.6963 237.787L32.3686 238.567C32.3218 238.661 32.2282 238.723 32.1346 238.723C32.041 238.723 31.9474 238.661 31.9006 238.567L31.5729 237.787L30.7927 237.459C30.6991 237.413 30.6367 237.319 30.6367 237.225C30.6367 237.132 30.6991 237.038 30.7927 236.991L31.5729 236.664L31.9006 235.883C31.9474 235.79 32.041 235.727 32.1346 235.727C32.2282 235.727 32.3218 235.79 32.3686 235.883ZM37.8765 239.971C37.9701 239.971 38.0637 240.034 38.1105 240.127L38.4382 240.908L39.2183 241.235C39.312 241.282 39.3744 241.376 39.3744 241.469C39.3744 241.563 39.312 241.657 39.2183 241.703L38.4382 242.031L38.1105 242.811C38.0637 242.905 37.9701 242.967 37.8765 242.967C37.7829 242.967 37.6893 242.905 37.6424 242.811L37.3148 242.031L36.5346 241.703C36.441 241.657 36.3786 241.563 36.3786 241.469C36.3786 241.376 36.441 241.282 36.5346 241.235L37.3148 240.908L37.6424 240.127C37.6893 240.034 37.7829 239.971 37.8765 239.971ZM37.8141 235.228C37.9857 235.228 38.1573 235.291 38.2822 235.415L38.9375 236.086C39.0623 236.196 39.1247 236.367 39.1247 236.539C39.1247 236.71 39.0623 236.882 38.9375 237.007L37.5644 238.38L35.9729 236.788L37.3616 235.415C37.4708 235.291 37.6424 235.228 37.8141 235.228ZM31.3232 241.454L35.4424 237.319L37.0339 238.91L32.9148 243.03C32.7899 243.154 32.6183 243.217 32.4467 243.217C32.275 243.217 32.1034 243.154 31.9942 243.03L31.3232 242.374C31.1984 242.249 31.136 242.078 31.136 241.906C31.136 241.735 31.1984 241.563 31.3232 241.454Z" fill="#1C1C1C"/>
<path opacity="0.6" d="M144.387 235.727H149.38C149.926 235.727 150.379 236.18 150.379 236.726V241.719C150.379 242.265 149.926 242.718 149.38 242.718H144.387C143.841 242.718 143.389 242.265 143.389 241.719V236.726C143.389 236.18 143.841 235.727 144.387 235.727ZM145.386 236.976C144.965 236.976 144.637 237.303 144.637 237.725C144.637 238.146 144.965 238.474 145.386 238.474C145.807 238.474 146.135 238.146 146.135 237.725C146.135 237.303 145.807 236.976 145.386 236.976ZM147.633 238.723C147.508 238.723 147.383 238.801 147.321 238.91L146.353 240.471L145.948 239.878C145.87 239.784 145.76 239.722 145.635 239.722C145.511 239.722 145.401 239.784 145.323 239.878L144.45 241.126C144.372 241.251 144.372 241.391 144.434 241.516C144.496 241.641 144.621 241.719 144.762 241.719H149.006C149.146 241.719 149.271 241.641 149.333 241.532C149.396 241.407 149.396 241.266 149.333 241.157L147.96 238.91C147.882 238.786 147.758 238.723 147.633 238.723Z" fill="#1C1C1C"/>
<path opacity="0.1" d="M155.715 235.058V243.379" stroke="#1C1C1C" stroke-width="0.665726"/>
<path opacity="0.6" d="M164.037 235.228C164.864 235.228 165.535 235.899 165.535 236.726V238.723C165.535 239.55 164.864 240.221 164.037 240.221C163.21 240.221 162.539 239.55 162.539 238.723V236.726C162.539 235.899 163.21 235.228 164.037 235.228ZM161.79 238.099V238.723C161.79 239.971 162.804 240.97 164.037 240.97C165.285 240.97 166.284 239.971 166.284 238.723V238.099C166.284 237.896 166.455 237.725 166.658 237.725C166.861 237.725 167.033 237.896 167.033 238.099V238.723C167.033 240.252 165.894 241.516 164.411 241.703V242.468H165.16C165.363 242.468 165.535 242.64 165.535 242.842C165.535 243.045 165.363 243.217 165.16 243.217H162.913C162.711 243.217 162.539 243.045 162.539 242.842C162.539 242.64 162.711 242.468 162.913 242.468H163.662V241.703C162.18 241.516 161.041 240.252 161.041 238.723V238.099C161.041 237.896 161.213 237.725 161.415 237.725C161.618 237.725 161.79 237.896 161.79 238.099Z" fill="#1C1C1C"/>
<path d="M179.496 232.561C179.496 228.884 182.477 225.904 186.153 225.904H199.468C203.145 225.904 206.125 228.884 206.125 232.561V245.876C206.125 249.552 203.145 252.533 199.468 252.533H186.153C182.477 252.533 179.496 249.552 179.496 245.876V232.561Z" fill="#F7F6F5"/>
<path d="M199.468 225.238C203.512 225.238 206.791 228.517 206.791 232.561V245.875C206.791 249.92 203.512 253.199 199.468 253.199H186.153C182.109 253.199 178.83 249.92 178.83 245.875V232.561C178.83 228.517 182.109 225.238 186.153 225.238H199.468Z" stroke="white" stroke-opacity="0.1" stroke-width="1.33145"/>
<path d="M188.454 233.461L198.336 238.017C198.627 238.141 198.794 238.412 198.794 238.724C198.794 239.036 198.627 239.306 198.336 239.431L188.454 243.987C188.35 244.029 188.267 244.05 188.163 244.05C187.788 244.05 187.476 243.738 187.476 243.363C187.476 243.259 187.497 243.176 187.539 243.093L189.037 239.722C189.141 239.494 189.349 239.348 189.577 239.327L192.844 239.036C193.01 239.036 193.135 238.89 193.135 238.724C193.135 238.557 193.01 238.433 192.844 238.412L189.577 238.121C189.349 238.1 189.141 237.954 189.037 237.725L187.539 234.355C187.497 234.272 187.476 234.189 187.476 234.085C187.476 233.71 187.788 233.398 188.163 233.398C188.267 233.398 188.35 233.419 188.454 233.461Z" fill="url(#paint6_linear_3361_22760)"/>
<defs>
<filter id="filter0_d_3361_22760" x="9.84833" y="60.0415" width="6.03967" height="5.71008" filterUnits="userSpaceOnUse" color-interpolation-filters="sRGB">
<feFlood flood-opacity="0" result="BackgroundImageFix"/>
<feColorMatrix in="SourceAlpha" type="matrix" values="0 0 0 0 0 0 0 0 0 0 0 0 0 0 0 0 0 0 127 0" result="hardAlpha"/>
<feOffset dy="0.823544"/>
<feGaussianBlur stdDeviation="0.411772"/>
<feComposite in2="hardAlpha" operator="out"/>
<feColorMatrix type="matrix" values="0 0 0 0 0.0588235 0 0 0 0 0.615686 0 0 0 0 0 0 0 0 1 0"/>
<feBlend mode="normal" in2="BackgroundImageFix" result="effect1_dropShadow_3361_22760"/>
<feBlend mode="normal" in="SourceGraphic" in2="effect1_dropShadow_3361_22760" result="shape"/>
</filter>
<filter id="filter1_d_3361_22760" x="9.84833" y="106.984" width="6.03967" height="5.71008" filterUnits="userSpaceOnUse" color-interpolation-filters="sRGB">
<feFlood flood-opacity="0" result="BackgroundImageFix"/>
<feColorMatrix in="SourceAlpha" type="matrix" values="0 0 0 0 0 0 0 0 0 0 0 0 0 0 0 0 0 0 127 0" result="hardAlpha"/>
<feOffset dy="0.823544"/>
<feGaussianBlur stdDeviation="0.411772"/>
<feComposite in2="hardAlpha" operator="out"/>
<feColorMatrix type="matrix" values="0 0 0 0 0.0588235 0 0 0 0 0.615686 0 0 0 0 0 0 0 0 1 0"/>
<feBlend mode="normal" in2="BackgroundImageFix" result="effect1_dropShadow_3361_22760"/>
<feBlend mode="normal" in="SourceGraphic" in2="effect1_dropShadow_3361_22760" result="shape"/>
</filter>
<linearGradient id="paint0_linear_3361_22760" x1="125.832" y1="0" x2="125.832" y2="136" gradientUnits="userSpaceOnUse">
<stop stop-color="#D9D9D9" stop-opacity="0"/>
<stop offset="0.25" stop-color="#737373" stop-opacity="0.8"/>
<stop offset="0.5" stop-color="#737373"/>
<stop offset="0.75" stop-color="#737373" stop-opacity="0.8"/>
<stop offset="0.980769" stop-color="#737373" stop-opacity="0"/>
</linearGradient>
<linearGradient id="paint1_linear_3361_22760" x1="1.33203" y1="69.9041" x2="212.983" y2="69.9041" gradientUnits="userSpaceOnUse">
<stop stop-color="#526649"/>
<stop offset="1" stop-color="#C2C39B" stop-opacity="0"/>
</linearGradient>
<linearGradient id="paint2_linear_3361_22760" x1="12.8612" y1="57.1392" x2="12.8612" y2="67.0217" gradientUnits="userSpaceOnUse">
<stop stop-color="#4BD928"/>
<stop offset="1" stop-color="#23B100"/>
</linearGradient>
<linearGradient id="paint3_linear_3361_22760" x1="1.33203" y1="116.846" x2="212.983" y2="116.846" gradientUnits="userSpaceOnUse">
<stop stop-color="#526649"/>
<stop offset="1" stop-color="#C2C39B" stop-opacity="0"/>
</linearGradient>
<linearGradient id="paint4_linear_3361_22760" x1="12.8612" y1="104.082" x2="12.8612" y2="113.964" gradientUnits="userSpaceOnUse">
<stop stop-color="#4BD928"/>
<stop offset="1" stop-color="#23B100"/>
</linearGradient>
<linearGradient id="paint5_linear_3361_22760" x1="206.126" y1="204.266" x2="1.33203" y2="204.266" gradientUnits="userSpaceOnUse">
<stop stop-color="#C2C39B" stop-opacity="0"/>
<stop offset="1" stop-color="#526649"/>
</linearGradient>
<linearGradient id="paint6_linear_3361_22760" x1="186.224" y1="235.388" x2="199.325" y2="236.608" gradientUnits="userSpaceOnUse">
<stop stop-color="#526649"/>
<stop offset="1" stop-color="#C2C39B"/>
</linearGradient>
</defs>
</svg>
