<svg width="17" height="15" viewBox="0 0 17 15" fill="none" xmlns="http://www.w3.org/2000/svg">
<path d="M5.71484 0C7.51953 0 8.99609 1.47656 8.99609 3.28125C8.99609 5.08594 7.51953 6.5625 5.71484 6.5625C3.88281 6.5625 2.43359 5.08594 2.43359 3.28125C2.43359 1.47656 3.88281 0 5.71484 0ZM4.89453 8.09375H6.50781H6.5625C6.20703 8.83203 6.34375 9.67969 6.86328 10.2812C6.31641 10.8828 6.17969 11.7852 6.61719 12.5508L7.21875 13.6445C7.24609 13.6992 7.27344 13.7539 7.30078 13.7812H0.820312C0.382812 13.7812 0 13.4258 0 12.9609C0 10.2812 2.1875 8.09375 4.89453 8.09375ZM10.5273 6.5625C10.5273 6.17969 10.8008 5.90625 11.1836 5.90625H12.4961C12.8516 5.90625 13.1523 6.17969 13.1523 6.5625V6.72656C13.1523 7.24609 13.8086 7.62891 14.2461 7.35547L14.3828 7.27344C14.7109 7.10938 15.1211 7.21875 15.2852 7.51953L15.9141 8.64062C16.0781 8.94141 15.9688 9.32422 15.668 9.51562L15.5586 9.57031C15.0938 9.87109 15.0938 10.6641 15.5586 10.9648L15.668 11.0195C15.9688 11.2109 16.0781 11.5938 15.9141 11.8945L15.2852 13.0156C15.1211 13.3438 14.7109 13.4531 14.3828 13.2617L14.2461 13.1797C13.8086 12.9336 13.1523 13.3164 13.1523 13.8086V14C13.1523 14.3555 12.8516 14.6562 12.4961 14.6562H11.1836C10.8008 14.6562 10.5273 14.3555 10.5273 14V13.8359C10.5273 13.3164 9.84375 12.9336 9.40625 13.1797L9.26953 13.2617C8.96875 13.4531 8.55859 13.3438 8.36719 13.0156L7.76562 11.8945C7.57422 11.5938 7.68359 11.2109 7.98438 11.0195L8.09375 10.9648C8.55859 10.6914 8.55859 9.87109 8.09375 9.57031L7.98438 9.51562C7.68359 9.32422 7.57422 8.94141 7.73828 8.64062L8.36719 7.51953C8.53125 7.21875 8.94141 7.08203 9.26953 7.27344L9.40625 7.35547C9.84375 7.60156 10.5 7.21875 10.5 6.69922V6.5625H10.5273ZM13.2617 10.2812C13.2617 9.48828 12.6055 8.85938 11.8398 8.85938C11.0469 8.85938 10.418 9.48828 10.418 10.2812C10.418 11.0742 11.0469 11.7031 11.8398 11.7031C12.6055 11.7031 13.2617 11.0742 13.2617 10.2812Z" fill="url(#paint0_linear_3361_23020)"/>
<path d="M5.71484 0C7.51953 0 8.99609 1.47656 8.99609 3.28125C8.99609 5.08594 7.51953 6.5625 5.71484 6.5625C3.88281 6.5625 2.43359 5.08594 2.43359 3.28125C2.43359 1.47656 3.88281 0 5.71484 0ZM4.89453 8.09375H6.50781H6.5625C6.20703 8.83203 6.34375 9.67969 6.86328 10.2812C6.31641 10.8828 6.17969 11.7852 6.61719 12.5508L7.21875 13.6445C7.24609 13.6992 7.27344 13.7539 7.30078 13.7812H0.820312C0.382812 13.7812 0 13.4258 0 12.9609C0 10.2812 2.1875 8.09375 4.89453 8.09375ZM10.5273 6.5625C10.5273 6.17969 10.8008 5.90625 11.1836 5.90625H12.4961C12.8516 5.90625 13.1523 6.17969 13.1523 6.5625V6.72656C13.1523 7.24609 13.8086 7.62891 14.2461 7.35547L14.3828 7.27344C14.7109 7.10938 15.1211 7.21875 15.2852 7.51953L15.9141 8.64062C16.0781 8.94141 15.9688 9.32422 15.668 9.51562L15.5586 9.57031C15.0938 9.87109 15.0938 10.6641 15.5586 10.9648L15.668 11.0195C15.9688 11.2109 16.0781 11.5938 15.9141 11.8945L15.2852 13.0156C15.1211 13.3438 14.7109 13.4531 14.3828 13.2617L14.2461 13.1797C13.8086 12.9336 13.1523 13.3164 13.1523 13.8086V14C13.1523 14.3555 12.8516 14.6562 12.4961 14.6562H11.1836C10.8008 14.6562 10.5273 14.3555 10.5273 14V13.8359C10.5273 13.3164 9.84375 12.9336 9.40625 13.1797L9.26953 13.2617C8.96875 13.4531 8.55859 13.3438 8.36719 13.0156L7.76562 11.8945C7.57422 11.5938 7.68359 11.2109 7.98438 11.0195L8.09375 10.9648C8.55859 10.6914 8.55859 9.87109 8.09375 9.57031L7.98438 9.51562C7.68359 9.32422 7.57422 8.94141 7.73828 8.64062L8.36719 7.51953C8.53125 7.21875 8.94141 7.08203 9.26953 7.27344L9.40625 7.35547C9.84375 7.60156 10.5 7.21875 10.5 6.69922V6.5625H10.5273ZM13.2617 10.2812C13.2617 9.48828 12.6055 8.85938 11.8398 8.85938C11.0469 8.85938 10.418 9.48828 10.418 10.2812C10.418 11.0742 11.0469 11.7031 11.8398 11.7031C12.6055 11.7031 13.2617 11.0742 13.2617 10.2812Z" fill="#1C1C1C"/>
<defs>
<linearGradient id="paint0_linear_3361_23020" x1="-12.875" y1="-1.71875" x2="19.9375" y2="17.0313" gradientUnits="userSpaceOnUse">
<stop stop-color="#FF6502"/>
<stop offset="1" stop-color="#F581FB"/>
</linearGradient>
</defs>
</svg>
