<svg width="10" height="7" viewBox="0 0 10 7" fill="none" xmlns="http://www.w3.org/2000/svg">
<path d="M1.13164 0.565213C1.13164 0.247098 1.37906 -0.000325203 1.69718 -0.000325203H4.52487C4.84299 -0.000325203 5.09041 0.247098 5.09041 0.565213V5.65506H6.78702V3.3929C6.78702 3.07479 7.03445 2.82737 7.35256 2.82737H8.48364C8.80175 2.82737 9.04918 3.07479 9.04918 3.3929C9.04918 3.71102 8.80175 3.95844 8.48364 3.95844H7.9181V6.22059C7.9181 6.53871 7.67068 6.78613 7.35256 6.78613H4.52487C4.20675 6.78613 3.95933 6.53871 3.95933 6.22059V1.13075H2.26272V3.3929C2.26272 3.71102 2.01529 3.95844 1.69718 3.95844H0.566103C0.247988 3.95844 0.000564575 3.71102 0.000564575 3.3929C0.000564575 3.07479 0.247988 2.82737 0.566103 2.82737H1.13164V0.565213Z" fill="url(#paint0_linear_3361_23606)"/>
<path d="M1.13164 0.565213C1.13164 0.247098 1.37906 -0.000325203 1.69718 -0.000325203H4.52487C4.84299 -0.000325203 5.09041 0.247098 5.09041 0.565213V5.65506H6.78702V3.3929C6.78702 3.07479 7.03445 2.82737 7.35256 2.82737H8.48364C8.80175 2.82737 9.04918 3.07479 9.04918 3.3929C9.04918 3.71102 8.80175 3.95844 8.48364 3.95844H7.9181V6.22059C7.9181 6.53871 7.67068 6.78613 7.35256 6.78613H4.52487C4.20675 6.78613 3.95933 6.53871 3.95933 6.22059V1.13075H2.26272V3.3929C2.26272 3.71102 2.01529 3.95844 1.69718 3.95844H0.566103C0.247988 3.95844 0.000564575 3.71102 0.000564575 3.3929C0.000564575 3.07479 0.247988 2.82737 0.566103 2.82737H1.13164V0.565213Z" fill="white"/>
<defs>
<linearGradient id="paint0_linear_3361_23606" x1="-6.50312" y1="-1.53522" x2="11.3113" y2="8.64447" gradientUnits="userSpaceOnUse">
<stop stop-color="#FF6502"/>
<stop offset="1" stop-color="#F581FB"/>
</linearGradient>
</defs>
</svg>
