<svg width="274" height="187" viewBox="0 0 274 187" fill="none" xmlns="http://www.w3.org/2000/svg">
<mask id="mask0_3361_22828" style="mask-type:alpha" maskUnits="userSpaceOnUse" x="0" y="0" width="274" height="187">
<rect width="274" height="187" fill="url(#paint0_linear_3361_22828)"/>
</mask>
<g mask="url(#mask0_3361_22828)">
<path d="M24.0547 11.2655C24.0547 5.04374 29.0984 0 35.3202 0H363.736C369.957 0 375.001 5.04374 375.001 11.2655V26.1328C375.001 32.3545 369.957 37.3983 363.736 37.3983H35.3202C29.0984 37.3983 24.0547 32.3545 24.0547 26.1328V11.2655Z" fill="white"/>
<path d="M35.3203 0.704102H363.735C369.568 0.704102 374.297 5.43272 374.297 11.2656V26.1328C374.297 31.9657 369.568 36.6943 363.735 36.6943H35.3203C29.4874 36.6943 24.7588 31.9657 24.7588 26.1328V11.2656C24.7588 5.43272 29.4874 0.704102 35.3203 0.704102Z" stroke="#1C1C1C" stroke-opacity="0.1" stroke-width="1.40819"/>
<path opacity="0.4" d="M41.8212 9.96161C42.1773 9.96161 42.4786 10.2629 42.4786 10.619V11.7146H46.8612V10.619C46.8612 10.2629 47.1625 9.96161 47.5186 9.96161C47.8747 9.96161 48.176 10.2629 48.176 10.619V11.7146H49.0525C50.0112 11.7146 50.8055 12.509 50.8055 13.4677V21.3564C50.8055 22.3151 50.0112 23.1094 49.0525 23.1094H40.2873C39.3286 23.1094 38.5342 22.3151 38.5342 21.3564V13.4677C38.5342 12.509 39.3286 11.7146 40.2873 11.7146H41.1638V10.619C41.1638 10.2629 41.4651 9.96161 41.8212 9.96161ZM41.8212 13.0294H40.2873C40.0407 13.0294 39.849 13.2212 39.849 13.4677V14.7825H49.4907V13.4677C49.4907 13.2212 49.299 13.0294 49.0525 13.0294H41.8212ZM39.849 16.0973V21.3564C39.849 21.6029 40.0407 21.7946 40.2873 21.7946H49.0525C49.299 21.7946 49.4907 21.6029 49.4907 21.3564V16.0973H39.849Z" fill="#1C1C1C"/>
<path d="M64.9288 23.6992L64.2276 13.9102H65.6019L65.9526 19.6041L66.1068 22.1145H66.219L67.3269 16.2803H68.8836L69.9916 22.1145H70.1038L70.258 19.6041L70.6227 13.9102H71.941L71.2397 23.6992H69.1361L68.1404 18.0334H68.0282L67.0324 23.6992H64.9288ZM73.4922 23.6992V13.9102H79.6208V15.2285H75.0629V18.0755H79.4525V19.3937H75.0629V22.3809H79.6208V23.6992H73.4922ZM81.9013 23.6992V13.9102H88.0299V15.2285H83.472V18.0755H87.8617V19.3937H83.472V22.3809H88.0299V23.6992H81.9013ZM92.947 19.1974L91.769 20.67V23.6992H90.1982V13.9102H91.769V18.5944H91.8391L93.0312 16.9675L95.4293 13.9102H97.2385L94.0129 18.0334L97.3647 23.6992H95.5696L92.947 19.1974ZM107.157 23.6992V22.395H109.906V15.0602H109.793L107.521 17.4864L106.554 16.6169L109.05 13.9102H111.476V22.395H113.846V23.6992H107.157Z" fill="#1C1C1C"/>
<path opacity="0.7" d="M128.311 19.5761L124.875 13.5596H126.417L128.675 17.6127C128.815 17.8511 128.9 18.0474 129.012 18.2858C129.138 18.0334 129.166 17.9492 129.348 17.6127L131.592 13.5596H133.093L129.685 19.5761V23.6992H128.311V19.5761ZM132.361 20.2633C132.361 18.1456 133.876 16.659 135.937 16.659C137.985 16.659 139.499 18.1456 139.499 20.2633C139.499 22.3809 137.985 23.8675 135.937 23.8675C133.876 23.8675 132.361 22.3809 132.361 20.2633ZM133.693 20.2633C133.693 21.6937 134.605 22.6895 135.937 22.6895C137.255 22.6895 138.181 21.6937 138.181 20.2633C138.181 18.8328 137.255 17.837 135.937 17.837C134.605 17.837 133.693 18.8328 133.693 20.2633ZM145.535 16.8413H146.839V23.6992H145.661L145.521 22.6614C145.128 23.3767 144.216 23.8675 143.207 23.8675C141.608 23.8675 140.71 22.7876 140.71 21.1047V16.8413H142.028V20.67C142.028 22.1425 142.66 22.7035 143.669 22.7035C144.875 22.7035 145.535 21.9322 145.535 20.4596V16.8413ZM152.025 21.7078H153.288C153.288 22.409 153.82 22.8297 154.69 22.8297C155.616 22.8297 156.148 22.4511 156.148 21.82C156.148 21.3572 155.924 21.0767 155.209 20.8943L154.003 20.6139C152.783 20.3194 152.208 19.7163 152.208 18.7066C152.208 17.4444 153.273 16.645 154.788 16.645C156.289 16.645 157.27 17.4864 157.298 18.7907H156.036C156.008 18.1035 155.545 17.6687 154.746 17.6687C153.919 17.6687 153.456 18.0334 153.456 18.6645C153.456 19.1273 153.792 19.4358 154.466 19.6041L155.672 19.8986C156.836 20.1791 157.411 20.712 157.411 21.7358C157.411 23.0401 156.289 23.8675 154.662 23.8675C153.049 23.8675 152.025 23.012 152.025 21.7078ZM160.808 23.6992H159.49V17.9492H158.143V16.8413H159.49V14.6956H160.808V16.8413H162.154V17.9492H160.808V23.6992ZM165.261 23.8675C163.788 23.8675 162.919 23.0401 162.919 21.7919C162.919 20.5297 163.858 19.7444 165.471 19.6181L167.631 19.4498V19.2535C167.631 18.1035 166.944 17.6968 166.018 17.6968C164.91 17.6968 164.279 18.1877 164.279 19.0151H163.129C163.129 17.5846 164.307 16.645 166.074 16.645C167.771 16.645 168.921 17.5425 168.921 19.3937V23.6992H167.799L167.659 22.5913C167.308 23.3767 166.369 23.8675 165.261 23.8675ZM165.639 22.8437C166.888 22.8437 167.645 22.0303 167.645 20.7401V20.3754L165.892 20.5157C164.728 20.6279 164.251 21.0767 164.251 21.7498C164.251 22.4791 164.784 22.8437 165.639 22.8437ZM174.674 16.7852V17.9913H174.085C172.836 17.9913 172.065 18.7486 172.065 20.0669V23.6992H170.747V16.8553H171.981L172.065 17.8931C172.345 17.1779 173.033 16.7011 173.972 16.7011C174.211 16.7011 174.407 16.7291 174.674 16.7852ZM178.119 23.6992H176.801V17.9492H175.455V16.8413H176.801V14.6956H178.119V16.8413H179.466V17.9492H178.119V23.6992ZM183.539 23.8675C181.52 23.8675 180.131 22.409 180.131 20.2773C180.131 18.1316 181.492 16.645 183.483 16.645C185.433 16.645 186.709 17.9913 186.709 20.0248V20.5157L181.408 20.5297C181.506 21.9742 182.263 22.7736 183.567 22.7736C184.591 22.7736 185.264 22.3529 185.489 21.5675H186.723C186.386 23.0401 185.236 23.8675 183.539 23.8675ZM183.483 17.7529C182.333 17.7529 181.604 18.4401 181.436 19.6462H185.391C185.391 18.5102 184.647 17.7529 183.483 17.7529ZM190.93 23.8675C188.939 23.8675 187.733 22.3809 187.733 20.2913C187.733 18.1877 188.953 16.645 190.986 16.645C192.038 16.645 192.922 17.1078 193.384 17.9492V13.3773H194.689V23.6992H193.511L193.398 22.4511C192.95 23.3907 192.024 23.8675 190.93 23.8675ZM191.197 22.6754C192.543 22.6754 193.37 21.6797 193.37 20.2492C193.37 18.8468 192.543 17.837 191.197 17.837C189.85 17.837 189.065 18.8468 189.065 20.2492C189.065 21.6657 189.85 22.6754 191.197 22.6754ZM202.361 23.6992H201.042V17.9492H199.696V16.8413H201.042V14.6956H202.361V16.8413H203.707V17.9492H202.361V23.6992ZM206.208 23.6852H204.89V13.3773H206.208V17.8931C206.643 17.1498 207.47 16.645 208.536 16.645C210.289 16.645 211.131 17.7529 211.131 19.5059V23.6992H209.813V19.8004C209.813 18.412 209.153 17.8511 208.172 17.8511C206.895 17.8511 206.208 18.7767 206.208 19.9547V23.6852ZM215.916 23.8675C213.896 23.8675 212.508 22.409 212.508 20.2773C212.508 18.1316 213.868 16.645 215.86 16.645C217.809 16.645 219.085 17.9913 219.085 20.0248V20.5157L213.784 20.5297C213.882 21.9742 214.64 22.7736 215.944 22.7736C216.968 22.7736 217.641 22.3529 217.865 21.5675H219.099C218.763 23.0401 217.613 23.8675 215.916 23.8675ZM215.86 17.7529C214.71 17.7529 213.981 18.4401 213.812 19.6462H217.767C217.767 18.5102 217.024 17.7529 215.86 17.7529ZM225.711 23.6992H224.393V16.8413H225.571L225.697 17.7389C226.047 17.0938 226.777 16.645 227.744 16.645C228.81 16.645 229.568 17.1779 229.918 18.0334C230.241 17.1779 231.068 16.645 232.134 16.645C233.705 16.645 234.658 17.6267 234.658 19.2114V23.6992H233.368V19.534C233.368 18.4541 232.765 17.837 231.84 17.837C230.844 17.837 230.185 18.5383 230.185 19.6322V23.6992H228.88V19.52C228.88 18.4401 228.291 17.8511 227.366 17.8511C226.37 17.8511 225.711 18.5383 225.711 19.6322V23.6992ZM236.037 20.2633C236.037 18.1456 237.552 16.659 239.613 16.659C241.661 16.659 243.175 18.1456 243.175 20.2633C243.175 22.3809 241.661 23.8675 239.613 23.8675C237.552 23.8675 236.037 22.3809 236.037 20.2633ZM237.369 20.2633C237.369 21.6937 238.281 22.6895 239.613 22.6895C240.932 22.6895 241.857 21.6937 241.857 20.2633C241.857 18.8328 240.932 17.837 239.613 17.837C238.281 17.837 237.369 18.8328 237.369 20.2633ZM245.953 23.6992H244.635V16.8413H245.827L245.967 17.8931C246.402 17.1078 247.271 16.645 248.239 16.645C250.048 16.645 250.876 17.7529 250.876 19.5059V23.6992H249.557V19.8004C249.557 18.412 248.912 17.8511 247.902 17.8511C246.668 17.8511 245.953 18.7346 245.953 20.0669V23.6992ZM254.637 23.6992H253.319V17.9492H251.972V16.8413H253.319V14.6956H254.637V16.8413H255.983V17.9492H254.637V23.6992ZM258.485 23.6852H257.166V13.3773H258.485V17.8931C258.919 17.1498 259.747 16.645 260.813 16.645C262.566 16.645 263.407 17.7529 263.407 19.5059V23.6992H262.089V19.8004C262.089 18.412 261.43 17.8511 260.448 17.8511C259.172 17.8511 258.485 18.7767 258.485 19.9547V23.6852ZM268.339 16.8413H269.348V15.7474C269.348 14.0645 270.274 13.3773 271.522 13.3773C271.775 13.3773 272.069 13.3913 272.335 13.4334V14.5694H271.746C270.891 14.5694 270.667 15.0041 270.667 15.7474V16.8413H272.293V17.9492H270.667V23.6992H269.348V17.9492H268.339V16.8413ZM276.273 23.8675C274.253 23.8675 272.865 22.409 272.865 20.2773C272.865 18.1316 274.225 16.645 276.216 16.645C278.166 16.645 279.442 17.9913 279.442 20.0248V20.5157L274.141 20.5297C274.239 21.9742 274.996 22.7736 276.301 22.7736C277.324 22.7736 277.998 22.3529 278.222 21.5675H279.456C279.12 23.0401 277.97 23.8675 276.273 23.8675ZM276.216 17.7529C275.067 17.7529 274.337 18.4401 274.169 19.6462H278.124C278.124 18.5102 277.381 17.7529 276.216 17.7529ZM283.874 23.8675C281.854 23.8675 280.466 22.409 280.466 20.2773C280.466 18.1316 281.826 16.645 283.818 16.645C285.767 16.645 287.043 17.9913 287.043 20.0248V20.5157L281.742 20.5297C281.84 21.9742 282.597 22.7736 283.902 22.7736C284.926 22.7736 285.599 22.3529 285.823 21.5675H287.057C286.721 23.0401 285.571 23.8675 283.874 23.8675ZM283.818 17.7529C282.668 17.7529 281.938 18.4401 281.77 19.6462H285.725C285.725 18.5102 284.982 17.7529 283.818 17.7529ZM289.862 23.6992H288.544V13.3773H289.862V23.6992ZM292.448 15.2145C291.971 15.2145 291.578 14.8218 291.578 14.345C291.578 13.8541 291.971 13.4755 292.448 13.4755C292.925 13.4755 293.317 13.8541 293.317 14.345C293.317 14.8218 292.925 15.2145 292.448 15.2145ZM291.803 23.6992V16.8413H293.121V23.6992H291.803ZM296.353 23.6992H295.035V16.8413H296.227L296.367 17.8931C296.802 17.1078 297.671 16.645 298.639 16.645C300.448 16.645 301.276 17.7529 301.276 19.5059V23.6992H299.957V19.8004C299.957 18.412 299.312 17.8511 298.302 17.8511C297.068 17.8511 296.353 18.7346 296.353 20.0669V23.6992ZM302.667 20.095C302.667 18.1596 303.915 16.645 305.906 16.645C307.014 16.645 307.87 17.1498 308.305 18.0053L308.403 16.8413H309.581V23.4187C309.581 25.5785 308.248 26.9529 306.145 26.9529C304.28 26.9529 303.003 25.901 302.751 24.162H304.069C304.237 25.1718 304.995 25.7608 306.145 25.7608C307.435 25.7608 308.276 24.9193 308.276 23.6151V22.2407C307.828 23.0401 306.93 23.5169 305.85 23.5169C303.901 23.5169 302.667 22.0163 302.667 20.095ZM303.985 20.0669C303.985 21.3572 304.784 22.3669 306.075 22.3669C307.407 22.3669 308.22 21.4133 308.22 20.0669C308.22 18.7486 307.435 17.795 306.089 17.795C304.77 17.795 303.985 18.8047 303.985 20.0669ZM316.636 23.6992H315.318V16.8413H316.496L316.622 17.7389C316.973 17.0938 317.702 16.645 318.67 16.645C319.736 16.645 320.493 17.1779 320.844 18.0334C321.166 17.1779 321.994 16.645 323.059 16.645C324.63 16.645 325.584 17.6267 325.584 19.2114V23.6992H324.294V19.534C324.294 18.4541 323.691 17.837 322.765 17.837C321.769 17.837 321.11 18.5383 321.11 19.6322V23.6992H319.806V19.52C319.806 18.4401 319.217 17.8511 318.291 17.8511C317.295 17.8511 316.636 18.5383 316.636 19.6322V23.6992ZM330.37 23.8675C328.351 23.8675 326.963 22.409 326.963 20.2773C326.963 18.1316 328.323 16.645 330.314 16.645C332.264 16.645 333.54 17.9913 333.54 20.0248V20.5157L328.239 20.5297C328.337 21.9742 329.094 22.7736 330.398 22.7736C331.422 22.7736 332.095 22.3529 332.32 21.5675H333.554C333.217 23.0401 332.067 23.8675 330.37 23.8675ZM330.314 17.7529C329.164 17.7529 328.435 18.4401 328.267 19.6462H332.222C332.222 18.5102 331.478 17.7529 330.314 17.7529ZM336.331 23.6992H335.012V16.8413H336.204L336.345 17.8931C336.779 17.1078 337.649 16.645 338.617 16.645C340.426 16.645 341.253 17.7529 341.253 19.5059V23.6992H339.935V19.8004C339.935 18.412 339.29 17.8511 338.28 17.8511C337.046 17.8511 336.331 18.7346 336.331 20.0669V23.6992ZM345.014 23.6992H343.696V17.9492H342.35V16.8413H343.696V14.6956H345.014V16.8413H346.361V17.9492H345.014V23.6992ZM349.467 23.8675C347.995 23.8675 347.125 23.0401 347.125 21.7919C347.125 20.5297 348.065 19.7444 349.678 19.6181L351.837 19.4498V19.2535C351.837 18.1035 351.15 17.6968 350.225 17.6968C349.117 17.6968 348.485 18.1877 348.485 19.0151H347.335C347.335 17.5846 348.514 16.645 350.281 16.645C351.978 16.645 353.128 17.5425 353.128 19.3937V23.6992H352.006L351.865 22.5913C351.515 23.3767 350.575 23.8675 349.467 23.8675ZM349.846 22.8437C351.094 22.8437 351.851 22.0303 351.851 20.7401V20.3754L350.098 20.5157C348.934 20.6279 348.457 21.0767 348.457 21.7498C348.457 22.4791 348.99 22.8437 349.846 22.8437ZM355.935 23.8675C355.388 23.8675 354.925 23.4187 354.925 22.8858C354.925 22.3389 355.388 21.8901 355.935 21.8901C356.468 21.8901 356.931 22.3389 356.931 22.8858C356.931 23.4187 356.468 23.8675 355.935 23.8675ZM359.175 23.8675C358.614 23.8675 358.165 23.4187 358.165 22.8858C358.165 22.3389 358.614 21.8901 359.175 21.8901C359.707 21.8901 360.17 22.3389 360.17 22.8858C360.17 23.4187 359.707 23.8675 359.175 23.8675ZM362.4 23.8675C361.853 23.8675 361.404 23.4187 361.404 22.8858C361.404 22.3389 361.853 21.8901 362.4 21.8901C362.947 21.8901 363.41 22.3389 363.41 22.8858C363.41 23.4187 362.947 23.8675 362.4 23.8675Z" fill="#1C1C1C"/>
<path d="M0 61.0048C0 54.783 5.04374 49.7393 11.2655 49.7393H339.681C345.903 49.7393 350.947 54.783 350.947 61.0048V75.872C350.947 82.0938 345.903 87.1375 339.681 87.1375H11.2655C5.04375 87.1375 0 82.0938 0 75.872V61.0048Z" fill="white"/>
<path d="M11.2656 50.4434H339.681C345.514 50.4434 350.242 55.172 350.242 61.0049V75.8721C350.242 81.705 345.514 86.4336 339.681 86.4336H11.2656C5.43274 86.4336 0.70413 81.705 0.704102 75.8721V61.0049C0.704102 55.172 5.43272 50.4434 11.2656 50.4434Z" stroke="url(#paint1_linear_3361_22828)" stroke-opacity="0.7" stroke-width="1.40819"/>
<path opacity="0.4" d="M17.7665 59.7009C18.1226 59.7009 18.4239 60.0022 18.4239 60.3583V61.4539H22.8065V60.3583C22.8065 60.0022 23.1078 59.7009 23.4639 59.7009C23.82 59.7009 24.1213 60.0022 24.1213 60.3583V61.4539H24.9978C25.9565 61.4539 26.7508 62.2483 26.7508 63.207V71.0956C26.7508 72.0543 25.9565 72.8487 24.9978 72.8487H16.2326C15.2739 72.8487 14.4795 72.0543 14.4795 71.0956V63.207C14.4795 62.2483 15.2739 61.4539 16.2326 61.4539H17.1091V60.3583C17.1091 60.0022 17.4104 59.7009 17.7665 59.7009ZM17.7665 62.7687H16.2326C15.9861 62.7687 15.7943 62.9604 15.7943 63.207V64.5217H25.4361V63.207C25.4361 62.9604 25.2443 62.7687 24.9978 62.7687H17.7665ZM15.7943 65.8365V71.0956C15.7943 71.3422 15.9861 71.5339 16.2326 71.5339H24.9978C25.2443 71.5339 25.4361 71.3422 25.4361 71.0956V65.8365H15.7943Z" fill="#1C1C1C"/>
<path d="M40.8741 73.4385L40.1729 63.6495H41.5473L41.8979 69.3434L42.0521 71.8537H42.1643L43.2723 66.0196H44.829L45.9369 71.8537H46.0491L46.2033 69.3434L46.568 63.6495H47.8863L47.185 73.4385H45.0814L44.0857 67.7726H43.9735L42.9777 73.4385H40.8741ZM49.4375 73.4385V63.6495H55.5661V64.9678H51.0082V67.8147H55.3978V69.133H51.0082V72.1202H55.5661V73.4385H49.4375ZM57.8466 73.4385V63.6495H63.9753V64.9678H59.4173V67.8147H63.807V69.133H59.4173V72.1202H63.9753V73.4385H57.8466ZM68.8923 68.9367L67.7143 70.4092V73.4385H66.1436V63.6495H67.7143V68.3336H67.7844L68.9765 66.7068L71.3746 63.6495H73.1838L69.9582 67.7726L73.31 73.4385H71.5149L68.8923 68.9367ZM89.5112 73.4385H82.7515V71.9379L85.949 69.147C86.4539 68.6982 86.8419 68.2728 87.113 67.8708C87.3935 67.4688 87.5338 67.0434 87.5338 66.5946V66.4403C87.5338 65.9261 87.3935 65.5334 87.113 65.2623C86.8325 64.9818 86.4258 64.8416 85.8929 64.8416C85.3506 64.8416 84.9299 64.9865 84.6307 65.2763C84.3409 65.5661 84.1305 65.9355 83.9996 66.3842L82.6252 65.8653C82.7187 65.5568 82.8543 65.2623 83.0319 64.9818C83.2096 64.692 83.434 64.4348 83.7051 64.2105C83.9856 63.9861 84.3128 63.8084 84.6868 63.6775C85.0701 63.5466 85.5096 63.4812 86.0051 63.4812C86.51 63.4812 86.9588 63.556 87.3514 63.7056C87.7535 63.8458 88.0901 64.0422 88.3612 64.2946C88.6323 64.547 88.838 64.8509 88.9783 65.2062C89.1185 65.5521 89.1886 65.9355 89.1886 66.3562C89.1886 66.7489 89.1279 67.1135 89.0063 67.4501C88.8941 67.7773 88.7305 68.0952 88.5155 68.4037C88.3098 68.7029 88.062 68.9928 87.7722 69.2732C87.4823 69.5537 87.1644 69.8342 86.8185 70.1147L84.4484 72.1062H89.5112V73.4385Z" fill="#1C1C1C"/>
<path opacity="0.7" d="M104.256 69.3153L100.82 63.2989H102.363L104.621 67.3519C104.761 67.5903 104.845 67.7867 104.957 68.0251C105.083 67.7726 105.111 67.6885 105.294 67.3519L107.538 63.2989H109.038L105.63 69.3153V73.4385H104.256V69.3153ZM108.306 70.0025C108.306 67.8848 109.821 66.3983 111.883 66.3983C113.93 66.3983 115.445 67.8848 115.445 70.0025C115.445 72.1202 113.93 73.6068 111.883 73.6068C109.821 73.6068 108.306 72.1202 108.306 70.0025ZM109.639 70.0025C109.639 71.433 110.55 72.4287 111.883 72.4287C113.201 72.4287 114.126 71.433 114.126 70.0025C114.126 68.572 113.201 67.5763 111.883 67.5763C110.55 67.5763 109.639 68.572 109.639 70.0025ZM121.48 66.5806H122.784V73.4385H121.606L121.466 72.4007C121.073 73.1159 120.162 73.6068 119.152 73.6068C117.553 73.6068 116.656 72.5269 116.656 70.844V66.5806H117.974V70.4092C117.974 71.8818 118.605 72.4427 119.615 72.4427C120.821 72.4427 121.48 71.6714 121.48 70.1989V66.5806ZM128.624 66.5245V67.7306H128.035C126.786 67.7306 126.015 68.4879 126.015 69.8062V73.4385H124.697V66.5946H125.931L126.015 67.6324C126.296 66.9172 126.983 66.4403 127.922 66.4403C128.161 66.4403 128.357 66.4684 128.624 66.5245ZM135.013 73.4385H133.695V66.5806H134.873L134.999 67.4781C135.35 66.833 136.079 66.3842 137.047 66.3842C138.113 66.3842 138.87 66.9172 139.22 67.7726C139.543 66.9172 140.37 66.3842 141.436 66.3842C143.007 66.3842 143.961 67.3659 143.961 68.9507V73.4385H142.67V69.2732C142.67 68.1934 142.067 67.5763 141.142 67.5763C140.146 67.5763 139.487 68.2775 139.487 69.3714V73.4385H138.183V69.2592C138.183 68.1793 137.594 67.5903 136.668 67.5903C135.672 67.5903 135.013 68.2775 135.013 69.3714V73.4385ZM145.339 70.0025C145.339 67.8848 146.854 66.3983 148.916 66.3983C150.963 66.3983 152.478 67.8848 152.478 70.0025C152.478 72.1202 150.963 73.6068 148.916 73.6068C146.854 73.6068 145.339 72.1202 145.339 70.0025ZM146.672 70.0025C146.672 71.433 147.583 72.4287 148.916 72.4287C150.234 72.4287 151.159 71.433 151.159 70.0025C151.159 68.572 150.234 67.5763 148.916 67.5763C147.583 67.5763 146.672 68.572 146.672 70.0025ZM153.488 70.0025C153.488 67.8848 155.003 66.3983 157.064 66.3983C159.112 66.3983 160.627 67.8848 160.627 70.0025C160.627 72.1202 159.112 73.6068 157.064 73.6068C155.003 73.6068 153.488 72.1202 153.488 70.0025ZM154.821 70.0025C154.821 71.433 155.732 72.4287 157.064 72.4287C158.383 72.4287 159.308 71.433 159.308 70.0025C159.308 68.572 158.383 67.5763 157.064 67.5763C155.732 67.5763 154.821 68.572 154.821 70.0025ZM164.835 73.6068C162.843 73.6068 161.637 72.1202 161.637 70.0306C161.637 67.9269 162.857 66.3842 164.891 66.3842C165.943 66.3842 166.826 66.847 167.289 67.6885V63.1166H168.593V73.4385H167.415L167.303 72.1903C166.854 73.1299 165.929 73.6068 164.835 73.6068ZM165.101 72.4147C166.448 72.4147 167.275 71.419 167.275 69.9885C167.275 68.5861 166.448 67.5763 165.101 67.5763C163.755 67.5763 162.969 68.5861 162.969 69.9885C162.969 71.4049 163.755 72.4147 165.101 72.4147ZM173.769 71.447H175.031C175.031 72.1482 175.564 72.569 176.434 72.569C177.359 72.569 177.892 72.1903 177.892 71.5592C177.892 71.0964 177.668 70.8159 176.952 70.6336L175.746 70.3531C174.526 70.0586 173.951 69.4556 173.951 68.4458C173.951 67.1836 175.017 66.3842 176.532 66.3842C178.032 66.3842 179.014 67.2257 179.042 68.53H177.78C177.752 67.8428 177.289 67.408 176.49 67.408C175.662 67.408 175.199 67.7726 175.199 68.4037C175.199 68.8665 175.536 69.1751 176.209 69.3434L177.415 69.6379C178.579 69.9184 179.154 70.4513 179.154 71.4751C179.154 72.7793 178.032 73.6068 176.405 73.6068C174.793 73.6068 173.769 72.7513 173.769 71.447ZM182.552 73.4385H181.233V67.6885H179.887V66.5806H181.233V64.4348H182.552V66.5806H183.898V67.6885H182.552V73.4385ZM187.004 73.6068C185.532 73.6068 184.662 72.7793 184.662 71.5312C184.662 70.269 185.602 69.4836 187.215 69.3574L189.374 69.1891V68.9928C189.374 67.8428 188.687 67.4361 187.762 67.4361C186.654 67.4361 186.023 67.9269 186.023 68.7543H184.873C184.873 67.3239 186.051 66.3842 187.818 66.3842C189.515 66.3842 190.665 67.2818 190.665 69.133V73.4385H189.543L189.402 72.3306C189.052 73.1159 188.112 73.6068 187.004 73.6068ZM187.383 72.583C188.631 72.583 189.388 71.7696 189.388 70.4793V70.1147L187.635 70.2549C186.471 70.3671 185.995 70.8159 185.995 71.4891C185.995 72.2184 186.527 72.583 187.383 72.583ZM193.682 73.4385H192.49V63.1166H193.809V67.7586C194.257 66.8611 195.183 66.3842 196.305 66.3842C198.268 66.3842 199.446 67.9269 199.446 70.0446C199.446 72.1202 198.212 73.6068 196.221 73.6068C195.141 73.6068 194.229 73.1299 193.781 72.1903L193.682 73.4385ZM193.823 69.9885C193.823 71.419 194.636 72.4147 195.982 72.4147C197.329 72.4147 198.128 71.4049 198.128 69.9885C198.128 68.5861 197.329 67.5763 195.982 67.5763C194.636 67.5763 193.823 68.5861 193.823 69.9885ZM201.545 64.9537C201.068 64.9537 200.675 64.5611 200.675 64.0842C200.675 63.5934 201.068 63.2147 201.545 63.2147C202.021 63.2147 202.414 63.5934 202.414 64.0842C202.414 64.5611 202.021 64.9537 201.545 64.9537ZM200.899 73.4385V66.5806H202.218V73.4385H200.899ZM205.478 73.4385H204.16V63.1166H205.478V73.4385ZM208.064 64.9537C207.587 64.9537 207.194 64.5611 207.194 64.0842C207.194 63.5934 207.587 63.2147 208.064 63.2147C208.541 63.2147 208.933 63.5934 208.933 64.0842C208.933 64.5611 208.541 64.9537 208.064 64.9537ZM207.419 73.4385V66.5806H208.737V73.4385H207.419ZM215.573 73.4385H210.23V72.3726L213.932 67.6885H210.23V66.5806H215.573V67.6604L211.843 72.3306H215.573V73.4385ZM219.869 73.6068C217.849 73.6068 216.461 72.1482 216.461 70.0165C216.461 67.8708 217.821 66.3842 219.813 66.3842C221.762 66.3842 223.038 67.7306 223.038 69.7641V70.2549L217.737 70.269C217.835 71.7135 218.593 72.5129 219.897 72.5129C220.921 72.5129 221.594 72.0921 221.818 71.3068H223.052C222.716 72.7793 221.566 73.6068 219.869 73.6068ZM219.813 67.4922C218.663 67.4922 217.933 68.1793 217.765 69.3854H221.72C221.72 68.2495 220.977 67.4922 219.813 67.4922ZM227.26 73.6068C225.268 73.6068 224.062 72.1202 224.062 70.0306C224.062 67.9269 225.282 66.3842 227.316 66.3842C228.367 66.3842 229.251 66.847 229.714 67.6885V63.1166H231.018V73.4385H229.84L229.728 72.1903C229.279 73.1299 228.353 73.6068 227.26 73.6068ZM227.526 72.4147C228.872 72.4147 229.7 71.419 229.7 69.9885C229.7 68.5861 228.872 67.5763 227.526 67.5763C226.18 67.5763 225.394 68.5861 225.394 69.9885C225.394 71.4049 226.18 72.4147 227.526 72.4147ZM233.902 73.6068C233.355 73.6068 232.892 73.158 232.892 72.6251C232.892 72.0781 233.355 71.6293 233.902 71.6293C234.434 71.6293 234.897 72.0781 234.897 72.6251C234.897 73.158 234.434 73.6068 233.902 73.6068ZM243.253 69.3153L239.817 63.2989H241.36L243.618 67.3519C243.758 67.5903 243.842 67.7867 243.954 68.0251C244.08 67.7726 244.109 67.6885 244.291 67.3519L246.535 63.2989H248.035L244.627 69.3153V73.4385H243.253V69.3153ZM247.303 70.0025C247.303 67.8848 248.818 66.3983 250.88 66.3983C252.927 66.3983 254.442 67.8848 254.442 70.0025C254.442 72.1202 252.927 73.6068 250.88 73.6068C248.818 73.6068 247.303 72.1202 247.303 70.0025ZM248.636 70.0025C248.636 71.433 249.547 72.4287 250.88 72.4287C252.198 72.4287 253.124 71.433 253.124 70.0025C253.124 68.572 252.198 67.5763 250.88 67.5763C249.547 67.5763 248.636 68.572 248.636 70.0025ZM260.477 66.5806H261.781V73.4385H260.603L260.463 72.4007C260.07 73.1159 259.159 73.6068 258.149 73.6068C256.55 73.6068 255.653 72.5269 255.653 70.844V66.5806H256.971V70.4092C256.971 71.8818 257.602 72.4427 258.612 72.4427C259.818 72.4427 260.477 71.6714 260.477 70.1989V66.5806ZM271.456 66.5245V67.7306H270.867C269.618 67.7306 268.847 68.4879 268.847 69.8062V73.4385H267.529V66.5946H268.763L268.847 67.6324C269.128 66.9172 269.815 66.4403 270.754 66.4403C270.993 66.4403 271.189 66.4684 271.456 66.5245ZM275.405 73.6068C273.385 73.6068 271.997 72.1482 271.997 70.0165C271.997 67.8708 273.357 66.3842 275.349 66.3842C277.298 66.3842 278.574 67.7306 278.574 69.7641V70.2549L273.273 70.269C273.371 71.7135 274.128 72.5129 275.433 72.5129C276.456 72.5129 277.13 72.0921 277.354 71.3068H278.588C278.252 72.7793 277.102 73.6068 275.405 73.6068ZM275.349 67.4922C274.199 67.4922 273.469 68.1793 273.301 69.3854H277.256C277.256 68.2495 276.513 67.4922 275.349 67.4922ZM279.598 70.0165C279.598 67.8708 280.958 66.3842 282.964 66.3842C284.689 66.3842 285.895 67.3659 286.133 68.8946H284.815C284.59 68.0251 283.889 67.5623 283.006 67.5623C281.758 67.5623 280.902 68.5159 280.902 70.0025C280.902 71.4751 281.701 72.4287 282.95 72.4287C283.889 72.4287 284.59 71.9379 284.829 71.1245H286.147C285.881 72.611 284.605 73.6068 282.95 73.6068C280.93 73.6068 279.598 72.1763 279.598 70.0165ZM287.089 70.0025C287.089 67.8848 288.604 66.3983 290.666 66.3983C292.713 66.3983 294.228 67.8848 294.228 70.0025C294.228 72.1202 292.713 73.6068 290.666 73.6068C288.604 73.6068 287.089 72.1202 287.089 70.0025ZM288.422 70.0025C288.422 71.433 289.333 72.4287 290.666 72.4287C291.984 72.4287 292.909 71.433 292.909 70.0025C292.909 68.572 291.984 67.5763 290.666 67.5763C289.333 67.5763 288.422 68.572 288.422 70.0025ZM295.252 69.8342C295.252 67.8989 296.5 66.3842 298.492 66.3842C299.6 66.3842 300.455 66.8891 300.89 67.7446L300.988 66.5806H302.166V73.158C302.166 75.3177 300.834 76.6921 298.73 76.6921C296.865 76.6921 295.589 75.6403 295.336 73.9013H296.655C296.823 74.911 297.58 75.5001 298.73 75.5001C300.021 75.5001 300.862 74.6586 300.862 73.3543V71.9799C300.413 72.7793 299.516 73.2562 298.436 73.2562C296.486 73.2562 295.252 71.7556 295.252 69.8342ZM296.571 69.8062C296.571 71.0964 297.37 72.1062 298.66 72.1062C299.992 72.1062 300.806 71.1525 300.806 69.8062C300.806 68.4879 300.021 67.5342 298.674 67.5342C297.356 67.5342 296.571 68.544 296.571 69.8062ZM305.387 73.4385H304.069V66.5806H305.261L305.401 67.6324C305.836 66.847 306.705 66.3842 307.673 66.3842C309.482 66.3842 310.31 67.4922 310.31 69.2452V73.4385H308.991V69.5397C308.991 68.1513 308.346 67.5903 307.336 67.5903C306.102 67.5903 305.387 68.4739 305.387 69.8062V73.4385ZM312.781 64.9537C312.304 64.9537 311.911 64.5611 311.911 64.0842C311.911 63.5934 312.304 63.2147 312.781 63.2147C313.257 63.2147 313.65 63.5934 313.65 64.0842C313.65 64.5611 313.257 64.9537 312.781 64.9537ZM312.136 73.4385V66.5806H313.454V73.4385H312.136ZM320.29 73.4385H314.947V72.3726L318.649 67.6885H314.947V66.5806H320.29V67.6604L316.56 72.3306H320.29V73.4385ZM324.586 73.6068C322.566 73.6068 321.178 72.1482 321.178 70.0165C321.178 67.8708 322.538 66.3842 324.53 66.3842C326.479 66.3842 327.755 67.7306 327.755 69.7641V70.2549L322.454 70.269C322.552 71.7135 323.31 72.5129 324.614 72.5129C325.638 72.5129 326.311 72.0921 326.535 71.3068H327.769C327.433 72.7793 326.283 73.6068 324.586 73.6068ZM324.53 67.4922C323.38 67.4922 322.65 68.1793 322.482 69.3854H326.437C326.437 68.2495 325.694 67.4922 324.53 67.4922ZM330.209 73.6068C329.662 73.6068 329.2 73.158 329.2 72.6251C329.2 72.0781 329.662 71.6293 330.209 71.6293C330.742 71.6293 331.205 72.0781 331.205 72.6251C331.205 73.158 330.742 73.6068 330.209 73.6068ZM333.449 73.6068C332.888 73.6068 332.439 73.158 332.439 72.6251C332.439 72.0781 332.888 71.6293 333.449 71.6293C333.982 71.6293 334.445 72.0781 334.445 72.6251C334.445 73.158 333.982 73.6068 333.449 73.6068ZM336.675 73.6068C336.128 73.6068 335.679 73.158 335.679 72.6251C335.679 72.0781 336.128 71.6293 336.675 71.6293C337.222 71.6293 337.684 72.0781 337.684 72.6251C337.684 73.158 337.222 73.6068 336.675 73.6068Z" fill="#1C1C1C"/>
<path d="M24.0547 110.744C24.0547 104.522 29.0984 99.4785 35.3202 99.4785H363.736C369.957 99.4785 375.001 104.522 375.001 110.744V125.611C375.001 131.833 369.957 136.877 363.736 136.877H35.3202C29.0984 136.877 24.0547 131.833 24.0547 125.611V110.744Z" fill="white"/>
<path d="M35.3203 100.183H363.735C369.568 100.183 374.297 104.911 374.297 110.744V125.611C374.297 131.444 369.568 136.173 363.735 136.173H35.3203C29.4874 136.173 24.7588 131.444 24.7588 125.611V110.744C24.7588 104.911 29.4874 100.183 35.3203 100.183Z" stroke="#1C1C1C" stroke-opacity="0.1" stroke-width="1.40819"/>
<path opacity="0.4" d="M41.8212 109.441C42.1773 109.441 42.4786 109.742 42.4786 110.098V111.194H46.8612V110.098C46.8612 109.742 47.1625 109.441 47.5186 109.441C47.8747 109.441 48.176 109.742 48.176 110.098V111.194H49.0525C50.0112 111.194 50.8055 111.988 50.8055 112.947V120.835C50.8055 121.794 50.0112 122.588 49.0525 122.588H40.2873C39.3286 122.588 38.5342 121.794 38.5342 120.835V112.947C38.5342 111.988 39.3286 111.194 40.2873 111.194H41.1638V110.098C41.1638 109.742 41.4651 109.441 41.8212 109.441ZM41.8212 112.508H40.2873C40.0407 112.508 39.849 112.7 39.849 112.947V114.261H49.4907V112.947C49.4907 112.7 49.299 112.508 49.0525 112.508H41.8212ZM39.849 115.576V120.835C39.849 121.082 40.0407 121.274 40.2873 121.274H49.0525C49.299 121.274 49.4907 121.082 49.4907 120.835V115.576H39.849Z" fill="#1C1C1C"/>
<path d="M64.9288 123.178L64.2276 113.389H65.6019L65.9526 119.083L66.1068 121.593H66.219L67.3269 115.759H68.8836L69.9916 121.593H70.1038L70.258 119.083L70.6227 113.389H71.941L71.2397 123.178H69.1361L68.1404 117.512H68.0282L67.0324 123.178H64.9288ZM73.4922 123.178V113.389H79.6208V114.707H75.0629V117.554H79.4525V118.872H75.0629V121.859H79.6208V123.178H73.4922ZM81.9013 123.178V113.389H88.0299V114.707H83.472V117.554H87.8617V118.872H83.472V121.859H88.0299V123.178H81.9013ZM92.947 118.676L91.769 120.148V123.178H90.1982V113.389H91.769V118.073H91.8391L93.0312 116.446L95.4293 113.389H97.2385L94.0129 117.512L97.3647 123.178H95.5696L92.947 118.676ZM109.723 117.428C110.35 117.428 110.812 117.297 111.112 117.035C111.42 116.764 111.574 116.427 111.574 116.025V115.927C111.574 115.478 111.425 115.137 111.126 114.903C110.836 114.66 110.443 114.539 109.948 114.539C109.471 114.539 109.064 114.646 108.727 114.861C108.4 115.076 108.124 115.371 107.9 115.745L106.834 114.833C106.984 114.618 107.157 114.413 107.353 114.216C107.549 114.02 107.774 113.852 108.026 113.711C108.279 113.562 108.569 113.445 108.896 113.361C109.223 113.267 109.592 113.22 110.004 113.22C110.462 113.22 110.887 113.277 111.28 113.389C111.673 113.501 112.014 113.669 112.304 113.894C112.594 114.109 112.818 114.375 112.977 114.693C113.136 115.002 113.215 115.352 113.215 115.745C113.215 116.053 113.164 116.334 113.061 116.586C112.968 116.839 112.832 117.063 112.654 117.259C112.486 117.446 112.285 117.601 112.051 117.722C111.818 117.844 111.57 117.933 111.308 117.989V118.059C111.588 118.115 111.855 118.208 112.107 118.339C112.36 118.461 112.584 118.624 112.781 118.83C112.977 119.027 113.131 119.265 113.243 119.545C113.356 119.817 113.412 120.13 113.412 120.485C113.412 120.915 113.327 121.308 113.159 121.663C112.991 122.009 112.748 122.308 112.43 122.561C112.121 122.813 111.747 123.009 111.308 123.15C110.869 123.281 110.378 123.346 109.835 123.346C109.377 123.346 108.971 123.295 108.615 123.192C108.269 123.098 107.961 122.972 107.69 122.813C107.419 122.645 107.18 122.458 106.974 122.252C106.778 122.037 106.605 121.817 106.456 121.593L107.62 120.695C107.863 121.088 108.148 121.411 108.475 121.663C108.812 121.906 109.27 122.028 109.849 122.028C110.466 122.028 110.939 121.887 111.266 121.607C111.593 121.317 111.757 120.92 111.757 120.415V120.303C111.757 119.798 111.584 119.415 111.238 119.153C110.901 118.882 110.41 118.746 109.765 118.746H108.713V117.428H109.723Z" fill="#1C1C1C"/>
<path opacity="0.7" d="M126.333 123.178H124.903L128.605 113.038H130.134L133.85 123.178H132.406L131.494 120.653H127.231L126.333 123.178ZM129.194 115.226L127.651 119.461H131.087L129.531 115.226C129.461 115.03 129.39 114.791 129.362 114.637C129.334 114.777 129.264 115.016 129.194 115.226ZM140.127 123.178H138.808V116.32H139.987L140.113 117.217C140.463 116.572 141.193 116.123 142.16 116.123C143.226 116.123 143.983 116.656 144.334 117.512C144.657 116.656 145.484 116.123 146.55 116.123C148.121 116.123 149.074 117.105 149.074 118.69V123.178H147.784V119.013C147.784 117.933 147.181 117.316 146.255 117.316C145.26 117.316 144.601 118.017 144.601 119.111V123.178H143.296V118.998C143.296 117.919 142.707 117.33 141.782 117.33C140.786 117.33 140.127 118.017 140.127 119.111V123.178ZM153.861 123.346C151.841 123.346 150.453 121.887 150.453 119.756C150.453 117.61 151.813 116.123 153.805 116.123C155.754 116.123 157.03 117.47 157.03 119.503V119.994L151.729 120.008C151.827 121.453 152.585 122.252 153.889 122.252C154.913 122.252 155.586 121.831 155.81 121.046H157.044C156.708 122.519 155.558 123.346 153.861 123.346ZM153.805 117.231C152.655 117.231 151.926 117.919 151.757 119.125H155.712C155.712 117.989 154.969 117.231 153.805 117.231ZM160.44 123.346C158.967 123.346 158.098 122.519 158.098 121.27C158.098 120.008 159.037 119.223 160.65 119.097L162.81 118.928V118.732C162.81 117.582 162.123 117.175 161.197 117.175C160.089 117.175 159.458 117.666 159.458 118.494H158.308C158.308 117.063 159.486 116.123 161.253 116.123C162.95 116.123 164.1 117.021 164.1 118.872V123.178H162.978L162.838 122.07C162.487 122.855 161.548 123.346 160.44 123.346ZM160.818 122.322C162.067 122.322 162.824 121.509 162.824 120.219V119.854L161.071 119.994C159.907 120.106 159.43 120.555 159.43 121.228C159.43 121.958 159.963 122.322 160.818 122.322ZM167.244 123.178H165.926V116.32H167.118L167.258 117.372C167.693 116.586 168.562 116.123 169.53 116.123C171.339 116.123 172.167 117.231 172.167 118.984V123.178H170.848V119.279C170.848 117.891 170.203 117.33 169.194 117.33C167.959 117.33 167.244 118.213 167.244 119.545V123.178ZM174.638 114.693C174.161 114.693 173.768 114.3 173.768 113.823C173.768 113.333 174.161 112.954 174.638 112.954C175.115 112.954 175.507 113.333 175.507 113.823C175.507 114.3 175.115 114.693 174.638 114.693ZM173.993 123.178V116.32H175.311V123.178H173.993ZM178.543 123.178H177.225V116.32H178.417L178.557 117.372C178.992 116.586 179.861 116.123 180.829 116.123C182.638 116.123 183.466 117.231 183.466 118.984V123.178H182.147V119.279C182.147 117.891 181.502 117.33 180.492 117.33C179.258 117.33 178.543 118.213 178.543 119.545V123.178ZM184.857 119.573C184.857 117.638 186.105 116.123 188.096 116.123C189.204 116.123 190.06 116.628 190.495 117.484L190.593 116.32H191.771V122.897C191.771 125.057 190.438 126.431 188.335 126.431C186.47 126.431 185.193 125.38 184.941 123.641H186.259C186.427 124.65 187.185 125.239 188.335 125.239C189.625 125.239 190.466 124.398 190.466 123.094V121.719C190.018 122.519 189.12 122.995 188.04 122.995C186.091 122.995 184.857 121.495 184.857 119.573ZM186.175 119.545C186.175 120.836 186.974 121.845 188.265 121.845C189.597 121.845 190.41 120.892 190.41 119.545C190.41 118.227 189.625 117.273 188.279 117.273C186.96 117.273 186.175 118.283 186.175 119.545ZM192.944 116.32H193.954V115.226C193.954 113.543 194.879 112.856 196.128 112.856C196.38 112.856 196.674 112.87 196.941 112.912V114.048H196.352C195.496 114.048 195.272 114.483 195.272 115.226V116.32H196.899V117.428H195.272V123.178H193.954V117.428H192.944V116.32ZM202.865 116.32H204.169V123.178H202.991L202.851 122.14C202.458 122.855 201.546 123.346 200.537 123.346C198.938 123.346 198.04 122.266 198.04 120.583V116.32H199.358V120.148C199.358 121.621 199.99 122.182 200.999 122.182C202.205 122.182 202.865 121.411 202.865 119.938V116.32ZM207.428 123.178H206.11V112.856H207.428V123.178ZM212.754 119.756C212.754 117.61 214.115 116.123 216.12 116.123C217.845 116.123 219.051 117.105 219.29 118.634H217.972C217.747 117.764 217.046 117.302 216.162 117.302C214.914 117.302 214.059 118.255 214.059 119.742C214.059 121.214 214.858 122.168 216.106 122.168C217.046 122.168 217.747 121.677 217.986 120.864H219.304C219.037 122.35 217.761 123.346 216.106 123.346C214.087 123.346 212.754 121.916 212.754 119.756ZM220.246 119.742C220.246 117.624 221.761 116.138 223.822 116.138C225.87 116.138 227.384 117.624 227.384 119.742C227.384 121.859 225.87 123.346 223.822 123.346C221.761 123.346 220.246 121.859 220.246 119.742ZM221.578 119.742C221.578 121.172 222.49 122.168 223.822 122.168C225.14 122.168 226.066 121.172 226.066 119.742C226.066 118.311 225.14 117.316 223.822 117.316C222.49 117.316 221.578 118.311 221.578 119.742ZM230.162 123.178H228.844V116.32H230.036L230.176 117.372C230.611 116.586 231.48 116.123 232.448 116.123C234.257 116.123 235.085 117.231 235.085 118.984V123.178H233.766V119.279C233.766 117.891 233.121 117.33 232.111 117.33C230.877 117.33 230.162 118.213 230.162 119.545V123.178ZM238.695 123.178L235.932 116.32H237.334L238.835 120.148C239.073 120.794 239.27 121.369 239.382 121.789C239.494 121.341 239.719 120.752 239.957 120.148L241.486 116.32H242.86L239.999 123.178H238.695ZM246.553 123.346C244.534 123.346 243.145 121.887 243.145 119.756C243.145 117.61 244.505 116.123 246.497 116.123C248.446 116.123 249.723 117.47 249.723 119.503V119.994L244.421 120.008C244.52 121.453 245.277 122.252 246.581 122.252C247.605 122.252 248.278 121.831 248.502 121.046H249.737C249.4 122.519 248.25 123.346 246.553 123.346ZM246.497 117.231C245.347 117.231 244.618 117.919 244.449 119.125H248.404C248.404 117.989 247.661 117.231 246.497 117.231ZM255.122 116.264V117.47H254.533C253.285 117.47 252.513 118.227 252.513 119.545V123.178H251.195V116.334H252.429L252.513 117.372C252.794 116.656 253.481 116.18 254.421 116.18C254.659 116.18 254.855 116.208 255.122 116.264ZM255.797 121.186H257.059C257.059 121.887 257.592 122.308 258.462 122.308C259.388 122.308 259.92 121.93 259.92 121.298C259.92 120.836 259.696 120.555 258.981 120.373L257.775 120.092C256.555 119.798 255.98 119.195 255.98 118.185C255.98 116.923 257.045 116.123 258.56 116.123C260.061 116.123 261.042 116.965 261.07 118.269H259.808C259.78 117.582 259.317 117.147 258.518 117.147C257.691 117.147 257.228 117.512 257.228 118.143C257.228 118.606 257.564 118.914 258.238 119.083L259.444 119.377C260.608 119.658 261.183 120.191 261.183 121.214C261.183 122.519 260.061 123.346 258.434 123.346C256.821 123.346 255.797 122.491 255.797 121.186ZM264.65 123.346C263.177 123.346 262.308 122.519 262.308 121.27C262.308 120.008 263.248 119.223 264.86 119.097L267.02 118.928V118.732C267.02 117.582 266.333 117.175 265.407 117.175C264.299 117.175 263.668 117.666 263.668 118.494H262.518C262.518 117.063 263.696 116.123 265.463 116.123C267.16 116.123 268.31 117.021 268.31 118.872V123.178H267.188L267.048 122.07C266.698 122.855 265.758 123.346 264.65 123.346ZM265.029 122.322C266.277 122.322 267.034 121.509 267.034 120.219V119.854L265.281 119.994C264.117 120.106 263.64 120.555 263.64 121.228C263.64 121.958 264.173 122.322 265.029 122.322ZM271.962 123.178H270.644V117.428H269.297V116.32H270.644V114.174H271.962V116.32H273.308V117.428H271.962V123.178ZM275.136 114.693C274.66 114.693 274.267 114.3 274.267 113.823C274.267 113.333 274.66 112.954 275.136 112.954C275.613 112.954 276.006 113.333 276.006 113.823C276.006 114.3 275.613 114.693 275.136 114.693ZM274.491 123.178V116.32H275.81V123.178H274.491ZM277.275 119.742C277.275 117.624 278.789 116.138 280.851 116.138C282.898 116.138 284.413 117.624 284.413 119.742C284.413 121.859 282.898 123.346 280.851 123.346C278.789 123.346 277.275 121.859 277.275 119.742ZM278.607 119.742C278.607 121.172 279.519 122.168 280.851 122.168C282.169 122.168 283.095 121.172 283.095 119.742C283.095 118.311 282.169 117.316 280.851 117.316C279.519 117.316 278.607 118.311 278.607 119.742ZM287.191 123.178H285.872V116.32H287.064L287.205 117.372C287.639 116.586 288.509 116.123 289.477 116.123C291.286 116.123 292.113 117.231 292.113 118.984V123.178H290.795V119.279C290.795 117.891 290.15 117.33 289.14 117.33C287.906 117.33 287.191 118.213 287.191 119.545V123.178ZM297.325 119.742C297.325 117.624 298.84 116.138 300.901 116.138C302.949 116.138 304.464 117.624 304.464 119.742C304.464 121.859 302.949 123.346 300.901 123.346C298.84 123.346 297.325 121.859 297.325 119.742ZM298.657 119.742C298.657 121.172 299.569 122.168 300.901 122.168C302.22 122.168 303.145 121.172 303.145 119.742C303.145 118.311 302.22 117.316 300.901 117.316C299.569 117.316 298.657 118.311 298.657 119.742ZM309.85 116.264V117.47H309.261C308.012 117.47 307.241 118.227 307.241 119.545V123.178H305.923V116.334H307.157L307.241 117.372C307.522 116.656 308.209 116.18 309.148 116.18C309.387 116.18 309.583 116.208 309.85 116.264ZM316.856 123.178H315.538V117.428H314.192V116.32H315.538V114.174H316.856V116.32H318.203V117.428H316.856V123.178ZM320.704 123.164H319.386V112.856H320.704V117.372C321.139 116.628 321.966 116.123 323.032 116.123C324.785 116.123 325.626 117.231 325.626 118.984V123.178H324.308V119.279C324.308 117.891 323.649 117.33 322.667 117.33C321.391 117.33 320.704 118.255 320.704 119.433V123.164ZM330.412 123.346C328.392 123.346 327.004 121.887 327.004 119.756C327.004 117.61 328.364 116.123 330.355 116.123C332.305 116.123 333.581 117.47 333.581 119.503V119.994L328.28 120.008C328.378 121.453 329.135 122.252 330.44 122.252C331.463 122.252 332.137 121.831 332.361 121.046H333.595C333.258 122.519 332.108 123.346 330.412 123.346ZM330.355 117.231C329.205 117.231 328.476 117.919 328.308 119.125H332.263C332.263 117.989 331.519 117.231 330.355 117.231ZM338.98 116.264V117.47H338.391C337.143 117.47 336.372 118.227 336.372 119.545V123.178H335.053V116.334H336.288L336.372 117.372C336.652 116.656 337.339 116.18 338.279 116.18C338.517 116.18 338.714 116.208 338.98 116.264ZM341.948 123.346C340.476 123.346 339.606 122.519 339.606 121.27C339.606 120.008 340.546 119.223 342.159 119.097L344.318 118.928V118.732C344.318 117.582 343.631 117.175 342.706 117.175C341.598 117.175 340.967 117.666 340.967 118.494H339.817C339.817 117.063 340.995 116.123 342.762 116.123C344.459 116.123 345.609 117.021 345.609 118.872V123.178H344.487L344.346 122.07C343.996 122.855 343.056 123.346 341.948 123.346ZM342.327 122.322C343.575 122.322 344.332 121.509 344.332 120.219V119.854L342.579 119.994C341.415 120.106 340.939 120.555 340.939 121.228C340.939 121.958 341.471 122.322 342.327 122.322ZM348.416 123.346C347.869 123.346 347.406 122.897 347.406 122.364C347.406 121.817 347.869 121.369 348.416 121.369C348.949 121.369 349.412 121.817 349.412 122.364C349.412 122.897 348.949 123.346 348.416 123.346ZM351.656 123.346C351.095 123.346 350.646 122.897 350.646 122.364C350.646 121.817 351.095 121.369 351.656 121.369C352.189 121.369 352.651 121.817 352.651 122.364C352.651 122.897 352.189 123.346 351.656 123.346ZM354.881 123.346C354.334 123.346 353.886 122.897 353.886 122.364C353.886 121.817 354.334 121.369 354.881 121.369C355.428 121.369 355.891 121.817 355.891 122.364C355.891 122.897 355.428 123.346 354.881 123.346Z" fill="#1C1C1C"/>
<path d="M24.0547 160.483C24.0547 154.262 29.0984 149.218 35.3202 149.218H363.736C369.957 149.218 375.001 154.262 375.001 160.483V175.351C375.001 181.572 369.957 186.616 363.736 186.616H35.3202C29.0984 186.616 24.0547 181.572 24.0547 175.351V160.483Z" fill="white"/>
<path d="M35.3203 149.922H363.735C369.568 149.922 374.297 154.65 374.297 160.483V175.351C374.297 181.183 369.568 185.912 363.735 185.912H35.3203C29.4874 185.912 24.7588 181.183 24.7588 175.351V160.483C24.7588 154.65 29.4874 149.922 35.3203 149.922Z" stroke="#1C1C1C" stroke-opacity="0.1" stroke-width="1.40819"/>
<path opacity="0.4" d="M41.8212 159.18C42.1773 159.18 42.4786 159.481 42.4786 159.837V160.933H46.8612V159.837C46.8612 159.481 47.1625 159.18 47.5186 159.18C47.8747 159.18 48.176 159.481 48.176 159.837V160.933H49.0525C50.0112 160.933 50.8055 161.727 50.8055 162.686V170.575C50.8055 171.533 50.0112 172.328 49.0525 172.328H40.2873C39.3286 172.328 38.5342 171.533 38.5342 170.575V162.686C38.5342 161.727 39.3286 160.933 40.2873 160.933H41.1638V159.837C41.1638 159.481 41.4651 159.18 41.8212 159.18ZM41.8212 162.248H40.2873C40.0407 162.248 39.849 162.439 39.849 162.686V164.001H49.4907V162.686C49.4907 162.439 49.299 162.248 49.0525 162.248H41.8212ZM39.849 165.316V170.575C39.849 170.821 40.0407 171.013 40.2873 171.013H49.0525C49.299 171.013 49.4907 170.821 49.4907 170.575V165.316H39.849Z" fill="#1C1C1C"/>
<path d="M64.9288 172.917L64.2276 163.128H65.6019L65.9526 168.822L66.1068 171.332H66.219L67.3269 165.498H68.8836L69.9916 171.332H70.1038L70.258 168.822L70.6227 163.128H71.941L71.2397 172.917H69.1361L68.1404 167.251H68.0282L67.0324 172.917H64.9288ZM73.4922 172.917V163.128H79.6208V164.446H75.0629V167.293H79.4525V168.612H75.0629V171.599H79.6208V172.917H73.4922ZM81.9013 172.917V163.128H88.0299V164.446H83.472V167.293H87.8617V168.612H83.472V171.599H88.0299V172.917H81.9013ZM92.947 168.415L91.769 169.888V172.917H90.1982V163.128H91.769V167.812H91.8391L93.0312 166.185L95.4293 163.128H97.2385L94.0129 167.251L97.3647 172.917H95.5696L92.947 168.415ZM110.999 172.917V171.01H106.343V169.663L110.438 163.128H112.5V169.776H113.874V171.01H112.5V172.917H110.999ZM107.676 169.776H110.999V164.573H110.915L107.676 169.776Z" fill="#1C1C1C"/>
<path opacity="0.6" d="M126.333 172.917H124.903L128.605 162.777H130.134L133.85 172.917H132.406L131.494 170.393H127.231L126.333 172.917ZM129.194 164.965L127.651 169.201H131.087L129.531 164.965C129.461 164.769 129.39 164.53 129.362 164.376C129.334 164.516 129.264 164.755 129.194 164.965ZM136.292 172.917H134.974V166.059H136.166L136.306 167.111C136.741 166.326 137.61 165.863 138.578 165.863C140.387 165.863 141.215 166.971 141.215 168.724V172.917H139.896V169.018C139.896 167.63 139.251 167.069 138.241 167.069C137.007 167.069 136.292 167.952 136.292 169.285V172.917ZM147.52 164.432C147.043 164.432 146.651 164.04 146.651 163.563C146.651 163.072 147.043 162.693 147.52 162.693C147.997 162.693 148.39 163.072 148.39 163.563C148.39 164.04 147.997 164.432 147.52 164.432ZM146.875 172.917V166.059H148.193V172.917H146.875ZM151.426 172.917H150.107V166.059H151.299L151.44 167.111C151.874 166.326 152.744 165.863 153.712 165.863C155.521 165.863 156.348 166.971 156.348 168.724V172.917H155.03V169.018C155.03 167.63 154.385 167.069 153.375 167.069C152.141 167.069 151.426 167.952 151.426 169.285V172.917ZM157.531 170.926H158.793C158.793 171.627 159.326 172.047 160.196 172.047C161.121 172.047 161.654 171.669 161.654 171.038C161.654 170.575 161.43 170.294 160.714 170.112L159.508 169.832C158.288 169.537 157.713 168.934 157.713 167.924C157.713 166.662 158.779 165.863 160.294 165.863C161.794 165.863 162.776 166.704 162.804 168.008H161.542C161.514 167.321 161.051 166.887 160.252 166.887C159.424 166.887 158.961 167.251 158.961 167.882C158.961 168.345 159.298 168.654 159.971 168.822L161.177 169.116C162.341 169.397 162.916 169.93 162.916 170.954C162.916 172.258 161.794 173.085 160.168 173.085C158.555 173.085 157.531 172.23 157.531 170.926ZM165.023 164.432C164.547 164.432 164.154 164.04 164.154 163.563C164.154 163.072 164.547 162.693 165.023 162.693C165.5 162.693 165.893 163.072 165.893 163.563C165.893 164.04 165.5 164.432 165.023 164.432ZM164.378 172.917V166.059H165.697V172.917H164.378ZM167.176 169.313C167.176 167.377 168.424 165.863 170.415 165.863C171.523 165.863 172.379 166.368 172.813 167.223L172.912 166.059H174.09V172.637C174.09 174.796 172.757 176.171 170.654 176.171C168.788 176.171 167.512 175.119 167.26 173.38H168.578C168.746 174.39 169.504 174.979 170.654 174.979C171.944 174.979 172.785 174.137 172.785 172.833V171.458C172.337 172.258 171.439 172.735 170.359 172.735C168.41 172.735 167.176 171.234 167.176 169.313ZM168.494 169.285C168.494 170.575 169.293 171.585 170.584 171.585C171.916 171.585 172.729 170.631 172.729 169.285C172.729 167.966 171.944 167.013 170.598 167.013C169.279 167.013 168.494 168.022 168.494 169.285ZM177.31 172.903H175.992V162.595H177.31V167.111C177.745 166.368 178.573 165.863 179.638 165.863C181.392 165.863 182.233 166.971 182.233 168.724V172.917H180.915V169.018C180.915 167.63 180.256 167.069 179.274 167.069C177.998 167.069 177.31 167.994 177.31 169.172V172.903ZM185.994 172.917H184.676V167.167H183.33V166.059H184.676V163.913H185.994V166.059H187.341V167.167H185.994V172.917ZM187.918 166.059H188.927V164.965C188.927 163.282 189.853 162.595 191.101 162.595C191.354 162.595 191.648 162.609 191.915 162.651V163.787H191.326C190.47 163.787 190.246 164.222 190.246 164.965V166.059H191.873V167.167H190.246V172.917H188.927V167.167H187.918V166.059ZM197.838 166.059H199.143V172.917H197.964L197.824 171.879C197.432 172.594 196.52 173.085 195.51 173.085C193.911 173.085 193.014 172.005 193.014 170.322V166.059H194.332V169.888C194.332 171.36 194.963 171.921 195.973 171.921C197.179 171.921 197.838 171.15 197.838 169.677V166.059ZM202.402 172.917H201.083V162.595H202.402V172.917ZM210.926 173.085C208.934 173.085 207.728 171.599 207.728 169.509C207.728 167.405 208.948 165.863 210.982 165.863C212.034 165.863 212.917 166.326 213.38 167.167V162.595H214.684V172.917H213.506L213.394 171.669C212.945 172.608 212.02 173.085 210.926 173.085ZM211.192 171.893C212.539 171.893 213.366 170.897 213.366 169.467C213.366 168.065 212.539 167.055 211.192 167.055C209.846 167.055 209.06 168.065 209.06 169.467C209.06 170.883 209.846 171.893 211.192 171.893ZM217.231 164.432C216.754 164.432 216.362 164.04 216.362 163.563C216.362 163.072 216.754 162.693 217.231 162.693C217.708 162.693 218.101 163.072 218.101 163.563C218.101 164.04 217.708 164.432 217.231 164.432ZM216.586 172.917V166.059H217.904V172.917H216.586ZM219.257 170.926H220.519C220.519 171.627 221.052 172.047 221.922 172.047C222.848 172.047 223.38 171.669 223.38 171.038C223.38 170.575 223.156 170.294 222.441 170.112L221.235 169.832C220.015 169.537 219.44 168.934 219.44 167.924C219.44 166.662 220.505 165.863 222.02 165.863C223.521 165.863 224.502 166.704 224.53 168.008H223.268C223.24 167.321 222.777 166.887 221.978 166.887C221.151 166.887 220.688 167.251 220.688 167.882C220.688 168.345 221.024 168.654 221.698 168.822L222.904 169.116C224.068 169.397 224.643 169.93 224.643 170.954C224.643 172.258 223.521 173.085 221.894 173.085C220.281 173.085 219.257 172.23 219.257 170.926ZM225.656 169.495C225.656 167.349 227.016 165.863 229.022 165.863C230.747 165.863 231.953 166.844 232.191 168.373H230.873C230.648 167.504 229.947 167.041 229.064 167.041C227.816 167.041 226.96 167.994 226.96 169.481C226.96 170.954 227.759 171.907 229.008 171.907C229.947 171.907 230.648 171.416 230.887 170.603H232.205C231.939 172.09 230.662 173.085 229.008 173.085C226.988 173.085 225.656 171.655 225.656 169.495ZM238.336 166.059H239.641V172.917H238.463L238.322 171.879C237.93 172.594 237.018 173.085 236.008 173.085C234.409 173.085 233.512 172.005 233.512 170.322V166.059H234.83V169.888C234.83 171.36 235.461 171.921 236.471 171.921C237.677 171.921 238.336 171.15 238.336 169.677V166.059ZM240.855 170.926H242.118C242.118 171.627 242.65 172.047 243.52 172.047C244.446 172.047 244.978 171.669 244.978 171.038C244.978 170.575 244.754 170.294 244.039 170.112L242.833 169.832C241.613 169.537 241.038 168.934 241.038 167.924C241.038 166.662 242.103 165.863 243.618 165.863C245.119 165.863 246.1 166.704 246.128 168.008H244.866C244.838 167.321 244.375 166.887 243.576 166.887C242.749 166.887 242.286 167.251 242.286 167.882C242.286 168.345 242.622 168.654 243.296 168.822L244.502 169.116C245.666 169.397 246.241 169.93 246.241 170.954C246.241 172.258 245.119 173.085 243.492 173.085C241.879 173.085 240.855 172.23 240.855 170.926ZM247.142 170.926H248.404C248.404 171.627 248.937 172.047 249.806 172.047C250.732 172.047 251.265 171.669 251.265 171.038C251.265 170.575 251.04 170.294 250.325 170.112L249.119 169.832C247.899 169.537 247.324 168.934 247.324 167.924C247.324 166.662 248.39 165.863 249.904 165.863C251.405 165.863 252.387 166.704 252.415 168.008H251.153C251.125 167.321 250.662 166.887 249.862 166.887C249.035 166.887 248.572 167.251 248.572 167.882C248.572 168.345 248.909 168.654 249.582 168.822L250.788 169.116C251.952 169.397 252.527 169.93 252.527 170.954C252.527 172.258 251.405 173.085 249.778 173.085C248.165 173.085 247.142 172.23 247.142 170.926ZM254.634 164.432C254.157 164.432 253.764 164.04 253.764 163.563C253.764 163.072 254.157 162.693 254.634 162.693C255.111 162.693 255.504 163.072 255.504 163.563C255.504 164.04 255.111 164.432 254.634 164.432ZM253.989 172.917V166.059H255.307V172.917H253.989ZM256.772 169.481C256.772 167.363 258.287 165.877 260.348 165.877C262.396 165.877 263.911 167.363 263.911 169.481C263.911 171.599 262.396 173.085 260.348 173.085C258.287 173.085 256.772 171.599 256.772 169.481ZM258.105 169.481C258.105 170.912 259.016 171.907 260.348 171.907C261.667 171.907 262.592 170.912 262.592 169.481C262.592 168.051 261.667 167.055 260.348 167.055C259.016 167.055 258.105 168.051 258.105 169.481ZM266.688 172.917H265.37V166.059H266.562L266.702 167.111C267.137 166.326 268.007 165.863 268.974 165.863C270.783 165.863 271.611 166.971 271.611 168.724V172.917H270.293V169.018C270.293 167.63 269.647 167.069 268.638 167.069C267.404 167.069 266.688 167.952 266.688 169.285V172.917ZM276.823 169.481C276.823 167.363 278.337 165.877 280.399 165.877C282.446 165.877 283.961 167.363 283.961 169.481C283.961 171.599 282.446 173.085 280.399 173.085C278.337 173.085 276.823 171.599 276.823 169.481ZM278.155 169.481C278.155 170.912 279.067 171.907 280.399 171.907C281.717 171.907 282.643 170.912 282.643 169.481C282.643 168.051 281.717 167.055 280.399 167.055C279.067 167.055 278.155 168.051 278.155 169.481ZM289.347 166.003V167.209H288.758C287.51 167.209 286.739 167.966 286.739 169.285V172.917H285.42V166.073H286.655L286.739 167.111C287.019 166.396 287.706 165.919 288.646 165.919C288.884 165.919 289.081 165.947 289.347 166.003ZM296.354 172.917H295.036V167.167H293.689V166.059H295.036V163.913H296.354V166.059H297.7V167.167H296.354V172.917ZM300.202 172.903H298.883V162.595H300.202V167.111C300.636 166.368 301.464 165.863 302.53 165.863C304.283 165.863 305.124 166.971 305.124 168.724V172.917H303.806V169.018C303.806 167.63 303.147 167.069 302.165 167.069C300.889 167.069 300.202 167.994 300.202 169.172V172.903ZM309.909 173.085C307.89 173.085 306.501 171.627 306.501 169.495C306.501 167.349 307.862 165.863 309.853 165.863C311.802 165.863 313.079 167.209 313.079 169.243V169.733L307.777 169.747C307.876 171.192 308.633 171.991 309.937 171.991C310.961 171.991 311.634 171.571 311.858 170.785H313.093C312.756 172.258 311.606 173.085 309.909 173.085ZM309.853 166.971C308.703 166.971 307.974 167.658 307.805 168.864H311.76C311.76 167.728 311.017 166.971 309.853 166.971ZM318.478 166.003V167.209H317.889C316.641 167.209 315.869 167.966 315.869 169.285V172.917H314.551V166.073H315.785L315.869 167.111C316.15 166.396 316.837 165.919 317.777 165.919C318.015 165.919 318.211 165.947 318.478 166.003ZM321.446 173.085C319.973 173.085 319.104 172.258 319.104 171.01C319.104 169.747 320.043 168.962 321.656 168.836L323.816 168.668V168.471C323.816 167.321 323.129 166.915 322.203 166.915C321.095 166.915 320.464 167.405 320.464 168.233H319.314C319.314 166.802 320.492 165.863 322.259 165.863C323.956 165.863 325.106 166.76 325.106 168.612V172.917H323.984L323.844 171.809C323.493 172.594 322.554 173.085 321.446 173.085ZM321.825 172.062C323.073 172.062 323.83 171.248 323.83 169.958V169.593L322.077 169.733C320.913 169.846 320.436 170.294 320.436 170.968C320.436 171.697 320.969 172.062 321.825 172.062ZM326.932 175.988V166.059H328.124L328.222 167.293C328.685 166.354 329.611 165.863 330.704 165.863C332.668 165.863 333.888 167.335 333.888 169.439C333.888 171.529 332.738 173.099 330.704 173.099C329.611 173.099 328.699 172.637 328.25 171.795V175.988H326.932ZM328.264 169.495C328.264 170.897 329.078 171.907 330.424 171.907C331.77 171.907 332.57 170.897 332.57 169.495C332.57 168.079 331.77 167.069 330.424 167.069C329.078 167.069 328.264 168.065 328.264 169.495ZM334.449 175.988V174.908H335.333C335.964 174.908 336.469 174.81 336.791 173.941L337.03 173.282L334.267 166.059H335.655L337.647 171.585L339.68 166.059H341.041L337.801 174.46C337.338 175.638 336.651 176.129 335.599 176.129C335.164 176.129 334.8 176.072 334.449 175.988ZM345.367 170.926H346.629C346.629 171.627 347.162 172.047 348.031 172.047C348.957 172.047 349.49 171.669 349.49 171.038C349.49 170.575 349.266 170.294 348.55 170.112L347.344 169.832C346.124 169.537 345.549 168.934 345.549 167.924C345.549 166.662 346.615 165.863 348.13 165.863C349.63 165.863 350.612 166.704 350.64 168.008H349.378C349.35 167.321 348.887 166.887 348.088 166.887C347.26 166.887 346.797 167.251 346.797 167.882C346.797 168.345 347.134 168.654 347.807 168.822L349.013 169.116C350.177 169.397 350.752 169.93 350.752 170.954C350.752 172.258 349.63 173.085 348.003 173.085C346.391 173.085 345.367 172.23 345.367 170.926ZM353.196 173.085C352.649 173.085 352.186 172.637 352.186 172.104C352.186 171.557 352.649 171.108 353.196 171.108C353.729 171.108 354.192 171.557 354.192 172.104C354.192 172.637 353.729 173.085 353.196 173.085ZM356.435 173.085C355.874 173.085 355.426 172.637 355.426 172.104C355.426 171.557 355.874 171.108 356.435 171.108C356.968 171.108 357.431 171.557 357.431 172.104C357.431 172.637 356.968 173.085 356.435 173.085ZM359.661 173.085C359.114 173.085 358.665 172.637 358.665 172.104C358.665 171.557 359.114 171.108 359.661 171.108C360.208 171.108 360.671 171.557 360.671 172.104C360.671 172.637 360.208 173.085 359.661 173.085Z" fill="#1C1C1C"/>
</g>
<defs>
<linearGradient id="paint0_linear_3361_22828" x1="137" y1="0" x2="137" y2="187" gradientUnits="userSpaceOnUse">
<stop stop-color="#D9D9D9" stop-opacity="0"/>
<stop offset="0.25" stop-color="#737373" stop-opacity="0.8"/>
<stop offset="0.5" stop-color="#737373"/>
<stop offset="0.75" stop-color="#737373" stop-opacity="0.8"/>
<stop offset="0.980769" stop-color="#737373" stop-opacity="0"/>
</linearGradient>
<linearGradient id="paint1_linear_3361_22828" x1="0" y1="68.4384" x2="350.947" y2="68.4384" gradientUnits="userSpaceOnUse">
<stop stop-color="#526649"/>
<stop offset="1" stop-color="#C2C39B" stop-opacity="0"/>
</linearGradient>
</defs>
</svg>
